<mxfile host="app.diagrams.net" modified="2024-01-04T14:50:45.657Z" agent="Mozilla/5.0 (Windows NT 10.0; Win64; x64) AppleWebKit/537.36 (KHTML, like Gecko) Chrome/120.0.0.0 Safari/537.36" etag="BmuOAAN2f2vYsuV-xD87" version="22.1.16" type="github">
  <diagram name="Page-1" id="J7KN-RfnZE9lHjnfPBKa">
    <mxGraphModel dx="1120" dy="434" grid="1" gridSize="10" guides="1" tooltips="1" connect="1" arrows="1" fold="1" page="1" pageScale="1" pageWidth="850" pageHeight="1100" math="0" shadow="0">
      <root>
        <mxCell id="0" />
        <mxCell id="1" parent="0" />
        <mxCell id="FwzEZSmV-JDLDYe5dAxX-1" value="" style="shape=image;verticalLabelPosition=bottom;verticalAlign=top;imageAspect=0;image=data:image/png,iVBORw0KGgoAAAANSUhEUgAAAVsAAACRCAMAAABaFeu5AAAAwFBMVEX////NIB8AAADKAADMGBbWV1bNHBv239/LCAUNDQ3knZysrKzi4uLwx8d5eXnQMTA7OzvxzMzLDgznqKj5+flubm6Wlpafn5/MFBLabGzgiolVVVXprq7jl5e1tbX67Ozz1dXruLjs7Oz02dn56+vsu7vSQ0LUUVDceXnOJSTQNzaOjo789PSpqanXYGDhj4/Dw8Pm5ua/v79NTU3egoLYZWVBQUHW1tbOzs50dHQuLi7TSklgYGAYGBjRQD8nJydOX2jTAAAOcElEQVR4nO2da3vaOBCFycoYQktTDE0NhUIItyQE2hR6o83+/3+1NmBbRxrJNuDIznI+5bEVYV5kXUYzo1Lptak1n/f7o0qlcjvw1KjX62NPN566vpo7bf/2L/o3vTKNhlf41vuvUb8/n7dMfwmDas1HldtGfeyR6i1Xs/Z6MZ3cX91ZLIGqvpIUdO+u7ifTxbo9W3V6tWZ3XG8MKqPXyH00qHdry1W7PLlDVI7juq5l2b4uTqltjZbl1e44Dvwa9vO0PevUuuPByDSWYzVotq9CjtaJCR5G3SO+x33Xrg1MAzpUjZn/eprnqZLteozbddOYDlD3Ls9cQ7nMbppGlVLjC1YAsFvZzL0xjSuF5ovCkPVls+ncNLKkGjDXNK6UcllBut1uoRrtTjarmcaWRDVmGtRBYh3T4OJVULQe3KVpdHEaFxWtBzfn04V5cdF6cPO9Di4XbYbAy5qYxqdTvcjN1mu4Y9MANbov3uyLl31nGqBaBW+2uR7OppZpOEfKvjeNUKVK0Zut13BvTUNUaOmYRnO0nJVpiArlYF/hWNnMNERag+J3CV6nsDeItUDU140vcUJBl2A5yZXmu9v8P2bwngSdwj+gB/nbvsESGbPlJ7fWopNcKdZy9v0y+r9lBtNp2959mQcg913+th+gwIds0fb5LoF1U/xnir7EKvP/uMhgzscq26rfYrOU33m8/3QUuliBBYyl2eA7mG05C7b7VnEJ7L6Iz/wjjv1JteL7zeKydWe7urFTeCc+80e4/ekocvGCzq+4bO2LXd3YMP8Vn/kb3H5zFLmUhIrL9oLt93zxpR8Kz6y/e2Ldvhq2jV3l74DeZ3zkn3CTmEacVONXw3Y/mCE+YZKFvfHHI9nFqVaFBywuWyfYk8TXHh/5N9z7ehy6WME0ochsg4lC6Rfwe8t/cEs/0J1aa1hdFZitNd3X/kX93j/Bretj2cXpGdafBWYbbewAQJjC4jj340h0sUKH0JdZ82bC9iI0M/5RdriXyjuZCAG5qzov3D+dj+Fmml22F2EbODV+BoI/o8/9CjcII9lp1RcAuRjdAWUrQuhHiu/9Imwr++pbKoRoX/xZylj6vTKR7cHf+0XYDoL6YWH7PvpctC9mC9ZT4xWxDXuwR2AY2brg8q+s0ZZuXhHbcBweAsTQRotmHMn8eHI1Xw/bai/8gPc8xNDOiPbFrMmWSj3trleh2DqRlzNQvAyuQjf8J2uy4pJXVKHYuu3wA3BnJzAbwEXBQJaF2toNxRdgmzBuNUExaxF9wl8e494CjgYyajdn+PbHj7ens+nqm5COrc1LcT2Gre1Nkp8394xpX55tPLZjO34IrO5p7efoE8CW+IG49k0E8eVdaCP7/kBPfa+/fQr1LdrF/Pr9Eyeu/LO2OWjY+kHNoTiK/PXoMsXWZvfN3XT/tsNU0Dz85eZgt+LqN2obzc/Ae4rilGB3DeyLj/DNWmjX/Yc27YKBLdoOwg6IK393IFv7Cm6FdwLr/07NwDhMsGVXXGzYfEr3N8ypYXhef6mmyz8tfN+tUQZXa/Dm4yJ5L3l7HSw9CraXXHl9F3oAWwimqynZ2qwHFZTaxJNIhXzNZ6o4OP5pgcO2EYJ98T1fIy7XQkl+IQVha0cL1EAbqVtwLypioa3qCriMa+JgxP1G097rE41W3k5LyTYmPicrto7dl4hJj+JMVJ4ZI9qjjPGVAiX/AtgXud0IRasNf5OD2YpmsJdhO7WoGOcl7NxduM9EmfCxKbgQCwXIfgr2xb9RObQ9CELXkZRsY6asGbHdkAFhc2GKp/MnuqWem/FdCHSvD4J9MbI7DnVoha2JlGzJZ8ycrSLWDrbuGN3XBqLsINCHw7Tgt9COI2TKzjb8x0gp2cb4NWfEViHeJleNi9J9lmfEOP8Dai25/5W5UOKtZSnZ6s23L8x2xFSfTIh4cvxs6ASeAEDUjeLmJCF+nZWSbcye18uy5fZFHWJiK0heUWJ45BBowpAVLWkFkg9v3jz8xUtcr5+SbUz4eYZs6531rClMFyKfZyH8ebBsS6W70qMLoae8Efc37P2GRdB8s9+JwPUvZy8rCNuxzRzXZcKAFUZeWBu43vYLe6WhbnlqLkRHoimcU7Tgos03v+jCadnqt3QyY7vez08tjGcMm2IVMqUEaTNsBi13Io5mgnOFcpyKLAVgLQ/XEzDF4GAVgu06Kj7gr4fjE16uBj0rmhekkEPRcQU9PSJFJfir3HQLOpCow03JVu60XoJtZDSuAq3wAxh5VegqpHFYZCsZDneKhv4hf5lbg0FvEs2FC8aW24cpRStwDH3mxgQF8+Cu4MwmxI3IVKAAZ9EFQ0/UgxSMLbbEFqOIc0swButg8dmroqMgzTYy3QJDbkIA04eIecHY0tU4S7IStCKWSpYww5XYkisDznIIywsV2we6ugKwtalq8OXucWzBNCmuHiS26Im7F2e6hQWFqk9QLOIKwNYi2cJEVclW3EeV2JKdAueID2MW5+kMezyRb9PrYAuVKNmK+/8yW/TE3Yp3xL9OwjZaPJzZ8iI2GXlH/P8lWzAWHsEW93a34q3dZ7ZHsBVCTH3xd89sj2Er7YaBI/6Z7ZILAwDTYwK2Q5EteCOd2SqVgK0QCCl43Z7ZKpWELeATHfHPbJVKwlaw16Aj/pmtUknYaiOnz2yVSsQWQh/ObM9sKShntq+VLRnobY6tmb3IM9vXzxY2K0/O1ozvRzq23XWblpjWkcyMfWarY9tjLi3RIYxMl2+OrRlfu4PtYHrljK0ZH9Gs2FIHbplja8a3OSu21BBojq0Zn/ys2A5yxdZMLElWbKmDCMyxNRMDdThbBw5EFp+WCj8xx9ZQ7N6hbJ1ek9NGnN/KAYEm2RqL5z2MLfqDSesyKiLwzBarOXCfl4ztOdqecLDPkuQLmA+2yfxq1seyBX8wzgcPYioP9rWLObks32yFowyCjOMoHdtHGtaJfERjjtfKnu0FVQ0aXWoqtsKz0wdt6djCu6/yv436irRsxffqpdneU9Wg/y13uq3W/5aOD9Sx/ULDwuuxfuMQ4c6znZllGyYEhmocOM+YszHjTEDIB4Oe/IF0bKHFqcayaNtdwRZGRJ6t/uyy1GyFyPz4WJIZfz2Id+CzUYHNA9kKcxz6DDMdW3Bz5JKxwdwsSmNBs0UPCJ7toTkDFWyFZWcsWzzOPFjJ0J763vUqkBHZkjHAOrYYgRZd/ktfJtkOoX5ge2iuS5qtuKuiyk0RdkT4W0TxZTgfCIo70MpHwqPT+by1bCGpQtgSYSjjQvqA7b4bbgmh1TxbvXFcwxaPbd3dkdIiKdgOmEv+QuHbj1bu6DIYDMRHp0/p1bLFZMP74KgWtGbOqRS6il0XMhTQAlu9kVGTew1ez9LC8VM+Sw1HFc87nzJ/R8YSrILhDhN2w6XeNjWbJdQvDhX0DqaW7RDBbMP0vmCoKudUin573pytJYdj82zFFysxW7w1umJsIZuh1DH+jTZjbDPAi1HnLyyx6huv9FRgdyWaasgsLFq2kl/59+8iLK6wcGTfP1S8MM9WHBCSsxUMI2TmHm1uCtmyEiU1lbdspdLSG0eaamLYPhF4QLyfORmupmGrN9bo2Opz9eyUMu9HlH5N6IgpSTNzOg2Lnm3p3xhWfJP5GlNWYiu+WYnZUht/olKy5eqPPYVb6sxslywXw1YRTx0IU17SZcAqAWy1ZzfqxjKYmUZlkqzLyJcXN0ZtFnPcoGQIEXKFBIphq0oEsJOQ2I5MePU0VLKd6RZmGrZ0S5wny01Bc4Mc0q6+pctrHnrJG8tWlyHsUnhOcTDz9Vltq9Hv9OlyC1NDx/wumT2BTAcoDKtMdww3sfePRohQsWyJGLSAk5TCmWi1GjuY3ktUy1ZeBvW9OWgStgs2Ib6jmPqcqdOv3RL5GBXHLMWzVWW7fC+/XddiGX/2q2ar9f7Q5sSWxo5K1UpmB1tY7pXU6mUXHzYTy+xFJmlVDK4J2NK5hckTuHD6+37bsNVstTu92lzujtDBdf1vnJCt2MD9ymVe1StyorciH1lIKRYIA8zIIl53JGWx+KNI6c53IPtJhDIndql0oZmE6fPkQ484Km/v4sJTzdabCLT5pjsms67abCbR7br0CKHIMvj4kRddpuQvX7kG/vdanSz/zd6CcHkddBnDa+Un6E4hcLq8P4CcNOo5IFmZ7c0v7or/j3YwUbKfuZq6ky1Hl80G+39vlFVvj8um3Qhvq76SXT72vx7YfA/R8MvHd78+vLt+ijmF4OvT4+NTsqMm9YMZL3m2ZjNr1qv1ZnfRPTiky+JKEg4xXtnFarkqM2Wa/IvdEQSb9mrZmS2u/LMIFMUU822zOuJEDJ+ZW61WJS/j5LIcx4k/pcRyvWKudr+fdLQzLr2LQlEUm9TViLQrs6JIsSozrTTnPuZWsbYdQ3oVbBX2H9PS+ygUQu7aNESFYgJKiqBE1mQj0h9YVAAp7OJ5kN4BpABieVw47FUteMON26QwqYI3XOoorvyo0D1ujntbXzHxkflWficJOy2LC1e7sZYLLYoK15nGfznTUpqn860q7ZaQM1GnYeZe7OjthpdRTXWAaG5lM9opIYeq3BeLrpP3GQKoqdrqy6Fc3CkugJp36v2+HMl2KF/q3GuwshhLsEFoTlaVOZ0Ckt2qcrOa7LbNc7RRaduW61T9pyr3BqYJHan+YNxcla8it4Kq4x9/Z1m2nTlwj6Nlua6zY7nTxf20vardNBQn0BZT81FlUB/fNGvL1Wy2Lk8nV+DJAap6P4CvXXY0ayfblxVod2tXrFqtktVc3G+mi/Zs1as1u+P64HZUsFHrWLXm8/6oUqncDhr1+nh80/Xdkmq95bLTWXk/Qru9Xi8Wi/J0upk8P08mm81mWi57V9brdns2W606neWy58Frdrs343q9MbitVEb9+f+MYmH0H0BQe305HRMfAAAAAElFTkSuQmCC;" vertex="1" parent="1">
          <mxGeometry x="20" y="485" width="80" height="35" as="geometry" />
        </mxCell>
        <mxCell id="FwzEZSmV-JDLDYe5dAxX-3" value="" style="shape=image;verticalLabelPosition=bottom;verticalAlign=top;imageAspect=0;image=data:image/png,iVBORw0KGgoAAAANSUhEUgAAAOEAAADhCAMAAAAJbSJIAAAAyVBMVEX////u7u/5xj03fvDt7e709PX39/f7+/zx8fL5xTUrePB0ofH///r52IP5xDP5wiEze/Dz9/4ldfCTs/UAa/Dt8fkRbe8fcvD5wyvZ5vr11Y2OrvL247X40XP725X29PHH2fj50Gnw7eWiuu+DpvD4yE/6yETz3Kz32In026P12pvq8PxRi/Fjk/AAaPB0n/Szx/FFg/D79+rx5c7458T5zVvT4fnB0fXx69yXtPD77s7w7uiqw/W1y/VjlvLe6fr+9N/C0PHz48N5/yd/AAANyUlEQVR4nO2dCV/iOhDAWwr0sEBbKS3CElBwQWAR5Fp11ef3/1CvBz2AArkwWZfRn/uMMm/+To5JOhkEIZKCuBElbopa8sW4KR81yVFLMW7iUpUo0NN1IbwQXggvhBdCrsw6E2F+IyldUVNKVySxLjlu4lRVIZJiLHtNctIkR03JL2U0caSqmOFzeb+vRD7PJz5XoqbCfl/hShUaYapXK1ELpllfpupCeCG8ELJXdSE8rItwiv8yVYISSVGOJG6KW4r7TYWopbD/Oq5UJah8hVpnUMVVuHzZW/BMKH5bQgBA0fZlOByanui67jX5UfP3INTbq26jO/LFmEre13G322jcLevA4xT/ZkJdKL6vXqVatVbTNM2QNMOQJEnTJM3yvtVqjjNqrNoCjCr+CPMKkPOvk7HkWD5VtnjMmmWNJ3/MLyGkuYiJBd2+m1Qdz12nxdCcavfV9s06x3oYoSaTnCzu4Rf3/5IZEWBKlVkfGTUYukg0xxiv5CxVpFYRR94ZwSTQ/4yR8DaurI3/03dUUbCK/t4CFB6l2uGhd9SR1emKDuEZd0+Ksho5eHy+WM64zTVhHthXGP1z248Nk2NCfTlyiPh8cbQlt4TFV4IOmohh/NHz1KyiSVi4rlHg8xGrr0V6hFBLeLwUp88LNpLoWpH30AjReS3Sskoo0hK9/SttpBeOEfRYw1nplOxKUAnjI6U+NVIGTt8mk8kUf1haY5OGVXmKpxj6m5WYJz0OgbcDfH+UrCMUR6XWoGGVSG9vAdrJILTGQxD+FtDH2GNTq/NFWLyKF3ptXFQSVRNcL1pdvgjzySis1WP1nqqihDsWqzpPhOBPvBRav7dV3eFGcbUlV4SP8Xiz2tuq2tjd9JU2YZ5AF/gdExrDbVU6JqBkXZNaddqHcQyU6IpaUgdk/ncgmVCm+o6qKeZADAlJrAoJKUVtKR/WlWJaFcAmbAAqUdu+z7Fi3G7sQ2uZJhSVd9yZRmsAnvYWjWSmuQNpVQA7HueMMInZjGkx1bXEAm4nlbRrrgjvEk85DT1RBf7gh218Eabibsn6E/8WAaA/0/BEmPKht3fq2uEv2V2CTSJnhG9bkYszarQ9aRCdS9EipLQe3m2zGE7NE+zNYSDeOKSyHtLJiABvZDTZhDqNPI0ENYoA8xgRYD4Vl1KTrbgUx6qdHky4t7ii78NDcSkbQh17K/+3EJ6vl3JDeIaZhjPC7+/Dv2IcZszLe0+ADq4W41+1WjWQmv8ZfVSjtuQD+k9xcLWAtWpDGB3vQ95eOHQRotiuv9vKELzP6rP39/e6vVTahbZiR23Bt17Dcgbtba2hk1rlC81nT4oYfhSSnAo/qPDbElX6GHbPTytq2+/V501d1qewhEz2Ftu3U4KPdLZJJFsnUTt/eIFrQgDi3bug6yD4SFq8po0cberCjkNji1CwTTuUsxEWwfvq9YpcDNg9ceBDuVnKkOZ8Rp+w+D6WHEcjF0i+iLDkqvviuosfz3QJgX1VJcuTQZcNoZrLFLXSASI9Qn2l0Y9ZTklw1naQ0GPMPUERQq2HSyp5MqiEwan+YcJcrjywIdbDWA7nBBSuq1/PJ0mOH7WZxwhzlQGCmw7GuHmdXp4Mkmg+oXCUMKeGiGR7C7CdJ/N1Yp32oYf4QUyo2NgPHggFopd6hJ0ZKSHosumjm156ijDn3hASpvNkvligeqk328zJCAuTr17oUQnVHhEhoJVQeT7CnNskuG8hvjPjgyfMLWZH18Oj9RlYLYUhYUMvFGAI3SZ+1Qh9xGil8MVZFk5EbZHcx9tP5KoRSybh2kZqy+ORdyLlZkwY4UASyuwmUp+w7RP2YQhbmITicMoQUKrVCx6hexrQG4kAjxC8slsqPKnO/G5UgSJ8xiLM66wi0kCMGoAmVH9gESrvLAEl403PwxJ6SyIOIeNO6vwGHqEJR+jON4QZq8Xh5/7yhKkPp0M/P2EONdP43RSnasQbS0LtLbChVYYizFVMjFMMk+Vy762Gvg2zHhxgrvISruARDdTegmVMKmnjwNgnuE4aHLuhE16zJHQCF8r3kIC58k8MwjM8uIYWaxSY8AELmFP76L3UHrED1KRlYMMCIijdEHZukQlZBqW18Er3A+wo9KTyhEzI7ghKsiaBBbMFPGDOhSDcWQ/ZTaW1q9CEEuRaGBI2xQPrYYS6W58BvLKaaJyuHFjVR+ij3mT64NuOEJfm9StGu99fE9k/HrSbcBFpNiHMKQZgQ2hJwSSTF5soXdSXHrIPWZxgGM4oXCbEOSIfDmH1y+NureqsNqdmTWRADELM+iRpMQLZ/LMjuwkMliON2ubGhDlqF8UiJFksglT9qvfFcZxakLa/I8Z0PB69jVJJKK+PdSU69mxBh6NpQhONUATYj+49b7xdL9ttXRf8imV+VlFGElGQfBQ2B7/klzYLzZr1kJaJk4SHjvxxCS1r8mrLKVV+3h5Kut0DfDCaQZiRqXCo2AJeLzWq3aWOXYmiYILmAsuBntzfZitNUHejNhzC2qSepUqAK/Wgfwzuy3gO9H0IRMRTDPS51HDu9EhVmGdnxtrtSExTjptM/9P0U/HWz8+t1o8KxhSaJkTcWyATatP2RpW5/iy5FQjp3W/+w3XdMr77QkL73ISGFeVFrm96Kok3vooQMabRpsPwdbOW+/V4WIRocakxHYav+5ljwodDiLS3MLRhMZi1+mh7Hnqi9k3Y+xYR4TXKDlhbAX9enjEYfxFhB9mHjwiETsPPZhVu78mmQxIJj4RRqkagVArQpsE6yBIw5659E1DuW6Cke2nt4IWECxqZVD4CQoS9hfgOfV5qjIPXDXAjSirSmyETwp95B8WAhGdWs2ggakdHJoS+cGcEzxhkzE0PLcK+jEyowz57soLKanOmgFFKDZoPYSfToJ6T3mFLuMk3QSJUbMhnwJY/k+pMR6E3leoHCQ8nLhbgnuMbQXG8NdOJdHPShlo1Qoe8vazVi0qhyZZQ7ds4VSMgB6JW9/oGY0L3M7QdMQt6CLdD5IGwt8YiFLpQGygOCNUFwCN8heqmHBC6zyIeIdyjfB4IXzAJi1AnGewJyzciJiGAy/NmTnj/BEeYUZ8BjGCcWFfyZp/Z8YVP+HKMMDrez6zPICwh9hfG0HspSx+6TRO/aoQ8PrkmGpIfErIkXNzGvQ6jagTMSPQJYfNAzyDuz6QIAc5d7pPTqcGYUO3ZZLfV26eSvUPCG2aE/kRKRCg8nsxn9wkHrAjdvk1KaJ+43WUEh6U/GG3xw6xLMkLB/HViPmVKuBbJCYX20RKdTH1YflJOEh5fD0P579iNfJaElcHRtI4dOZJeoC+dw7GNMQX5vM2CUL2P7h3CuOl4ZTR9efhdHDxCUWRBqOY+4o4YGUpQkU6/tg6kEDEiVCstINAk9FaN67GVKjJkbURzJI/QhCdUy96H/5lIWd1tKpf9z+2m8NNvKrv3iw5QipQJPVmuHidRpt3d7+vru+BLF4lQXTyUfpb8z1j6g9Ju00Or1HoIfhCL9+NB3/+B99PPp1vzXHUTs+p55VF6aXSPzltnbdOMMoY2YocNprnflNxB8161axXVypB7s1agC56w3N8xa0dVWAQuZdWmLhx+3URUwmxd8L00uXd9xCwO36UTgfDhhKrtRYzC+z0drRpx7IRjqz6DDE84MDcSP2MwzQNNpFaF2Zf7Poeumxg2hfER/O6pDJPSF4i3LyK0KvQ5CuHhGPcMK756A0n4NXX1H+jvgDkjhCnQ8XcTfv9e+v0Jz3ASxZxwe17mxYdIVSMyn/sfSGw4D6FJaNXJqhFnidqyYYLM/p3cxiCC5eZdOsn2+JVO01NXHJQyCEms2u7B7AjV+/lmtykP+CUk6aX3UQkkQbbXKTXfhtAdpFSZKS9+F0J1MUyrUpLwjy9C/HHofopbqp7jh8nfhbC33iYU4zRO+oQkKw8+4WK9rcreISRfDyPU3aoRW/jx/YyMdwMl3D31ZjuqYkI/aiO06oDP0WLcTQSInYuxmO2o2iIktIoKoUhI6M63VSWKyoMCT7unNW6et9rfVpXUuvQrznBEqMOWHduTypOZUvWc6KnYXBGilcvZksXazkeqQC9Z8PucEc5wAb2oJvKi+ZG6eBMkHPJEKBBkJ1b6n+vCy+xpkRrMQZ4MT+/S6Y1ElLpVu250F51OL5daU/08GRpWCYerRiCL/ER0bWYnYiiv5dP/SyhJUInjI/uZ3llN+YmWVbROMcIB8knr8lP03iMc7S02U8CHS8ONam5NzyrKhMJHhzxXuPxjLdKzijahILdUMjeqldbLuZ5yUyEUhNsFwQG/qnaeRZFzQkFv3mMOR29ZnIuF8xHmCXUlZpnNDkYxnXLlx6e9q4rYquM+jGOgRFfUklmfIValgHULzZFq+X7wAZR9VeRWUYvadtfd2aDUc6GmHbXsVvo/X2zxkCoiq877Lp3Nm07PPVpMQnXdXqc1B6J9QhUHe4tMs2xxPf9Z8utAlctb6YjBmxh67aX5fKbYMKo4JQyabNv+fB60Wjf9Tiylm5vmM0BWxSlhpEqWZ/rs5daXmWgfvcrzlxKGqkR6qjgl/GpV/wDh2dZDXlQdqRqRSn8gz4hgpypBzboHvNdXIBN7OVJ1jr0FX6ouhBfCCyF7Vf8WYca8nEfRdXyKZ6XqRNWI/dsLx65nyFyq4jTUohm17fdqHsLly97iQnghZG/WhfBC+E8R/g/4C1fOdy6PcQAAAABJRU5ErkJggg==;" vertex="1" parent="1">
          <mxGeometry x="150" y="480" width="75" height="55" as="geometry" />
        </mxCell>
        <mxCell id="FwzEZSmV-JDLDYe5dAxX-4" value="" style="shape=image;verticalLabelPosition=bottom;verticalAlign=top;imageAspect=0;image=data:image/png,iVBORw0KGgoAAAANSUhEUgAAAO0AAADVCAMAAACMuod9AAAA81BMVEX///8wYJLl5eXk5OTm5uYAAADj4+Pz8/P5+fns7Ozw8PD19fX39/fp6en8/PwHBwcmW48eV40aVYwATIcOUIm8xtWAlbOzvs1ee5/CwsIATYfa2todKTTr7e/Ky8zg5OmChYmWmZyWpryPkZNHbJeJnLW5w9Fyi6xKTVCpqalXd55OVV1kZmh1dnjIz9lUWFzW2+IARoSns8Vcep+1tbWioqLExshAQ0ZdXVxsbW4aGxwAAAw6Y5FphKeGiIpRUlIzNjkkKCwJFB0TFxstLzA5QEYADxwwMzUAO31ISEcxOUEWFRUmJiYQICwaICZdYmgGERnND1FrAAAgAElEQVR4nO196XbbOJMoJBHiTlO04k3RLq8jyY4i27FjO04nPf2l3ZP0+z/NrSqAEriTspy5557LH2FMkCUUgNqrAMYY8xpa3YS7XdfqNtzNutbw4K7BJZstuOvQ7GCzpjXgxhqa5sLNqItmC+4G3F3RHAJ1JFBrG0CxOQSqlwAqm1dA2f/HVr5UT8BohDDEL9cJRmPVsQZ1bN1cBdvKQEtiGwHKPLg01zXhP7brurbnMct1NQPu8KcLjw1otuCuw58OPDahWfnKwWb4U/lKY1Ggej5QOx9o+JsbA2XyK0NjjUYDh8VoNho0mM1Gkwaz0WjisMBjHBYHHtNgwmMaTPgMBxOaaVVAM62K9VcqUD0dqJEE2swA6q2BeuWBGmugTADVqhIKNcNX9RwaiFFfuLLcKHFWBCoJqyJQNwK0Xpdrui6xrUtCqQsYotlp1Bu6bKZpgM8IRl10DJpFx0QzPNYUoHox0Ai25YBCs5MEis0RoKJZAjVN0zIMw5F3He423C24w82Qj2246/KxIx6bGV85669KAtUtS0d0bF1HNJht67Ynmu1yv5nTU0v9itGarhOhOE05mI16UwymJJR6Qw5mkwYT7vKrkFBUitfWzVGgROm4slSgtmvqnntzPpjevn//B+f88/98/TQYLm+6lkPUV5fEmQCqy2Za5I1GXQUqe2rGe8qKCaVANDLTdmjMHNtkLFPe2rbR6DQ7vWWv16MxczUE6p4P/uSp11+DpcccbevyFnBPJZS6IBRY8g2VUKCZBqnhmo7TWT7dnX0T/bu9mw3Pe52ubipAnYbmeqy+nD2rqPy8Gy87dm/8Hf/YSb2w5ey8Y2mS4psRoKu5DXtaV3pqx3raDEkaxty2LSAcuOnKXT62MpsdzzocfJWdX3WPrj+n5x0HplrHt23HuJl9iyO1ejf2Z/QxPp/eeEZBV8o3hxNoyCWPoxUdzIYbHUwiFFfvzLKmRfT3bNjBBeg6y7+U96K4rJ78vL0bD5eHeC3Px7Mf39Ux/L7UNZUnr9lII0rSIU9e9VTy5KYk6Y3lbe8yMaPReaH/3Z03l/fR9z7/++1z5O1/Zuc9wSvVy+hdT18kLCCRG8a2Jm9T57aRM7fWlK/n5flufH7Y611d9XrLIRDxywplrv7vGbDqOAZOkuG4vcPx3Z/8893STSC6vjrj+/DzqV1ibhvFc6us63LU4LDlCgUgUC/RSbN3PttRlzm8t+ymYOMlv41fvbvwt5aeU7Wn6mNJt7QIKvHkGXWA8x+HOb3tHg4kwpxfOoVYGf2rk/3FaLRYLOZXegTQQEK5w7/iPLke58n1fJ7Mqtq3/yV+fNopRKF5/ScS5k3Ba97oorbbDoJWy/dbrVbQ3m1/PD5ZL4auoBv+rG9L3qbrUlENRSdKeKZf/kfBtT9fjPZOT0/3jhf786voPHavh+F/nfni9MIP2kct/+FgbzFX1vb8IahFLkB792HUD9s792KE3VfrUtW0T++SfnewwmbxeNQOYFLogokJjoLH43cJKjX2L3bhNQWboN3ae7camv1Wqxa//PbkXdhOy5nzDttUoxfN5W0gWjoDQvZa9uHkor3GQJmYoF073VcwtvaOUt6rwXuP83A4jneTL9SC2r5sX4boRgyrFBvIybWBKsnbHiG7XK2/FBTWmDwcy6U4Osp8zw/8kZzgKz/treBBjkdToKu9Tt6ufRcRSybdd/ENf1FQovF4lImquFoH9GK/FuS/FoyEdmEcpL54tCeJ5l/88W/eq3wXIPQ8zYUJ9JgNdxvuFtwNFnp7mKGhueIx3Zrh700lDtnzKqftQqz2fFwJX/9EIHTcTgX0INZI9zP+/K0ue6rn9FQiYsId0EO/lGhmrLTFZ3doLZGQvSrGoUYrdJFGjomrfSAE/376emmL0XBpMT+xV/gcy2Pr0dSS9OwWI9u+ImRTZyt5+W1Bnlfp7x8tqFWwDXcDbNPkbSPuu6irbgYLkX2mDx6KlnEtGBEjKzWzdO2OBLrpsyvRPZeTGzfJQl2qGbNvE/K2NJdyr3nIj4+TwjF+PdASKGJk6hU85qG7K0TRGQdasppluFQz4rat6mF1QIvi98ShimfsiNbxpHAJqJf/IFhCOvRdWuo3OOI9d2MJpBWGIoTMdpFo+BifHRQi4dM8LUqwsshXExJF++m020Z1xcFOXIfYSu0i1tM1SQvtQnWTAXM2Pc8zXBGKkOEPz4Q7Ripks+NaQ/whXPT94vW5izKjW5JDJdA9Th0lMYK3sMCerNyeUtAEYyquIR67K/zYek2TCqGGIlZWAYnzX1zyqL3iqSW94rTSOpboUn8uUr/cxb49QS++JAI19XVPw5iKw1ICNYyVtfhA2ImFXDxlwbzcEkherVP8BT31JwKUuofQi++vjGgWWfMAg1SLHvw5L6bGh3JLIBUlIbnS0PWxCbrB/zsvUBOz5omk19a8Yu2lGEur+Ia3RGwRxHEhFi2UFk5FFhVegpunUYFP844iyNssUGObMIGNmBcuHoogTueOaQmhWCnuMC6QRbFMTr9a+PNG2lhdCGx3uLl2LqQEamJeuMYGHlbzjguDwCsUtsIceNgQWcni9lPQJRaG7MN8tYe1keU9F1LM/MGFQl5sD9BCzlB4y1ztdxlLiNjBH5x/tmIRzQzvecSaF/47XdeFU1K3InddF05J2eyhJnUOn50UrlBSA0Yb8Shx+djLFA2SsH3P+Vcvr6eZiMCfTC75NKugrloFfwC2h6XQeHjVQkZsjxFCUmOTKxnlbVWroKqHFblDp4xg8dHXUF2PUi9aHQlaEAQttItteFjzLD7Etp865LGrhUpACY9FziVkTVyjEqojR4/nhnPbZBg1cByHggpwp1gD3JXH4o7YdlP6kLhoYoqFcjGMuIpBC7wL2A7tlJ46ZRBRPKy5PFlDbHE4L4p66mdw1CqXoNzYwxZa9GCJ8aW7AU+u5GElbL0yeBAveRXZwtX2kgxxpSe/wr4tp0sZ9XBui7Claekr2Ka6iTO/bgXtI7g+4DzG7ArydF0Dtm6jui4leVMYNfCiejJGQVD79EI9uSzd0noTTMr3g93WxePBw1GOmz3ybftxMe8D1endflKMHckA41cW1+jDnhpRPdkLEXFDRCISqKE1Ij7H0AYiCcTLYUvWHirJreBiFMbArkZ+sdrcWoVBwitmG+CjHxz1Vwd6GpFAak9x2jPyTyPY5slb1KX6JbBt40t7rfZkEQ19jYpIuX3M4ldEtksBxNHIfp28LeG7+MLLaRckPA4urhJdT7VZle8WiS+ic0sk0ufk0U7xXcSTTNN9FyFPhjsNC9wlp6PR0iRPtu5Kao4Bfq3g6nS7MoR/koduS87s1WLv4GLy8XSvGx9ZIhFkyR030lNT9JSFPYU7DQTcjQQiIbYF6c9k36Izeb+AAH0lPaG/eHwI2u3Wx0VyquIXvbGoffhw1G77vk9+vEf1gw8IeAwWkB6L8cV8jvWYzzGSmpfENiZvJbbLshZfiKq9eMDoLmAL1wV2NUd5JiuRne5O9ruOffUgGXBESyU5fsb5nVU2otlIJv6XjFZrqMT8QiQKrPkHgat+3KZF4J909e67x13SfB8zJ7eN/d4/EmFBpJZdvKsSiOS4B0zq3H1Fxq6k4nwuhaEIwPYvfLlgboWPdNQWiLUk7zn5gKScbSvQV9IaYLYvHngq0bTQxu9IVunEwh9rLtXc2MMajfH9Cb/E4ssrY25rYT9l/0GVPM5bymQlggIW0FsTX3wXeX0XJ+oayNZgr5NAinYRw1aV2TM5rkVMGSGuV3tbaAyLYJK3Lsh5iq5bPzg9aIcPVAvX/yjJdoDoqOGPNO0iq7qFKVERWTOSEVQ4l0y5wFVDJpDySvu47/WPYdrsHMJdYRuq1QkjuYVv2CgFw55mhj9WNSNqswiaJGpGGhkRTe1GMuV+vpZADtIIe2m3UE0mnT5rXSjYiivAt1UjmT4/BCb1uryL0hFNtKNvcbnkYxvg1ynqJcmYdxnrguhWXbikkUXkM3YGTILL7daMxKz5dRaSdct5CQuX+pmyYhOWYORC0WOo69+I/hBNPvsX5E+JmpFGtgRCD4bhgA1lWTrcycEBd7iZ6P8wZTM8fZJsKt8Lk5wV2d+PUfYVvVosil1AnF2BigsZRb5GPbVyexoiYobNRthMHLNc3sUy9CjnStwsbIVoyvq0HVeL8eX4Qh5wfquverpR3gUrafFhAs8OnxWyqUxsswhaNJ5E2RQpF+t3xUL+xvnQ3H7NSMx7Lh10aFuSNrUZtkd6RgOhg9qEt8b2ITq3ZDSTIqW9rmZEL315Uy5cU9nqbh627bhQiVxEqGvArSjdkmryBAu5QnfTrrJRL3yM+gXGq3ODldkrGe3TTEWMxmJt8Ee5lNC20SJQeqqn9zQ76lWtZsRuylyE3PhdG6Gk6dKk1mcOFEncNX5tpKiPIZQ2dh9VC1Pp6ZZqRlKj1TRiWOaTx1kJqZikXF1BLrYxD7Lwbsm/hEfqC5q2Sk/LelgjNSNKUEGXQQUrGVSgWIPzS+oXeYTrZw1HAbYB6lqr5LmInkk5kBaSkRHrUkpPrbygCfHkMlkmMJjuUOoXeYRL3DQ1jzwfWxHRDwmecA/tDwIJxt7PVU83zjJhpeWtTv6L63zCpbCjkZY8RFwqRw+j9JIwqZD4kpS/wovzD8c08K3UjJTJDgNCsXYk4eZk2KPgTNU/jhJexNiXRJ2SM4XmPQ0TdhwH2on0tFp2mFIz4hlg+5lgGhpgGpqu41GsQViMFDQBg9IEg5IseiOXcMkOTfXURdls1nDIyVV8FyLeByxjZid6asueGqKnYbMOd0tFxMBmNNLLZnXS0jmUEjfbzUpLML05f1GEQkgKL9QnhFFEAtyl0J7UDKIOikpZnZVqRpxCi56cDmm8iBZqfvoR4SVBr5Qp4dlCg8DeQo1mpZoRdAx9DfuRemVqTDTp+c5ogZhgy+3wV8iNroPou3FX+11sno2N39fFBAJP1miTFRgOhdPBYIahCBMjBmYeb82UM6QvFCTI0TtC5obYitSSMef/WkpPYQLD8IfaU2/d07DCvy6dp5vsU4Mp2aSsZoawSFykIUVCsyBAKNjyqKVgS2oGOs2vXUmcG+1To1WuGUEYxk8uCoKyup3wp4XPkbMWxRkEbpTj6IsfER6Pc8C2+6pdeVRs1ys53C4otpJXMEgGrakrBdtTllo9QYu0MI9OZGPD0qAF7LRlnc0OmvGSsyYK26MrOb5XRT2qXVTjUnoog95l8ZtJyF5SHhcXJIiyoFWKmaBanFqm7srzG2pGxGCa8MsD/K0sbAOEkmDKxLzKJMgRee8H5Ll5F9CK8EQ8fiu7BFTSLphl3XH+gg1Z6lTUlgkvIsMymZ70ORN61SggkTQEbA3RlVdrF0qpRUolhiGbV6EIcymXcpbnMWrLyEs4H0ol1pBasS8yQ8mKx6kdsmhRSMmakRgiVWpGiFAccpjMBAtJv2j1xVKddh1WNhudBsbDhdynpCmStSpxFlgFZPFlWgWsvMUnCGUmeEZ2BEsITXXqhZJUMomXFr1Y+PivRRJ+q7vglbPmhY18U8SVhdRQ+S+pk2Wz0QMZ4PZ2KQd9yvk/kUDNq6z5lPTPlKxQxf/hyaWcHf0iaeMpRXx+CilnX75IKVsQA0Dl7cbLSlSt7KkpWTOy9m2ZuLsHNmXrymSReh/DySf9qnzFTEuUjv+HssueOT+zIoGaV3nhKu/KQ7oy1hxnl2qKNbhKvqClnVYEknGJUmrKdFyK/ChJfS5ZMdoWPKzF3vPQJ43xmE/Ylh3alJXS3VPa+YEWcp7XIvG5JRmVg4oFyhb8w+72zgfT6bC5ymGtVjPSkDUj1S4DXY84XjmJYh/kvg364jH4QAZBlYxlWbyILGqHD66vz8+vr2efVjs19YyNIyNyyefVjMR3StOkByM7/CVMl/BCWPttv11+dkV6FTqGEhtY4QNd3VYpL6L5+l15mInbS5HIzUyjmLD4BfD6o7JpyhO5MgYKlvdfxsub3lDsuOG9dc2IQijaoUyvSa8crfk1UtE6M4tFL71UaXmwt/rA6F2P4bo+XG1j5X2H375km0ar80st0gUc+4uLwuN0IdQi+nCxTim+i1YJdP09lnfhSH/xKteMOPGakYIsE1V5CWObqftekKLMrB0iMf7P2Z3S1xJGn0iCNd69Y6kXxqxnBmOJLJM4T379rjxhsxdG+1J8/0dEdN7P1eaFNGonrclV9mpQkaWkg1EQtC/mTL2cuR7O7Tk5Fl7nYc3PDosaHWMZ/7ISkyt3Wfmx2sYQU7jZu92av3tVZnKFSwcVF7/dOl2czOHaXxwf1P4zDwFzqbZn+S4aebvy5GX+xbdLCJttKh5k0kGoXKISHLcUkDNLe1GRASg4dZEltIuDGaoitD8X7qHW+vAo0n8GlOqyceYfUyRQPKszJ1dyLCk35oISVf7oqxOS8p62tXGkBlkQ96LrIQkUZjmsU0CGwZ3NszpZdXmLhII6HUUNInWycpclHApMwHmSu8dJTnzUL4Et5Q4pMP1WO9gL6xQGXOxc9rYRzabiu5CEMpR+9Mhapjph3NWMn417tuxiaPeLoSiDLbyEmwC220fB5HRxFcra7m24L1B2NnbJmpFMnhx3V8tNu02cPuKS6wBAQNIVZMRS2WvUOpDDEeglsBU+VcCsfzW/6kfUE7k1XDduA2VWUaT6HEtVUSQqMcgd90VdqHLzBgtUHQXX0OyrBWIHsAKjPlO3uHkWyNZZoyy2KVUUWdhmHxAg605s3P2I9ogTdrvvE7LGz52wg15/cRDIifVrcku8ImxHaaia11/ljp1N1cO6eYVMPVH9RDRdT9QUhVPvdsPdTdAjehTsCXvqi9jexbsaXbRW+x/67ceQiguwbcVr+Zh+M74N9zj9oSd7ahb2lFaybGYVPawrcW4io+KS7YYFXVMpYRe7u8FKaKpqUW7aIGCLb978dTe8XoJVG26lLOXZENlRhoe1HJdim0kgHAwda/vk7MoL69/OxH/nIyr0Ch4OFnIRe9jBglgQqVJPqdsxP1nbPWckryI1TWZ3X3ioLYlFJzZpPVfQV5iz8xXHtsBjQyER5AixrbZnwpoK2cim2gVWG0cSZ6hI111XG2OWiqkmsYTN8FhsoPksptcehmtORXd1LTntxVUwt0f4Kqze9Z7wP6dPSw0MU9cr7KmR3VOBSHUPq3rOCOsJscAvZ7O/sWtTge5tYhfhw+8yKbMoPI994ch77X6v1+vDFNmmS1HYVUSzmoc1pN1X7HseHpLhNr+vfEfw78C4ltxz5+lwpRrYvafPNCoIKb8Gg/QtzNzBTRs1V1Opb7vnjJTysMZDERo600OeeePUrZtb6SqDf7/fzWaz55eV+6x4bilihAa7V+WckfI7QFTz1KTsmeF17gR9jS0P32Kd8ddwrvnqP5dT6ZbN51KkXNzAJ15xSu0mu3us13RpL1yMUDTL7fR6lm1qgo5cs1s/HE7vFSky65BdhJ/ly1uKZwI/+1vPZCO/qWYk+wguLUYo1Gw1D5djWMmDazqP4Elim69LUTRwDEvBerNzvUrtuJRLKKkUr9GWI57rUspZ6NvJt4FIuQB9bGBmHo2x0dxWrxl51WWEzo4CbBE14HPDjYMfudcGUS+PxWNJKvsUR3BFgcKqwD1ry2CLvwmEvlSBRtmIWjNSeae033Sul1kKW4of6fLNtznXazNdKn1u11/FAss0tzeF2KK4bUp+Fp/bJNDqOxzSpo9Yv4i78lhirxusehR3S2nWTUvsCSmbY1+pzUmg3rnENtd9TgLoBl1AVhmglXvKWNUsk2TuhlwV9URMRWX0S4ltbooY5XKfc37PkhtSbCXLJIf6SsvbMudoLmVcML8sDp09T1hBXZqNvFnNSMx3oYQi1JiKlkzkQqBhZnNuHislv6G4ZdmBms1qRqTvono+XUooojimYvakzy6rdF6sZOwbWBFDvVygpkRPo5l/FbM617mS+RIonoCpdWTJY+6GxGjvoXW7tEoBfeOakc3lrRZWZuelxJEzGbM6OmnYbkPeVsvGVkIRWceZRghlFVNpYNkH5ujnhTTJ3sMAbT0H6KtrRrYjgZJRfVUC6WDl/ok/krOSKWf7GhMbSwDNkUCZPWU56zHrZMn4eRalJJDxLBNxcuQtBU9muAbKh6Uqn7yxMbZ5/C2OrXcm6y9yHFOUNPeN86c3O8kZX5JbqmHpmKx+0iSMtC3jzPTm9I3YVkBtrDbBn8s25ymzWSctpABoxuZvak/ttJ5W5VJVT3JeMRQK+KJpk606UgyI0p+1fC71f/9Jzt5hYaky1axi/pur5RDW7znJuZ7BBNO4ecpJzl5Hxnu9zIVMORuf0SlVFmjlU8xStvpXDkDOOPctvvGpeuhyGKmIA7XRo4zdyrL5KASECubYKgu05Al1q54yWtOrM/2aBacPpnlYY36ArJOcrb+kXZCRhS5yj85EnCDHuRACjXjhtnCS81YtPgvPQBPZkaM0dMUJbz0ZES3PRqpbfJV1qTIe1pguZbl0TBX1OSW380gkWj3L/U9znIJpulT2qaHJmhG11CIjqBB/XBypSAJ1EVs0DFg3dvKiH54xOKDd2KoAzexKakxlo9N+sz2sjaiHNXow75fwFADWnawXs986upDn8dHJYU2WAXQbp/3+LnnriAPm+L1gjItau0XHv7ZWiQpsKM7SKlBkt7IrTyahbG9ukeECo5LJCf2TxWjxrh8mujHrlzzJMQto1txmes+zT3Le7Fzz+OP8Zr1LUdz71HOCh9T2xdMrAq3UUyaHJTaYeSc5l+TJzRhPRn+7TFwYx1HVnkSYd6buU1iGJ1fdKS2H+rIsvs3kLQHtyUSF63W9gdEbh+H8wyKgb3qScz2R1vEKXUoADdHlz7Phcnk+vvs7LPIR1QIZQIt0qUREM/sk5/DwLr289mmVOkgrpVm3PqmH0Ycpffzn0GIbAy3d0/I2UJYjqIy50lCB9s5WKW4S6Z8zyjiKbWNdPsuk/M6kv1HeroD2xmf/hlP7PFt2LEsrAXS7HtbGW/guUt0Mddfq2s3e4bLXsaJAs9y2keywV53kTEGFwt2ic0MRVnITgrA5s7wDyAtRkr+5JaDRmpEEUFa8dApzJQvdg2sJlCYsNgEaz+osCTQP2+3at9sA+iYRzWaJmpEIoagUnxHR3BrQjECNZCMFO/gn8i5itJ+bw7pS4BUfj/yqRIpEBaCe2ucMoI28HFZvQw9rYzMJFAOaUfDwJhIoEtGsyhZKYRsBqpcMChcO4Sbx2wi2yLyZxwwNz6HxmE5JwR4D5q0h89aAecOfmCusw92CO7B8/EoD4RV+ZWuY3rf6imnVgbIVUGxWgVrbA8rSGErVvItSXOpVQLeVd5GzdP7flEAbRqsbhfZExJrfNtCYkaICjXtYV0BZjrFULRRRLqZSEqjzNkC3lue4FXlbz5W3W8hz/N+w+DJE42+w+F6Xn1xoeOc5Q1WgScO7DNCNakZizsmYz9LayKX5W4DqFYEyueRV9lm6ZiTuDG1mlADEihXqKUATB/PmAy30wmWc9ptDKP8b8lZzycjHuj07CZS5piWaTbcM0G3UjLzl3M4XxxeTycNk8vF4X0+wke5i7+Kh5j9A60Kd2+ZVp1NibhtpdFuVGrZFYjodWCiuoOW32o9X3rrZsPcnR/CULt8PgtO5IYHZ+x92T50ydLttnpxV3lGCJ7uToNY6ujgeLeA69YOaf7THVjz5qhb4fvthDxuPT9v4x6MugLrvAn/P3egkZ9fF/uKW8EQoWTtAvIG8nfi1YOSQWYZfzSetWvAYAh3t1vz2Me347iLNzi/aNd/vE1DC1tykZsQ9vz5fLpfX17gdG/yvaaUxwbfQpU6CWvtGAeqYewHup0dAj9u19iO5YUKg7MT3sTYMgGpibsvVjES0T/Y/6+JKun651m/Rk+2Pvj9ika+wxNE3oBnPCj5asChQD7ciC/qYXLTf8vdYGT05QX3vX56fxDWbzTBowzvub7CBtGaAOaxRoH2Y0blH+XMiwShqAzkPcmMjwraMDZSgvvcvlzB0+BzZGLvm9/+YWll5a5v6pvL2KsBtw2JAH2qthYcU7T+a8jdVNgLf0L7SK2wre1gBW1N1M1zjIaxl3AwNSt28tDbzXWhYcJAAehDgNqfzdq2V6ruwRy1K8w2xLVMz4goPEzmDLOfvl18Rb4/1+eUTentcXfqIpF9K+cojFxI81of8v9jKhbQCqsNXjhd3IXkRoJiC39JiQM390ejEsoii04EC5Z6YJnIpKwWoF/dLxX2O9ns61HftydM/vfws6x60EFu2mc/Ra9Va+24MKH5lIvV2M2pGRr5/akoJtEHNiPP+nrBdEac52OGeEUoxLY4tkXQS2zBRu6Q/GZuBAT9oLGUI91u061SqfQv8q6WXl7fxbOxwbldL3hxwTrFJpIR+3yJZF+53Acp7X8eccEGcjsQ2DD5e1Slv1DFdKW9xNdmeJE7WtWgrchnfmIP+8HAlSFuNaFrHtJAzakZg3jtCl0rWjKS4QBNcaifKpdh05yuheDgl+Xs76Fjie7M3+JMefbvr4WD2BsMpPxs/DbBejw0pBM8/LS13+XQI/HEwsNj5GW2uA9fy7ic1DzVXsj4LlIla++H4BDrpgY4ZeljZqd9auBlxIHOCp8euuVTVk5yBJ1sRYcF37gBbHfr57dPd9AuX5wvjHkT8Zfo0fJrdY5kHpm1yfo+7W8wY6+COuJ9md7ecX9pjPgAa4Nya0QAAthbu9jkYji9lHbUQa6PdFiY9gjK8P9d0R65HNkGCznAcmRc+yKAqEigLW0EoT3hYjWXt8K9LUiJRJOFax/QYSnwCtWb5mY8NrXPVH/Jf/aurDlYHPC8tqgMa89m1xHbJb29wdxvW5PysQ814/sGShaFWfTGhPal8sMbikP4AAAdqSURBVIEmI9ArkBUBtsGJGw3UrLGFid/Pw1Z+JbULKRFWsXlYyb8MkTUGyoXexfIc3bV/7NwC9WGcnNkd3HcIj72aGkyE0b0l5xgIZ+d8ilAcvvMFDG6SCNaSf90BbF1+//WSiSrJe37nyN90YDShS0I4wW929vcufIFyEOzNQZAgtnMzIrvWsXlrD5a5wFYKp3VsPiHxkic52+//+T67u5vCdXf365l2tKUNNzoiow1JGv4CDW7Kz0OKtxucSolDnjzmL+4a6JjvzFzD4P/whtYUzd/0NUOZgkYSKUIz62DTT4LAxz3HHGZPxDYY6XkXgO1+KpcqVTNi//3yohoFz+eI5RnQqsLXv6J6dcefsCiYsHWHw46C7Vc+ttZADdy/ArB9mVpiZX3nQ2u9HrswklpSrBnzvZqPuxMbRJpZHtYDwNasYPFFdXv7/ctZ7/AQjL7l4eFhr6PjpuPGZ36oKaGIGZ9Z5jnfObQsU6jhLnFWia3NeU8F+mVnhtjCEJGWjujRYGhi449bvnRTPKxg0RyD7rxnIE9mWflSDzDxQt6WyZeKZ5h572HpAnsAkwCXPD32gKvUrbXdBurwrWFiZd4f0/Gy4zBPF2X5NnApZnhA2JoClA34QHdwCCy0wDxgb80OXT38p3nHx7pj4CEmEWMQbBNAtHZkLVr+KcvIhdN3a7umdQLY6mVy4WhNqymJaBXE8hy1Gzw/c53nCLLmFprN8V9itX87uzbJfAYudWc1tB4e+rIGaj5JnoxLCmZgySO0QiLLbO6fzFkizxGUxmAO/7TcdA+rJvSslbytXDPy/uWLFcsgcqn7a+MMFvEzKZWO0Vk+XX7DDo+RYAhbze3g62thAWJ2jS1Q1yF/uVlKUqH7sgfYfmj9p5swI40HrHfDg3TcVHlrPZKeVc3ii1rzMLexXfA6uMvZ2pp3h1jGIn1p8JP93h0eMwYEAhII2IOGGx+uU4lBMYnMbQ9LU8lUgWZX+MFMLaAdEWJuW+cC98AAu25ipeYnd9q13a5qzRfkJ8cdoTi3Rsw5qds7/NBY+y69KX/ygND0MKncQfXSsyzjmv+CG3vm197qbd3lLwOgbBgCB4Hi/xqO8ptNzbJ1Dw13I+58NSb41ASjfeGkuGwNmNpHzzZOAFuj0OGrJ2tGbNAuWKKuYLoztdYOMw/0HxNmyF6VdwAt4uZma3l7rzjMnnaEvOU3mgB6KQSUnCFYOB0QFnt+beLGixUcHxexedyqBV0tUVfgnqBNoIVeuBJ1BQl5CyuZJSKaHdz0bSXFnvh3IG3cuDKkeMB2Zy2BcKuZXxKoDrrIy4uQQDdS/4OXFdH4hV/qICzmbUQsykbcOaxvdKFOwBpsujF5a8In7YVVzcOamFvCNsrO2B3/1hAwUD0EAVm3Pu38WLmb9UvaAsC65t/xbUT+tofFe1ZzwC+HPDq31pT/ZYhyShvLJ3pa0xPu5HlkbjVrUvMfYRI1vVXz/bmpsmvb2g/wuJq1hzXLe56sGbGcBN068jFRgwEm0LjpeEb35hNYMR7QDMz37SFoq46nd8CW6cDnDizvWa/Xc1gP7KLPPy4vQUb9csAGEnRrSKDOF75zjo4UpzPFcgJ8rM+P8Cgk29Fl1ZbN6hd+bVfDrthXoEe2j00s43LgT+hQ/yDAIlYKmpxIPRl3w/PEHVNbVbolRIgnRzys/81vrbSaESwD/vcrGqU/l8Liwy2N+dcft3+Adfe1Q4e00zlYonzt/BcgvPP34MYyQ4uvsQY6Rjg/bv8F1ZTyzoF9wsKE2QX7VpT9dU72AMOjfVKzXLc5AeRap/sd4uRXi4M2qpWtkYk9Ral7ANfFxcVHcbvAWyKQzVhc3t7c3LipztDmcPo3//lpDOa5IGm3ezO8O/v7/s/puLcilM71eEyb9rsWmXSeq5kDMA2t+nKpr4HCe1hAcft0Y7krt233AlEI2m3/odUOMLQ1mZsh9Zn7rcAHUzB4mIjGln8BzIuqHWFN+8lrF5lPYc1IGP6I1d/aYWh1HScke9fWTUdhgmRmGbriEAEyvQa9xtXURK6GS7NiaBG15+rYPwpkmK8dPM6xeR1Tefd41MZWwLm9e7HPMF7SmkD7yWQy+Xjw8RFuF4+PjwcXHy8O4JZaM7JhxXKsWfkK+ZijAAX+ZJUDCqPanS8Wo+PF/rxv2rGvLNu7erc4Pj5enPQtVKu9/V1Y3haNm26LTAO44/gYcE/09G3q5jvC3JVAwZy1ioAq5goa/ESc9dQsE4b767Kwbv4qaM/d8nXzb5JBZP3iPy10RaIzZEkC660yiPprJ872d+UpVzPSaALvHhxedXo31yC6hlZheUdBzYj8Kq1mJHGgYp7vgtEUyG1HXLmXiRv6EoQP3JU7hMgdfjXBb+RXjmwOv3LhDjDHK6tu2vMizUVA1eYo0EhP9XygdhpQVrx0NtunhpkdDHkvb+qWVjL9pQTQbexT8zZ7EIl8AoyOVMK24tEYlfcgyipUr5xBlLVB7AbZYcVAN8gOa/yuvcMqbPNVzKU23jvs/wCACduek8CrBQAAAABJRU5ErkJggg==;" vertex="1" parent="1">
          <mxGeometry x="257.5" y="482.5" width="80" height="52.5" as="geometry" />
        </mxCell>
        <mxCell id="FwzEZSmV-JDLDYe5dAxX-6" value="" style="shape=image;verticalLabelPosition=bottom;verticalAlign=top;imageAspect=0;image=data:image/png,iVBORw0KGgoAAAANSUhEUgAAAOEAAADhCAMAAAAJbSJIAAAAyVBMVEX////u7u/5xj03fvDt7e709PX39/f7+/zx8fL5xTUrePB0ofH///r52IP5xDP5wiEze/Dz9/4ldfCTs/UAa/Dt8fkRbe8fcvD5wyvZ5vr11Y2OrvL247X40XP725X29PHH2fj50Gnw7eWiuu+DpvD4yE/6yETz3Kz32In026P12pvq8PxRi/Fjk/AAaPB0n/Szx/FFg/D79+rx5c7458T5zVvT4fnB0fXx69yXtPD77s7w7uiqw/W1y/VjlvLe6fr+9N/C0PHz48N5/yd/AAANyUlEQVR4nO2dCV/iOhDAWwr0sEBbKS3CElBwQWAR5Fp11ef3/1CvBz2AArkwWZfRn/uMMm/+To5JOhkEIZKCuBElbopa8sW4KR81yVFLMW7iUpUo0NN1IbwQXggvhBdCrsw6E2F+IyldUVNKVySxLjlu4lRVIZJiLHtNctIkR03JL2U0caSqmOFzeb+vRD7PJz5XoqbCfl/hShUaYapXK1ELpllfpupCeCG8ELJXdSE8rItwiv8yVYISSVGOJG6KW4r7TYWopbD/Oq5UJah8hVpnUMVVuHzZW/BMKH5bQgBA0fZlOByanui67jX5UfP3INTbq26jO/LFmEre13G322jcLevA4xT/ZkJdKL6vXqVatVbTNM2QNMOQJEnTJM3yvtVqjjNqrNoCjCr+CPMKkPOvk7HkWD5VtnjMmmWNJ3/MLyGkuYiJBd2+m1Qdz12nxdCcavfV9s06x3oYoSaTnCzu4Rf3/5IZEWBKlVkfGTUYukg0xxiv5CxVpFYRR94ZwSTQ/4yR8DaurI3/03dUUbCK/t4CFB6l2uGhd9SR1emKDuEZd0+Ksho5eHy+WM64zTVhHthXGP1z248Nk2NCfTlyiPh8cbQlt4TFV4IOmohh/NHz1KyiSVi4rlHg8xGrr0V6hFBLeLwUp88LNpLoWpH30AjReS3Sskoo0hK9/SttpBeOEfRYw1nplOxKUAnjI6U+NVIGTt8mk8kUf1haY5OGVXmKpxj6m5WYJz0OgbcDfH+UrCMUR6XWoGGVSG9vAdrJILTGQxD+FtDH2GNTq/NFWLyKF3ptXFQSVRNcL1pdvgjzySis1WP1nqqihDsWqzpPhOBPvBRav7dV3eFGcbUlV4SP8Xiz2tuq2tjd9JU2YZ5AF/gdExrDbVU6JqBkXZNaddqHcQyU6IpaUgdk/ncgmVCm+o6qKeZADAlJrAoJKUVtKR/WlWJaFcAmbAAqUdu+z7Fi3G7sQ2uZJhSVd9yZRmsAnvYWjWSmuQNpVQA7HueMMInZjGkx1bXEAm4nlbRrrgjvEk85DT1RBf7gh218Eabibsn6E/8WAaA/0/BEmPKht3fq2uEv2V2CTSJnhG9bkYszarQ9aRCdS9EipLQe3m2zGE7NE+zNYSDeOKSyHtLJiABvZDTZhDqNPI0ENYoA8xgRYD4Vl1KTrbgUx6qdHky4t7ii78NDcSkbQh17K/+3EJ6vl3JDeIaZhjPC7+/Dv2IcZszLe0+ADq4W41+1WjWQmv8ZfVSjtuQD+k9xcLWAtWpDGB3vQ95eOHQRotiuv9vKELzP6rP39/e6vVTahbZiR23Bt17Dcgbtba2hk1rlC81nT4oYfhSSnAo/qPDbElX6GHbPTytq2+/V501d1qewhEz2Ftu3U4KPdLZJJFsnUTt/eIFrQgDi3bug6yD4SFq8po0cberCjkNji1CwTTuUsxEWwfvq9YpcDNg9ceBDuVnKkOZ8Rp+w+D6WHEcjF0i+iLDkqvviuosfz3QJgX1VJcuTQZcNoZrLFLXSASI9Qn2l0Y9ZTklw1naQ0GPMPUERQq2HSyp5MqiEwan+YcJcrjywIdbDWA7nBBSuq1/PJ0mOH7WZxwhzlQGCmw7GuHmdXp4Mkmg+oXCUMKeGiGR7C7CdJ/N1Yp32oYf4QUyo2NgPHggFopd6hJ0ZKSHosumjm156ijDn3hASpvNkvligeqk328zJCAuTr17oUQnVHhEhoJVQeT7CnNskuG8hvjPjgyfMLWZH18Oj9RlYLYUhYUMvFGAI3SZ+1Qh9xGil8MVZFk5EbZHcx9tP5KoRSybh2kZqy+ORdyLlZkwY4UASyuwmUp+w7RP2YQhbmITicMoQUKrVCx6hexrQG4kAjxC8slsqPKnO/G5UgSJ8xiLM66wi0kCMGoAmVH9gESrvLAEl403PwxJ6SyIOIeNO6vwGHqEJR+jON4QZq8Xh5/7yhKkPp0M/P2EONdP43RSnasQbS0LtLbChVYYizFVMjFMMk+Vy762Gvg2zHhxgrvISruARDdTegmVMKmnjwNgnuE4aHLuhE16zJHQCF8r3kIC58k8MwjM8uIYWaxSY8AELmFP76L3UHrED1KRlYMMCIijdEHZukQlZBqW18Er3A+wo9KTyhEzI7ghKsiaBBbMFPGDOhSDcWQ/ZTaW1q9CEEuRaGBI2xQPrYYS6W58BvLKaaJyuHFjVR+ij3mT64NuOEJfm9StGu99fE9k/HrSbcBFpNiHMKQZgQ2hJwSSTF5soXdSXHrIPWZxgGM4oXCbEOSIfDmH1y+NureqsNqdmTWRADELM+iRpMQLZ/LMjuwkMliON2ubGhDlqF8UiJFksglT9qvfFcZxakLa/I8Z0PB69jVJJKK+PdSU69mxBh6NpQhONUATYj+49b7xdL9ttXRf8imV+VlFGElGQfBQ2B7/klzYLzZr1kJaJk4SHjvxxCS1r8mrLKVV+3h5Kut0DfDCaQZiRqXCo2AJeLzWq3aWOXYmiYILmAsuBntzfZitNUHejNhzC2qSepUqAK/Wgfwzuy3gO9H0IRMRTDPS51HDu9EhVmGdnxtrtSExTjptM/9P0U/HWz8+t1o8KxhSaJkTcWyATatP2RpW5/iy5FQjp3W/+w3XdMr77QkL73ISGFeVFrm96Kok3vooQMabRpsPwdbOW+/V4WIRocakxHYav+5ljwodDiLS3MLRhMZi1+mh7Hnqi9k3Y+xYR4TXKDlhbAX9enjEYfxFhB9mHjwiETsPPZhVu78mmQxIJj4RRqkagVArQpsE6yBIw5659E1DuW6Cke2nt4IWECxqZVD4CQoS9hfgOfV5qjIPXDXAjSirSmyETwp95B8WAhGdWs2ggakdHJoS+cGcEzxhkzE0PLcK+jEyowz57soLKanOmgFFKDZoPYSfToJ6T3mFLuMk3QSJUbMhnwJY/k+pMR6E3leoHCQ8nLhbgnuMbQXG8NdOJdHPShlo1Qoe8vazVi0qhyZZQ7ds4VSMgB6JW9/oGY0L3M7QdMQt6CLdD5IGwt8YiFLpQGygOCNUFwCN8heqmHBC6zyIeIdyjfB4IXzAJi1AnGewJyzciJiGAy/NmTnj/BEeYUZ8BjGCcWFfyZp/Z8YVP+HKMMDrez6zPICwh9hfG0HspSx+6TRO/aoQ8PrkmGpIfErIkXNzGvQ6jagTMSPQJYfNAzyDuz6QIAc5d7pPTqcGYUO3ZZLfV26eSvUPCG2aE/kRKRCg8nsxn9wkHrAjdvk1KaJ+43WUEh6U/GG3xw6xLMkLB/HViPmVKuBbJCYX20RKdTH1YflJOEh5fD0P579iNfJaElcHRtI4dOZJeoC+dw7GNMQX5vM2CUL2P7h3CuOl4ZTR9efhdHDxCUWRBqOY+4o4YGUpQkU6/tg6kEDEiVCstINAk9FaN67GVKjJkbURzJI/QhCdUy96H/5lIWd1tKpf9z+2m8NNvKrv3iw5QipQJPVmuHidRpt3d7+vru+BLF4lQXTyUfpb8z1j6g9Ju00Or1HoIfhCL9+NB3/+B99PPp1vzXHUTs+p55VF6aXSPzltnbdOMMoY2YocNprnflNxB8161axXVypB7s1agC56w3N8xa0dVWAQuZdWmLhx+3URUwmxd8L00uXd9xCwO36UTgfDhhKrtRYzC+z0drRpx7IRjqz6DDE84MDcSP2MwzQNNpFaF2Zf7Poeumxg2hfER/O6pDJPSF4i3LyK0KvQ5CuHhGPcMK756A0n4NXX1H+jvgDkjhCnQ8XcTfv9e+v0Jz3ASxZxwe17mxYdIVSMyn/sfSGw4D6FJaNXJqhFnidqyYYLM/p3cxiCC5eZdOsn2+JVO01NXHJQyCEms2u7B7AjV+/lmtykP+CUk6aX3UQkkQbbXKTXfhtAdpFSZKS9+F0J1MUyrUpLwjy9C/HHofopbqp7jh8nfhbC33iYU4zRO+oQkKw8+4WK9rcreISRfDyPU3aoRW/jx/YyMdwMl3D31ZjuqYkI/aiO06oDP0WLcTQSInYuxmO2o2iIktIoKoUhI6M63VSWKyoMCT7unNW6et9rfVpXUuvQrznBEqMOWHduTypOZUvWc6KnYXBGilcvZksXazkeqQC9Z8PucEc5wAb2oJvKi+ZG6eBMkHPJEKBBkJ1b6n+vCy+xpkRrMQZ4MT+/S6Y1ElLpVu250F51OL5daU/08GRpWCYerRiCL/ER0bWYnYiiv5dP/SyhJUInjI/uZ3llN+YmWVbROMcIB8knr8lP03iMc7S02U8CHS8ONam5NzyrKhMJHhzxXuPxjLdKzijahILdUMjeqldbLuZ5yUyEUhNsFwQG/qnaeRZFzQkFv3mMOR29ZnIuF8xHmCXUlZpnNDkYxnXLlx6e9q4rYquM+jGOgRFfUklmfIValgHULzZFq+X7wAZR9VeRWUYvadtfd2aDUc6GmHbXsVvo/X2zxkCoiq877Lp3Nm07PPVpMQnXdXqc1B6J9QhUHe4tMs2xxPf9Z8utAlctb6YjBmxh67aX5fKbYMKo4JQyabNv+fB60Wjf9Tiylm5vmM0BWxSlhpEqWZ/rs5daXmWgfvcrzlxKGqkR6qjgl/GpV/wDh2dZDXlQdqRqRSn8gz4hgpypBzboHvNdXIBN7OVJ1jr0FX6ouhBfCCyF7Vf8WYca8nEfRdXyKZ6XqRNWI/dsLx65nyFyq4jTUohm17fdqHsLly97iQnghZG/WhfBC+E8R/g/4C1fOdy6PcQAAAABJRU5ErkJggg==;" vertex="1" parent="1">
          <mxGeometry x="266.25" y="580" width="73.75" height="60" as="geometry" />
        </mxCell>
        <mxCell id="FwzEZSmV-JDLDYe5dAxX-7" value="" style="shape=image;verticalLabelPosition=bottom;verticalAlign=top;imageAspect=0;image=data:image/jpeg,/9j/4AAQSkZJRgABAQAAAQABAAD/2wCEAAkGBxAHEBUSEQ8RFhUWGBcVFhgVGRcXFRYWFxUYFhUTFxYYHSggGBolGxUXITIjJSkrMi4uFx8zODYtNygtLisBCgoKDg0NGhAQGzElHyYvNy40NjcrLTA3Nys1NzQtNzc3Nzc3LS8tLzItLSs1LTI1LTU1Li0tNy0tMisvLSs3Lf/AABEIAOEA4QMBIgACEQEDEQH/xAAbAAEAAgMBAQAAAAAAAAAAAAAABQYDBAcBAv/EAD8QAAIBAwEEBgYIBQMFAAAAAAABAgMEEQUGEiExBxNBUWGBIjVxc7GyFDI0QnKRocEjM2LR4VJTghUWJLPw/8QAGgEBAAIDAQAAAAAAAAAAAAAAAAEFAgQGA//EACwRAQACAQIDBgUFAAAAAAAAAAABAgMEESExQQUSMjNRcRMikbHhNFKBwdH/2gAMAwEAAhEDEQA/AO4gAAAAAAAAAAAAAAAAPgROvbR2ugw3q9WKfZBNOcvZHmBLAreze2tntBwp1Nyp/t1MKXl2S8iyAAAAAAAAAAAAAAAAAAAAAAAAAAAAAAAA+KlSNNNyaSXFt8EgPs1dQv6WmwdStUjCC7ZPC9hSdoukenQl1NjD6RWbwmk3BPwxxn5cPEjtP2HvdppqvqteaXNUotbyXd2qHlx9gGTVNv7nW5u30qjNy7askspf6lF8Irxl+RsaF0cKc+v1Kq69V8XHLcE+eJS4OX6IvGl6XR0mCp0KUYR7orn4t82zdAo+0nRza6n/ABKH/j1eacM7ja5Zj2e1YIK32n1LYuSpajSlWo5xGpHDePCfBS9ksM6qYrm3hcwcJxjKL4OMllNdzTA0ND1+212G/QqqXBZXKUfCUeaJRHONb6OHbz+kabVlRqrLUM4jnniMvurweUYtK6Qq+lT+j6rQlTkuHWKL4+Liua8YgdMBr2V7SvoKpSqRnF8nF5RsZyAAAAAAAAAAAAAAAAAAAAAADxvBivLhWtOVRptQi5PHPCWXg5Be7ZXm2VZW1vUp21OfDMpbspJ98u/wiBedp9vLTQsxUlVq8urg1wf9UuUfiVSlperbeNSuZytrZ8oJNZXZiDw5e2X5Fp2X2CtNCxOS66t/rnxSf9MeS9vMtuAIXZ3Za02fjijSW9j0pySdSXtl2excCbXAAAAY61VUVlvCItaKxvJzZAYKFzGuvReTORS9bxvWd4TMTHCXjRo6to9vrEOrr0oTj2by4p98Xzi/FG+DJDlt7sZf7LzdbS685w5yoy5vwabxP4kts30j0bt9VeQ+j1lwe9lQb5cc8YPwf5l7wQW0uydptFH+NTxP7tSPCcfPtXgwJuFRTWU00+TXFM+zjF3eXvRxWVONzTr0XypyfpJeMecH4p4Z1HZjW47Q20LiMJRUsrDxlOLw+K58UBLAAAAAAAAAAAAAAAAAADR137LW93P5Wcp2H2Lt9p9Pcp70KqqSUZx7sLClF8Gv/snVtc+y1vdz+VlQ6GfV8vey+EQIOOoatsA1GvD6Rargpc8Lwlzg/CXDuL3s3tXabRLNGp6S5wlwmvJ814om6lNVE00mnwaayn7UUTaTo3pXL66yn9HrLilHKg34YeYeX5AX3J45pdpo6XQq2lvCFSpKpUjBKUptZlJLjlpd/aR17VqSeJ5Xh2f5NHW62NNXfaZ+31euLF355t651NR4Q4vv7P8AJGVasqrzJ5PgHLanW5dRPzzw9Oixx4q05PYycXlZXsJC11Nx4TXmv3RHAw0+qy4J3pP+JvjreOKy0qsaiynlH3krdvUnTfoZz3Lt8icouc4+kt1+HHHj7TqND2hGpjaa7TH0V+bD8PqwazrVvotN1LirGEfHm/CKXFv2HO7zbDUNq5ujplBwhylVlwkk+1yfCC8OLJG06OZXtxOtf3VSst57kW3lxz6O9Ls4dkUi92dlSsYKFKnCEI8FGKSS/Isng5pc9HlLSbK4uLipKtX6uUst+hGWOa7ZPxZYuib1XT/FU+dkttp6uufdT+BE9E3qun+Kp87AuIAAAAAAAAAAAAAAAAAA0dc+y1vdz+VlQ6GfV8vey+ES3659lre7n8rKh0M+r5e9l8IgX0AARmszdPccW0+PLyMNK/jVW7Vj5mTXPuef7EWcvr9Tkw6u/dnhw4dOULDDjrfHG7eraflb1N5Xd/Zmi1jgzJRryoPMX/Y3416d7wmsS5Jr9n/c1vh4NR4Pkt6Tyn2noz3vj58YRht21hKrxl6K/U2WqWn98pfr/g0ri7ncc3hdy5E/Aw6fzp71v2x/cnfvfwcI9W3K5p2nCmsvv/yfGn1pVqvpPPB+zsNA3NK/meT/AGMsGryZdRjryrvHCOEIviitJnrsnMHoB1ytQm2vq+591L4ET0Teq6f4qnzslttfV9z7qXwInom9V0/xVPnYFxAAAAAAAAAAAAAAAAAAGjrn2Wt7ufysqHQz6vl72XwiW/XPstb3c/lZUOhn1fL3svhEC+gACK1z7nn+xFktrUHJRaXBZz+hEnIdrRMau38faFnpvLgMlt9eP4l8TGZbX68fxR+KNDF5lfd7X8Ms2rfzfJGoberfzPJGoe+u/U395YYfLgNzSv5nk/2NM3dJg3POOGHx7OzgToImdTTb1M07Y5TgAO2VKE219X3PupfAieib1XT/ABVPnZLba+r7n3UvgRPRN6rp/iqfOwLiAAAAAAAAAAAAAAAAAANHXPstb3c/lZUOhn1fL3svhEuOswdW3qxim26c0kubbi8I5n0YbT2+iU5Wl05UanWNp1Fux4pLdefqtNdoHWAfEKimspprv7D7A8ayaN1psa3Fei/Dk/ajfB5ZsGPNXu3jeGVbzWd4Vqvbyt/rLz7BbfXj+KPxLHKClwZoVNNUJRlF4w02vPs7igzdj2x3i2Kd435dfy3K6mJjazS1b+Z5I1qdOVV4iskvcWP0ipvN8MLlzNylRjSWIpJGduyr5tRe9+Fd595RGoilIiOaPtdLUeM+L7uzz7yThHdWAuB6XOn02PBXakbNW+S153kAPG8GwwQu2vq+591L4ET0Teq6f4qnzs1ukHa+0tretbKfWVpxcN2n6W62vvPkufLmbvRfbztdNpRqQlF5m8STTw5Np4fegLaAAAAAAAAAAAAAAAAAAHMgtpNlLTaGP8akt/HozjwmvNc14MnQByeVhq+wT3qMvpFqvucXheMcZg/GLwW7Zfbq02hxFS6ur/tzwm/wPlJfr4FqKbtR0e2uuZnBdTW570F6Lf8AVH91xAuKZ6cpo69quxElTvabr26eI1FxaXZief0kX7Z/aS11+G9Qqpvti+E4+2L+IEwRu0ledrZ3FSDxKFKpKL4cJKDaeHw5rtJHJFbW/YLr3FX/ANcgIvo41atrdiq1ee9N1JrOFFYTwlhFqKP0PerI+8qfMXfIHoNPU9ToaVB1K9WMIrtfwS5t+COeajt1ebQzdDSqEsdtWS4471nhBeL4+AF12h2ntdno5r1MS7IRw5y9kf3fAoVXV9W28bhaxdvbcnN8N5eM0svh2RJbZ7o1p0ZddfVHXqt5abe5n+rPGfwL9SpqklGKSSWElwSXckBVdl9grTQcTcetrds58k/6Y8l8S2JYPQAAAAAAAAAAAAAAAAAAAAAAAABirUI14uM4qUWsNSSaafY0+aKBr/RvFT6/T6rt6q4qKbUP+Mk8w/VHRDzAHMtL2+udEqK31W3nFrgqqWM+LXKa8Yst2u6jR1LTLmpRqQnB0KvGLTX8uXB9z8CT1XS6Gq03Tr0ozi+xrl4p9jOba70fXWkqpPTa03CcZRqUm/ScWmnFZ4T4PHHDAm+iOrGjpSlKSjFVKrbbSSW9zbZr7QdJEVLqNPpO4qvgpRTcE/6UuM/0XiVrZrYfUNWpRpV6k6Fqm5bj+tJt8XufvLyOobP7N2ugR3aFJJ9snxnL2yfwApGl7B3WvVFcarcTfaqSfFJ8d3K4QXhFeZ0TTtNo6ZBU6NOFOK7IrHm+9m1g9AAAAAAAAAAAAAAAAAAAAAAAAADIZyTpNjXvdZsrWnd16Ea0N1ulOUcek/S3U0m+AHWsjJzKr0ZXtFZo6/eqa5b7lu58d2aNzok2mutcp16V21Opb1NzfWFvc008LDalF8e3gB0IGveXtKxg6lWpCEFxcpyUYpeLfIjtO2r0/VJ9XQvbepPnuxqRcmu9LPFATII/W7+Gn29SpOrCniLSlJqK3sPdSb4Zz2FK6L9so3ljvX9/S67rJr+LOnCW7930eHDyA6KDDQuYXEVOEoyi1lSi04td6a4NERcbZaZa1OrnqFpGaeGnVhwfc+PDzAnQfFGrGslKMk0+KaeU13po+wHI8yaWuUq1e2qxt57lVwkqcv8ATNr0ZeTOeUeiircreu9Zvp1XxbhKSim+7ek38PYgOoZPTkuyd3e7K6z/ANLq3U7mjOG9CU23OOVvJ8W2uUk1nHJ8DrQAAAAAAAAAAAAAAAAAAADjvSjOvT1ywdtGEqyhmnGbxFy35YTfcdiZyfb2rGhtFps5yUYpJtyeElvS4tvkBnv77ayrTaja2kG19aEk5r2KTxk96Ib+2sHUsHQq0bxN1KyqvLqywsyT8O7z4l7q7SWNFZleW6S7XUj/AHOZaTcR2s2mV3a5lQoU92dTDUZNQqRWM97qLHgsgZtStv8Av7XalrWlL6LZxy4JuKnPMc5x4vGeeFw5kvtj0bWFW0nO2oRoVqUXOnOm5R4wTeHx4+3mRFpcx2Q2kuPpD3KV6swm+Ed5yTw3+LK80XHbnae20axqzdam5ShKFOKkm5SlFpYS/PPgBDbOXNPbrQlK8h1jipqWcrNSjndn6LXgyv8ARNsZp2v6f111axqVOsnHecprgnwWIySLL0YaNU0zQ1TnFqdSNWph88TXo+eEiN6DtUo0LCpQnVhGpTqzcoyai0pcU+Psa8gMvStey2esbexsl1fXzVCOG/Rp4xupvLWXKKz3ZJXT+jDSrSgqMrWNR4xKpJy32+1pp+j7EQvTVRlWt7S9oLrI29ZTk4vK3XxUs929FL/kXnTdo7PUaCuIXFLca3m3JJx4cVJPk0BROjudTZrVbrSXUlKil1tDe4uMeeM+ySz4xz2nUkco2Iq/9y69d39NPqKcephLsk2kljyi37GjrCA8ZWNtLjVqHV/9Mo0J5U+tdV4cX6O5urKT+/8Akia1rVaOiUJV68t2nDd3pYbxvSUE8LjzkjHa67Z3UOsp3VGUcZypxxj8wOc9HVWjLUqrv+vWqOOH1yiobmFwoqHDG6l5J+J1g49qF9DanaW2do9+NvH+JUj9XCy5ce1JyUfa2dhAAAAAAAAAAAAAAAAAAAAV/aDY2x2jqRqXVDrJRjup5ksRznGE+8sAApcOivRoPP0KPnKX9yz6XpNDSKap29GnSgvuwiorPe8c34m6AInXtnLTaGn1d1RhUSzhtelFtYbjLnEgdO6LtKsKiqK3c2uKVWTnFf8AF8H5l0AHyo4KlqvRrpWqVXVnbJTk8y3G4KTfNtLhkt4A0rXSqNpQjbQpx6qMdxQa3o7vLdafNFUr9FGkVZ730eUVz3YzkoflkvAA0tK0qho9JUrelGnBcoxWFntb72+9m6ABrajYUtTpSo16calOfCUZLMXhprK9qT8im3HRJpFaWeonHwjOSj+RewBEaBs1abPQcLWhCmn9ZpZlLHLek+LJcAAAAAAAAAAAAAAAAAAAAAAAAAAAAAAAAAAAAAAAAAAAAAAAAAAAAAAAAAAAAAAAAAAAAAAAAAAAAAAAAAAAAAAAAAAAAAAAAAAAAAAAAAAAAAAAAAAAAAAAAAAAAAAAAAAAAP/Z;" vertex="1" parent="1">
          <mxGeometry x="380" y="580" width="80" height="60" as="geometry" />
        </mxCell>
        <mxCell id="FwzEZSmV-JDLDYe5dAxX-9" value="" style="shape=image;verticalLabelPosition=bottom;verticalAlign=top;imageAspect=0;image=data:image/png,iVBORw0KGgoAAAANSUhEUgAAAfoAAAH0CAYAAADVH+85AAAACXBIWXMAAAsTAAALEwEAmpwYAAAgAElEQVR4nOy9aZQc1ZXv+z8RkXNVqTQgNICQhCYkhEAgIUBCAjF4wANtt41t8Ei7AWNjX3e/vu/d9+Wu+95a797rbrttY7qNMbbbU9vt9oBtBplRI0gIBAKBQEJCIDQhqcYcI877kFlZOcQ5cbIyMivi5P6tJYQyduyzc4pf7hMT45xzEARBEAShJcZ4F0AQBEEQROsg0RMEQRCExpDoCYIgCEJjSPQEQRAEoTEkeoIgCILQGBI9QRAEQWgMiZ4gCIIgNIZETxAEQRAaQ6InCIIgCI0h0RMEQRCExpDoCYIgCEJjSPQEQRAEoTEkeoIgCILQGBI9QRAEQWgMiZ4gCIIgNIZETxAEQRAaQ6InCIIgCI0h0RMEQRCExpDoCYIgCEJjSPQEQRAEoTEkeoIgCILQGBI9QRAEQWgMiZ4gCIIgNIZETxAEQRAaQ6InCIIgCI0h0RMEQRCExpDoCYIgCEJjSPQEQRAEoTEkeoIgCILQGBI9QRAEQWgMiZ4gCIIgNIZETxAEQRAaQ6InCIIgCI0h0RMEQRCExpDoCYIgCEJjSPQEQRAEoTEkeoIgCILQGBI9QRAEQWgMiZ4gCIIgNIZETxAEQRAaQ6InCIIgCI0h0RMEQRCExpDoCYIgCEJjSPQEQRAEoTEkeoIgCILQGBI9QRAEQWgMiZ4gCIIgNIZETxAEQRAaQ6InCIIgCI0h0RMEQRCExpDoCYIgCEJjSPQEQRAEoTEkeoIgCILQGBI9QRAEQWgMiZ4gCIIgNIZETxAEQRAaQ6InCIIgCI0h0RMEQRCExpDoCYIgCEJjSPQEQRAEoTEkeoIgCILQGBI9QRAEQWgMiZ4gCIIgNIZETxAEQRAaY413AURzvPV/dIPVPlj3QOUiXvofj7eecVkagHG1IWvi6taRDlIRK8lTOU4jNdfFe4zBmFnxr4IkcPS1Lb/ewkEFcdL3EJ61jgY39j66Dl31vMdYi1cdNXnG/nnyrkX1s+RdS/3r0tjnSe11k9YhyNFIHcVa3LYHNZ/x0vNt5L1p5HNdjq+N+aLiZ50QQh29BtR9DSTfi/LmlktEBQDcVVFVy5WG5OJvNpeuWBMryVM5TiM118V7jMG5XfEvyQ+litfWVW8uRdbFSd9DeNaqmMr7NQGAquc9xlq8Pk81ecb+efKuRfWz5F1L/evS2OdJ7XWT1iHIUVeHZy0e2wOg/HwbeW8a+VyX48nrvkOi1wSS/eg4JPvKQB9eE6B9spfVUJGn2Vo6TvZKtdRuDyzUfca5DXCbZB8ySPQaQbIfHYdkXxnIGn4fXYduh+xrus+mZN+sZHWUvdcwrtsD9884yT48kOg1g2SvUIeglsDKXlYHoCbYUlwoZO9VQ0Wehtepjes02dM0fkdCog87Shtnyeo6yl6lIxTUEkjZc/eYqtV122dPnb1nLe3t7AXT+LLcfsmeaBoSvQ6Q7KVjaCF7QUzVItpnr75ObVynyX7MnX37ZU80D4leF4Ike186MXkZ5ViSffUi3WTvZ2fvVUqnyV6pFsVp/BYfoEc0B4leJ4Iie9UhSfYuy90e6nDZ1+Qh2dfnaP80viBWuIBkP56Q6HUjKLLv+M5eFughe7dVOv1o/Jo8JPv6HO2dxh+fffbE2CDR60hQZF9TS2fJ3mVDWBUokb2gQLqoDnz6PJHsXWNpn722kOh1JUiyVxlSRfYKAwVL9kAoZE+dvXscyd6lFpJ9GCHRhxzp1G9QZK+8QfTYOCvScbKX1QG0t7P3o5Z2yV6BjpS91zABOc+eUIdEH3Z4h8k+lNP4QEtl7zHb0dbO3uM4BV9lL6qhJo9wkcK+6XKcNEAz2dM+e+0g0WtCaGTfsfvsgY7p7Nsle78+Twp0nOyVamlTZ080DYleB/jIXyGQfU0tJPvKwAB19vJUarIPyz576uzFsWPq7GuDSPbjDYleF8Ime5UhSfaSAdFwXHkRHaA35lo6UvZew5DsAw+JXifCJHvaZy8J9JC9S5F06h3U3keSvXC5tA7q7EMNiV43SPbiWF1kXzeoIC4o0/hA+2Qvq6EiT7O1dJzslWppzQF6RPOQ6HWEZC+OJdlXL9JtGt+vA/RI9uJYaS2tOUCPaA4Sva6Q7MWxnSZ7WR2A+oY1LLL3qqEiT7O1dJzsx3Eanxg7JHqdIdmLY71k78eUdVBkL9ivX7W6bvvsqbP3rKX9B+jRNP54QaIPO17fwKDJnjNwCOKCJPuKcbSQvSCmapGO++xJ9tJa2tvZuwU1fotbonFI9CGHg4VL9gDAI/Ivti8bZ+8ygMZk39jRwvLl1TWQ7JuppW2yb1ayusleqRYfbnFLNA2JXgPCKXv1qfygyL7RWsYue1ng2GRfN5UvSg+oyz5M++z9+DwpEDrZy360tVT2LtP4ss6eaAoSvSaQ7N1qka1YExso2Tdxi1tJgb7L3juVL7JXlRZN4zdYR02e9soeEH3GSfb+Q6LXCJK9Wy2l/yhsPYIleyAUsm9DZw8EUPYKklU9u0Nei+6yB6o+59TZtwQSvWZoKXuVIX2YdgVI9nWrB6SzB6B2TfoATeMDHp8nHWXvNYTrNL77NoJk7x8keg1Rlj0PieyVN4g6TuMDbZG9MA7B6uxV6mngh6NrDRV5POtodipfN9krzXb4cOod0RAkek1Rkn0xMDyy79h99kDLZS+rAwhWZ69Sj8qPDurspfW4/v5r5z571QNUCU9I9BqjLHt4bPSDIvuaWkj2lYEBmcaXdYQ1MXX5qx5oU2ffpn32QDhl71pLy/fZVwaR7P2ARB92PLZkWu6zJ9kLAgMk+zBN41Nn71nPmGXvNYTKND7RNCR6HehE2asMSbJ3WS5YLawH6KnU087OXoGOkv2Y9tkTfkOi1wXJAVXFxZrJng7QkwQGRPZhm8aX1VCRp6k6RmJDKnvVZc1P41Nn7yck+pDT2MaLZF9fi2zFmliSffUi3abxfTvgU9999q51tGwaHyDZ+wOJXgO48B9usST7+lpkK9bEkuyrFzUgilDI3quGijwNr+MW20myp2n8cYNErwkke4UhSfYuywWrhXmfvWcR1Nk3VINLnvZ39kQzkOg1gmSvMCTJ3mW5YLWw7rNXrCVInb18cM1kT5192yHRa0ad7DvtAD1fOjHvMgCSfd3qAZK9ai1t6+y9SmngsySvJSSyV6qFZO8XJHoN6egD9FSHJNm7LBesFkLZN1KL51vdpmn8jpS91xAke18g0Ycdpamy2gdqYzWTfcd39rLAAMm+xQfoBU72CnSc7BWPYyCag0SvAz78etZO9jW1dJbsW3M/e9WYIB2gFzjZ6ziNL6vDp2l8ojlI9LpAnb13qCSHdB2P160cGyjZA37Lvi6OOnvPGGEtOk3je70mJPtxh0SvEx3d2QvilDeIzU+7Ao1voFVjAit7WR0AdfaiWhToSNkTLYFErxuqnb0shcrGvNTlBkf2EeU6gjKN35TYgiJ7z1ki6NnZy2qoyONZC3X2tM++DZDodcQP2TfUiQVD9p6SCOA+ey1k74GWnb1fnycFOk72CrUQjUEXEtYVzgBW/1XjwOgmuuofbjk8llfEcDAIN40utdSlloxVzs0LAJMJi4EzDwVV1CIcciSGWYBh1D0vBtGKlTWXYl3eg9pkI3UwcHeBer12TPx7nQNg5eAoINrFAQDM9Ky1KjcvgDn26EAuMVV1CD6T1YHFGOlHT+nzZAufTyO1+Pp5ktUCSOvhnMk/SzVjiGupf12qtwny18WzjpocrnWobJsUaiHUIdGHnEY3iHXreAmWc/1krzYkEhffjNSau2BNmaeYrXNwMn3IvfwbZLZ+C867r4KNyEP6HjYge0D+Puome3kVxbhOlD3hCzR1H3Z441OdpdUE/6iNY2pzjLwivoFaWjKN3+C+3rpYJ4uu9f8NE278DklegBGfgPjyzyN1w/dgTl0K7uRGF/qxz947VXCm8WvyNLXP3muYTpvGpyl8XyDR64Bfshc1450ke27DmDALqSu/Js9PAAAi56xGdMlHwKITqo8J8EP2fhzHALRP9rIaKvI0W0vHyZ5oGhK9RjQte2nuzpA95zYisy+X7vcmqoku+RjMacvAHad6gV+yD8vR+L4d8Mk86yHZE41AWzNdKHXkNI1fP05DsucMRiwpz0lUYU46F9asy8GiXeqX4kUDgi3FhUL2XjVU5Gl4ndo4kj2hCIleQ0j29eOoviaMcXBOm5dGiV7wSZhTFwOOjZacZ18ZL1wYENn72dl7ldIBsieah0SvG9TZC8dRek04QF+LxrHOWAzrrFWAlQR4of49p332wjzN1kKyJ7yg0+t0hRe/M8KvDZ16516H54aGwxk6CWfgSOUJ6q2jiSF8rY47YKkzYHSdKQyJLbsFhQNPwj76PMCs+vdc+h5qeJ79yGfJj/PsPWrphFPviLFDotecRjeIdet0muy9cGwMb/s++n/334CI+3Mp51Y4oI8B8o1axTIGyUstWMA8lpcXe/xo4XkgvvKv0fWhfwWL97rGWNMvhDVzBewTLwNOgWTvUgvJvj4Hyb71kOh1ZmTqnDr7unGakT2z4mDJKJgZlW6MWPk/CjkbkL1KnGu8x4azfNEbl6vnsZiN/JvbkNv7EGIX3CTMEb3wM8i/uRnOib3lwVsme8C7o/b6PMmGaKAWkn2DddTkINm3FtoZ2QlwyX45QDhdzYX/qI3TcJ+9Kp77WBXTyHYZqBzYJailsX2skvvZGyacU28it/8x8OyAMEfk7FWwpi8HzOpNS0v22XunUnhN5GcJKNei8nmiA/SktbjWQfvsfYFEH3KUbz5Dsncdx2PyXQ0V2Su8NsGSPVArexaxUNj/F+T3PybNEbvoszC6zwacalEE9n72JPtgy55oGhK9BjR2pznZQpK9Gi5reG2cVTMHWfaGCfvdN4pdfX5IuH5kzjqY0y4EjPr934G9613YZK8AyZ4YgUSvCWpfJgSrs+fhlP3YOzHF/AGWPTMjyL/2EAoHN0nXjy//HIzUmXVdfbEOVvmPYHX2YTn1rvR8PXOT7AmQ6LUidNP4lfEN1NJK2St3S8KjyTSXvWnAPr4Xuf2PgxcywnUj898D88ylxQO63CZAgtrZA+2RfY2oqbOvz0Gy9w8SvWaETvaBnMZXew07tbNnZgS5V/6EwlvPSNeNXfRZsMREoPYa+OU6WtTZy1MFR/Y1eaizr89BsvcHEr2G0D57QS2Ap+wZZ2jkYLyOlL1pwD62G/n9T4DbOeF60fM+BPPM8wHDEIo8sAfoAeGRvWItYZU90Twkek0J5T77kfgGamlJZ+8Fr87RibJnzEDuld+j8M7z4pWYgdiFnwaLTxiVQ7tk752KZK8wBsleD0j0GkPT+IJaAB9kr7pBbJPs/ZiybkT2VgSFd55H/o0nwR3xaxld/FGYUxZWX3ylnZ29PFWwZC+roSJPs7WQ7DsPEn3Y8dh6BGkaX3mWASGQPePBkn3FOO2RfXF/fe7l38A+9pIwnllRRJfdDBZNVYuBpvHd66DOnmgBJHod8EP2bZjGL9fiJbawyN6ljiDJvpFaxiJ7ZkVgv70T+QMbwV1OoxshtuxTMCbOqb+uvIrsZXUo1OoxXMXCgMi+Jk9Tsm9WsiR7bSDRh5xRYXnEBWQav7iYZF9fi2zFmtgGNtCtlb0F7jjI7f41nHdfE8YyK47oBZ8EIvF6KXjJXvqLpcHOXp4qWLKX1VCRp+F1auNI9h0BiV4DqmQv2yi2W/bN7rcfL9mP5fazvk27Kg4XENkzK4LCoS3IH9wEcPfT6AAgdvEXwHpmgrvdpEQg+zrhi+pQqBUVMaGQPU3jEz5CotcE5Y1iO/fZe+YPsOxlJXFZsg6TPQBuF5Dd/WvYp94QxhnRLsSWfgKwkuAud8cTFRhW2aseaEbT+A3WQYwJEr1G+Cp7P/fZh6mz94MOkz2sOPJvPIbCW9ulYfEVt8FITi3ld8nZTtm3+AA9IGCyV4BzjwNmSfahhUSvGb539n7I3nOIAMne44dJOZZHlF+XTpA9LxSQffFXcPoOCWOMxETEln4cMGMA8uMre+9U/sle4f1pW2evAMleP0j0GhJI2evY2TfQFTYle6UfHuMre2YlkNv7EPKHd0rLiK+6Eyw2sSJ/B3T2KvUEaBofINnrBoleU2ifvUcdQplA4WC8ipUbOIK6ldOuwDjLnnHwfBrZF/4dzsA7whKM1FTEzv8YwOIV+Tugs1epJ0DT+ADJXidI9GFHfKBzcPfZS4dRlD1vbWfvOX7NWKobXZ2n8Vkkgdye36JwdLe0hPjldwGRGKovI9yE7GU/2nTs7GU1VOTxrCMknT3RPCR6HWiX7Es5AiH7ci3jJHuXsaQb3U7YZ884eC6D7Au/hDN0XDi82XMWYks+BhimP7KXoGVn79fnSRGSffgh0etCp8oeHhv9oMi+phZdZc8iCWRf/BXsE3ulwyeu+C8Ai5Xy+NTZC2ios5enCo7sa3JQZ0/IINHrRDtlL0/TPtm3eJ99w3S67BkHzw4is+uXcIZPCoc2J81FbPGNALNKeQIk+zBN41NnTyhAoteNTt1nD/go+ya/Fu04QC/AsmeRBLK7fgb79AHp0PHVX69JGhDZe6fST/aKrwvJPpyQ6EOO63cijNP40g10O2Uv3zgL1nIdS3Wjq53sGQfPnEL2hV+CZ/qEw1pTFyO66AOjXT0QHNm3cxpfoZaGOm9JHuk6JHttIdFrwLjLXp5GTfae+dsoe+9i1H4QdLDsmZVA5tn7Yfe/LR02vvrvgdo73wVJ9u2YxlespS0H6NE+ey0h0WvCuMpex2l8FVSujd+psmccfPgEsi/8O3huUDhkZMZyROZf7zJOQGRfiguF7L1qqMjT8DqNQrIPFCR6jdCisw+J7MuxJPv62NJyZiWQ2fEDOIPHpEMmVn/d/fkFSfbyVL7IXnWWISidfdtuhEM0DYleM6izr87RuOwtl0BJHQDJ3i2WM4BxOAOHkX3x1+D5YeFwkXPWwDpnjWCcgMi+DfvsG6klKJ09yT4ckOg1ZNw7e90O0JNE+Cp7Xzox7zKA9smemRGkn/kXOMOnpMMlrvyv9fvqy3lI9m7jtK2z9yqFZB94SPSa0pTsZXk75AC9RvBN9nV5xTmk6wRJ9syCc/oAsi//J3ghIxwqOvcqmNMvkdQyNtmrxmgp+5o8YZ3GJ5qHRK8xY5a919R5u6fxx6mzbwTq7F1qKMGMKDLb7gbPDojHYQzJdf+nuKsHxiT7uji/ZN/iA/QCJ3sFSPbBhUSvOeMq+1Ie6uzdx+KQxAVU9o3ElIc3TNjHX0V2zwPgdk6YIrLg/TCnLJGPFxTZe6fST/bjPI1PjB0SfQeghexVOnuFOjxjlc6PV6hDSfYR7xivIVVkryB81Q30WMXGzCgyW78LnhWfascMA4m1/7X02kkOigyK7Duxs6dp/FBCou8Qxl32Xqn86OxVdynA64eBVx7usUFUl30jr0krp12BFsveMFE4/Dxyr28AHNHrwhBd/FcwJswpbeRbLHsJ1NlLalGAZB8sSPQhhzsSW9fG6rLP3msc5Vqam6r3pbNvsCMMyjT+WMTGrAjSm/5JegEdZlpIrP2HitethbL3nCWCnp29rIaKPJ61tKuzJ5qGRK8BrZT96Ioei9s9jS9Mr7C/vjZ+LPCav2W5eQGA5A+3wcv77N2Xl/+gIN63H3TZGyYKh7Yjf3ArwAUfOmYgtvQmIDWjQnzU2TdUi8qPjrB19kRTqF8dhAg03HHADLXfbZwBrPYb5cD1Zx8HQ3mzwSGd1eacgdUldgss1dBQgTXDS2rhYGCcK83AF38XVDxHBbgVh5GYAGZGRx8UOIaV/nDA9TnVwrxqZihK0skDhUz9xljw2pXr8XgPy7GK76U0nVstVgTDT/0vRGavAYt1ua7GrDiSa/4OQ3/+OzDLHFkREP7AKZRvjOP6XroUWfe5hviJFF838es6GliMafQ1qYvnNsBMuNFILZx5/KSpyCOs2fPzVFpLUo/nZ6lmDMWPKNEAJPrQYwIodgGhkr1XqqDK3rDQs+4u9Ky7yzu2RXDHRm7fExh45L+jcPi58ZG9iiTcajFM5PY/ifzbOxCdcyXAXD5whon4hTdj+Mn/Dzx9quIz3ULZezyRhmQPyCWrm+zlVRTjSPbjCk3da8HoBqFV0/iqVxkDFKbrRnIEZRq//BtmpDsJ9iaGGSZi89dj8hcfgTn1fPegdkzjq0z/utTCrAiGN/5v8EJWuAqLdSNx2VfAnSx41XR2CI7G904VnGn8mjxN7bP3Goam8ccNEr02hFD2pTy+yF7UeDYs+/DAInF0v/d/AIIp8MDK3jCRe/VBFN7ZJV7LsBBb/hmw+KSirMIm+2bOUKh6IGQH6HnlJtmPCyR6rQip7L1SNXnqXaOyBw/P5iW+4BpYUxeJt7EBlT0zS129nReGm8lJSKz6UvkiO6GUfViOxvfrAL0WyJ5oHhK9doRQ9gGaxmewYA8cR5j2EHat+3swK9bExlltHF9lb5jI7vk97GOviGPNKGIXfRYs1jPaIfsle7dVWnU0flhk71VDRZ5mayHZtxcSvZaYGBF+aGSvkqodsmcGsq9vhD1w1CMwOMTPey/MKQsANLNxVhvLT9kzZmJo4/+SXt/e7JmG+CVfqLp0ri+yl+3qqYzptH321NlrCYm+AwiN7IPQ2TPAHjyKvof+HxROHZLfZCVAdK37OmCUftyJgoIme8NEbvdvUTi5TxjGrDjiF38eLNpVnbtdspfElRfRPvsx10Kybw+M8xDtkCTqeP2OKR6zzKMbBtVT7wDB2TSC1as2Gx7fS9VT78A8UgnyMOE/auO4/DTB7BDiS96L1CWfgjX5HMAwxGcztXpbxB0YqSkwJ80GM8XXxz/+zZUoHB+dCheWJXkPmHTFmljZe1mxTJqOFxBb/hn03Ph9cUh+GEMP/gPST38XLBKvqaHyFDTJVQjZ6I+BOs0JClSNKy9S+WyXYhr9bFd/rt1PuxtLLZ5vtcr76Pl58q5F9llK/BeF+0YQUkj0Ief1O6YU/0c32TOFVK2WfSEPnk+rpHJdWPeQlygAuL3A3HEQnXMRJn/uN7AmzxHmGN75c/T9x21qQwZJ9mYUk77yHMyJswUBHPm3n0XfvWvgdk43yb65WoIuexJ989AFc3SBQ/ItDOFFdUZSyTr7Fl9Uh1kRMKvUQZd/eKiJrfyQ5wOVi/jIwHXL8m89j+yBbTB7zwYz3b+2iWUfw+Cj/xP2yQPlWoRPP0gX1cmnMbzpm+j+wD8LAhisKYsQW3oTMjt/VNfVc27XyF5UrOSiOoICA3tRHckFdRqtpW1X0POopZGLbRGNQfvoQw6v3IEu/Y6E9AC98d5nX5Oj0fvZ1+9j9agFgNuNcFgkjqHN34MzeES4PjMtpNbeVZSALwdUiWutim12n71hIrvr57D73hamYdEU4hd/AcxKuL/OVdfFD8E+e+9U3p+n8v0PmqwlTBfVIcYEiV4D1GVfEUayr1gUfNkzM4r8G5uQO/iM9ADB5IU3wZw4y7sGSb1V63B5veXYJmXPs/1Ib/mOOAdjsKYtRfS8D4IX0q4hoTxAL0yn3pHsQwuJXhMa6+xLYWGSvVeqDpA9rASGNn0P9vC7wnVZNInkFXcCTraujjFvnBVpSvbMQub5n8IePCZMwWLdiF/yBekBiW2VvYS2dvZAuGSvAMneX0j0GqH1NH6pswyM7Hn7Zc/MKLL7Hkfuze3yrv7iT8LoPdu1jiBP4/Ph48g8/S/i9ZkBa8ZyROZdD54XH6Dlm+xdiqT72XvUUJFHuKjmXH1pHOELJHrNoGn8Nsm+Mr6BWpru7JmFoU13w8n0C9czEr1IXXb76EVmfLsIirjWqtixyp5ZyOz8MZz0KeHqRmIi4iu+WDxATiqTNl4uV4KWnX2QLqpDKEGiDzuuGyLNp/GDIvtxmMZnVgLZvY8id+hZgIvfs8Qlt8DsmY6q081CIHun/ygyO+4Tr8sMWGetgDX3KvCC+Dr5xRraJHs/O3t5quDIviZPK2VPNA+JXgc6UfZeqTSWPQAMbb4bTs79oDQAMLvOQPLSz1ddOlZ5yHbJ3k1sjCOz40dwsgPCVc3UFMRX3Fp8PTw+L3QjnOZqIdnrAYleF0Ig+1FheeRt9z57ycFXyrWgfbJnVgSZV/+C/NvPSbv65MrPwewSd/XSIdsh+4pxKtPZp95AZue/idcxLERmXYbIOauBQk4/2XunItkTDUGi14mAy75Ygo+yL+VpWvZeQ3CF7r6tsgdg5zC06W75bV4nzERixWfqp7gDLPuRlJlnvg9uZ4WrmN3TEbvkVjgjn1XdZN+pnT0JvyWQ6HWDZO+yvLlp/OLiYMmemRFk9vwZ+cMvAJKrWKdW3Qoj0Yu6S8MGVPYjKe2T+5Hd9UtxvBlBdPYVsM5eUX3QobSG1spedRdVQx1smGQvq6EiT8PrEE1Dog85rl+OpmXf2lPviiVUyF62USTZu9cBgOcyGNx8D7gjPtXMnHgOEhff4n7gWoBlD86Q3nqP9EeM0TsL8eWfAS/wqvXkNbRO9nWxnTaN7+fR+NTZ+wqJPvSYLZB9RVg7ZO9RD8nevQ5mRpF58XfIH3lZIkSO5OW3AbEUXG/4ElDZcxRQOPEqMi/+WhjKzCiis6+ENXNZ9UGHusm+TUfjqx2PQp19GCHRh57SzWrcFrl0y4Gdxveop+2y9+qogyB7BvDsEIY23QPxQXkM1uS5SFz4SfHpaL51YuJaq2JVZe84GN56tzTUnDIP8QtvhpO3a95Dkr1rvET2ANQuZtPOzp7wBRJ92OEjU+2Czh7oPNnL06jJ3jN/MGQPK4rMrt+g8O4bwkBmGOhafQe4GQWX3cY1aLLnBdjH9iC75wFhGLPiiMxdC2v6YsB2SPZ+yF6lHjoaP1SQ6LVB0tm7LNBa9qWOvFM6eyfbj8FN90hiGKwp85Bc9jHwQqKYq6wAACAASURBVF75dQmC7Hkhi+Et35WGWVPPQ/yCm+DksqM1VOSQ1yCX3mhggGTf4gP0lOtpl+yJpiHR6wAHqg6ik8ZV/jOgB+h51BOoU++CIHsriuEdP4Xd95YwPTOj6FpzJwCrIVGMu+wdG4WjLyL72gZhCIskET13Paxp88v3ABib7Ju4xW3doJUPh+8APeV62iB7onlI9LpQ7j5bJfuKsE6TfQg6eyfTh8HN/yrOzRisqQuRuODG4m1e2yV7hc+U13vJM0NIb/Xo6qctRWzJR8FzowflaT+N30GdPdEcJHotoX329TllC8Pf2TMrgqFt98EePC5MzSJJpNbcOSqrBo6gbvW0q/S9dBwUDu9C7o2NwhAW60Z03jUwJ8+purOf1rL3TkWyJwCQ6PWj3EW1cp99yKbx/dxnLx1GUfa8NbJ30v0Y2iLv6iPTFiO+9Maqi8yobnTHbRqfcTjDp5D2OAI/MmM5Yos/CJ6tvr5/oGUvjIOenb2shoo8hL+Q6LWllUfjV4SFRfalHIGQfbkWf2XPTAODW+6V38I21o3U6juBQsUNcbxkH4R99k4W+bd2In9ou3BdluhFdP51MCaeXdXV1w0fJNnL6gD06+x9+DwRjUOi15Wqzp6m8StzBEb28Njoj0H2fOg4hrZ8X5yTGYhOX4rYkg/UXWSmLfvsFXB9L5kFZ+gohrf9i3Rd66wViC16b9W++qoayv8IkOz92mcvTxUc2dfkINm3HhJ9yOEySwKoErI4iTinjrKXp2mf7Fuxz94wMbjpe3DyGWFKIzkRXVfcDl4bE3TZ21nk39yG/DsvCNczUmcguuB6GN1nAnb9h0p72bdrGl+hFpJ9cCDRhx3uIfvyN8jjaPy61TSWfdD22QPugpDUIpO9M3gcQ1vvFedjBiJnXYT4wmvq71ffjgP0xip7ZsEZOIz0M5LnBiAy6zJEF14Pns96v3a6yd47lT+yV/zh4YvsiaYh0euAH7J3eVBr2Zdy+CJ76QZ6HGTPgMGN35VeDMZMTUHq8tvAsy63gg3yAXqFNPJvbELh+F7hOkb3dETnXweW7C0KuNNk365pfL9kL6uB8AUSvS6oyJ4DJHu3nLKFCrL3zN9+2TsDRzG07X5xLsNCdPZKxBasqe/qS2MFU/YROH2HkN5+n3SdyDmrEZ1/HXh+9FRC1xoUai3WEELZt2EaX7UWzzqos28pJHqd8JJ9fbjSg1rLXtdpfG5j8KlvS4czus5E6rK/ce/qS2MFTvaMg+eGkN/3GOzTB4Xx5sRzEJ13LVgshsrrBrjWoFBrsYYQHo3fYtk38sODOvvxg0SvG0qdvcepd03Lvs3n2cvydvABevbptzC8/afCNMyMIDbnCkTnrHDv6ktjBVH29qmDSG+XzFgAiM69EtFzr6m+a1/AZV+1PCT77H2TPXX2LYNEryPKnb3k1LumZF8R1g7Zewm2Uzt7O4+Bp/5ZOpTRMx2pVV+oPwK/ZqxAyZ5Z4NkB5F7bAEdyJUBzygJEzr0GzIpUjx9g2dfFhWSfPXX2wYZErysqnT1MeN7Pvu6hgE7j+yH7Uh5fZC/dQFfIngNwnNE/IxtTn2Rvn9iH4V3/KUzBrBhi89YhOvMCQNTVl8aSSrzdp94xDvvkPqSf/ZE0NnruekTmXAVuD3vWQrIPiOxrPk9E85DodSYQ0/ilsDDJ3iuVTwfoccdB4vz34cyvPYmzvnEaM/77PvRc/3/DSE0pSX80tpFaKuvgdh4DT3xTWovZexaSq26Vd/WCsYShY8jRkOwRAR8+idwrD4Jn+oRx1rQliMy9CjCi9WOT7IUx0qHb1dmT7H2DRK87DU3jU2dfztHizp7nMui6/FZMvvk+RM9eDmaYMLunYsJ1/xW9N/wPmL3TfZO9ffQVpF/6s3B1FkkgNn89zKkLAUdwYN5IXtnr1+7OnpkovLsX6Z3i4xAAIDr/WkRmXSY8u8C1BsnyqsUtvJ99y2QfpgP0SPa+QKIPO4riUpvGb+Wpd208QC9I0/huywt5xOZehtQlnwSLJOuWp1Z8ErF5a+sSjlX23M5j8MlvSWuyJs1C6tLPgufkoq/Mq1JLS2XPLDgDx5Hd8wB4QTwbEZm5HJE5VwJM9KvLL9n7fz/7lsjeO1WwZE80DYleB/ySfVn4rZB9RVgLZa9ay3jvs4/NW4PY7BXCtMnlH4N1xrnFrr4i4Zhkz23k396FzGuPC1dl0RRiC6+DOXGWfF99aRxfDqhSkb3XQMxE4dgryDz/c2lYbMH1sGaulJ5d4FqDQq1AbWcfAtmHrbMnmoJEH3LKXxA/ZF8mvBfVUT3HHmhA9l6pGujseSGP6KzlSCx5j3S8xKJrEZm5rLoLbUL2vJDF4BPy8+qtKecicelni/vqK4QkGqeR12TMsvfCMGH3HULmpQfAHXHNkXMuR2T2Zc2JLUiyl9UBUGdPVEGi14CGviDKnb0kd8Cn8X2XvZ/77AHE5q5CfO7lnsOmLr4J5qQ5o119VS0Nyp7byB3chtyBbcLVjHgP4ue9F6xn5PiAgMje4z1kRgyFoy8h88KvpXGxhe+HNe0COB5nF7jWIFletbhdsveY7aDOnqiERK8J5S+Tb539qJDFA9Y+FJxp/JZ09k3Kntt5RGcsQXLJ+5SGSyx5L6Izlgr3LTcqe6eQw8AT8n31kTMWILniZjgjF5nxQ/at3mdvmLBP7kP25T9IA6PnXoXIrMvkdQhqCaTsPaDOnhiBRB96Rt9CX6fxOdDoveyLD2k+jd+M7B0gOnsl4guuUhsLQGrFJ2D2zqru6ssJG5S9nUd2/2bkDr8oXMVITkTivPeBpSaNvi/Nyr6mllbInhkxFA4/j8zu30vLiC16P6wp5wG2o4fs/ezs5alI9iGGRK8FrZJ94/eyLz6kuey9UrltEO08rGnzkTz/BuUxACBx/gdgTTvPvatvVPaMw8kNY+Bx+Xn1kWmLkbro4+CF/GhuP2RfGS7JI11HtKJhovDufmT3/FE6bmz+dYictaIsYi1kL4ipWkTT+B0NiV4bWtnZSy6oUzVg5UMay34s++w5Q2z2SsQXX+udv4auFTfD7JlZ39WP1IIGZG/nkX3tceSPvSYMN7rOQGzJ+2AkelF1PEDA99kzAPm3nkH21YfENRgmYotvgDnpXMB25HUIatFa9t6pSPYhhESvFS6yV0FJ9h55O032pTwqG0Ru52FNmY3E+e8HY5LjHgQkL7wR1pkLACb4ujYie8bBs4MYeFJ+DfzojAuRWHZj+Wp5oZC9GUXh2KvI7vmTtMTowvchMvPiooz8mLJul+zdVumAK+gRzUOiDzu81mw1svfrAL1yZ0+yr88rW1jME5u1HMkl71XOWUvXyltgdE0SbzwbkD0vDCPzyiMonDwoDDV7piG++P1g8e763EGWPYDcwa3I7X9SuC6zYoid9z4YE2YBzujrGXjZCwrUfhqfaBoSvQ54yV45j4fsq0OVF2gte69pfCcHq/csJJbeAGZFxWkKWfHFXFC8gE5k6kKonAnhLXsTPH0KA099RxwHIHr2xYgv+UDVNfCDLntmRmEffRnZV8SX/AWA2OIPwZp5YVVXL61DUEtgZS+rA1AXLMleC0j0utCOzp4DnjfBKQ9Y+5DG59lLUnHOED37IqSWfkC8nm1j+MU/Iv/2bmn+1IpbYCQnSjecSrIHwHPDyLz8IOz+w8IYs/csxBe/FyyWqnpyQZc9d7LIvfEUcm8+LVyPRVOILXgPjO5pxa5eN9lzcVw5RTv32XvlJtm3FBK9TrSrs+dAa0+9qwgLi+zdOnvHgdkzFYkl7wGLJoSr5g5uR9+D/y/Sr2wAuLiY1CU3wTpjHqRd/Ugt8JK9BWfoBAY23iNNFZu9CvFF76m7s12QZc/MKAqHn0dOdlAegNjSj8KcdoHrGFrIXhJXXtSuffYeN/8h2bcWEn3IqZ8ma9c+e4972QsWaD2NX8ozkopzG9GzliF10UekqwzveQS5wy8j/dJD0nPcYZhIXfppsFi354bTU/aMg2eGkHnpT7AHjgvTWJNmI37e9WDReH3n7Kfs/TzPnlnghTyy+x5H/vDzwnWMRC+iC64DS0wafQ4ke0EgyT7MkOg1oGHZAz7Knk69c411HJhdk5FYfD2MeLcwLnvoOWT2Pg4wILN/K7L7Nit09fMBmN6zIp6yN2H3HcHglnulaWJzVyM2/2rX+9UH9Tx7ZkVQePt55PY+Ih0nsewmWGeeV52XZC8I9En2tM++7ZDoNWH8ZA9QZ1+XEJzbsKYvQerij0lD03seQe7Qc+UD9Yae+0/kj74ijGdmFKlLbwaiXeB177F7LcW/XOpmHE6mH+mXHoA99K4whXXGfMQXuXf1VbmD1NkzCzw3iOzrG1A4tkcYb3RNRXTeNaWzCyrqHxfZywIDJHs6QC90kOg1Yvw7+1bKPkQH6HEHZnIiEuddBzM1SRiWO/wSMnseA88NAcwAi8SReX0jMvu2Srv6rhWfgjVlLsAUunpAKnvGTNgnD2Ho6R9LU8TmrUN09hWuXX1V7gBdLpdZEeTffAa51/4iHS6+/BaYUxbU52y77Ju4n73g4DvtL6pDKEGi14zx7exbKfuKsIDLnnMb1tT56L70k9Ic6VceRfbgDrBI9YF6Qzt/hfzx14XrsUgcXSs/BWZFi3U0I3vGwdOnkdn9AJxMn3D1yLTFiC+6DsxKeHeQQZnGhwWe7kf2tQ2w331DGGtOmInouVeXjn2oqT1M0/h1gwriqLPvOEj0YUfpy9Ru2XfwPnvuwIj3IrH4OpjdU4Xr5o+9hswrG8Cz/ah8XsyKFrv6/dukXX3q0ltgTZ4DsFLNTcq+cPx1DG3/hXT1+IKrEZ11sbCrr8odkKPxWSSB/BubkN33qLScxCWfgzHxHPd8OspeVgcQrM6eaBoSvQ74JXulsVRkP7LPXiB8jafxObdhTZmN7lWflq6XefVxZPZtGe3mR/IwA7BtDD3778i/e0C4vhFNIbXiZjAzNlqzqux5zXNkJpzhU0jv/gOc7KBw1cjMCxFbeI20qy/XAgRD9qXnlnttA+y+Q8I4c9IcROdeBURTnSF7wVR/1eoB6eyJ5iHR64Ifsvf11DuPO9+FYBp/VFgeeUcScwdGrAeJ866B1TtDGF949wDSezaAp08V97PXFMgiUWT2Po7sgWekXX3XZZ+FOXF0HGXZV8ZX1nVkD4af+w/pOvFF1yIyc2mxq2+X7JvcZw8riexrTyC3f6O0lMTKW2F0zxDXXFGLFrL3IEidPdEcJHqdCNw0fvGiOq51CB4M0jR+sQR12XNuw5o4HT1XfF4am35tI9J7nwCLdrkXyAzAzmFoxy9QOP2WMI8R70Zq5c1gRqSqXuUL/KDi+RkGnMHjSL/4Bzj5tHC16KyViM1fD5jRkvhkQzQge88DHJuQfem5Zfc+AmfgiHAI64wFiM69ErAS8u+ATrKnzr4jINHrRqBkPyLjDpA9t8EiXYgvuhbWpFnCsMKpt5B++RHYQyeru/maAlkkgfQrjyF7YLu0q+++/FYYLrMHSgfpueyzzx9+EekXfi9dLb7oWkSmLR69Nr8fskfpx5JnlMeQgs8tiySQffVh5A5sleZNrLoNLDUFXOHHyUgdjdQSSNkLYqoWUWcfakj0OhK4ffaAVrJ3q8dxYPaciZ41X5SOm9m/Fek9j8KIdnm8ziZQSGNo+y9g94u7UCMxAV0rP+l6C1ulqfxK2RsGnIFjSL/4AHhBfIOd6NwrEJ23FlWu8En20q6wmX32hgGn/yiyrz0CZ+iEcPjItPMRnbMGMBMtm2UIkuxVj0dpqLOXpyLZjwMkel0J1D77kYSayL62Hm6DxVJILLoKkTPmCte3+44g/dLDsAePFsXM5U+LWQmk9zyM7JvPSrv6riu+CLPH/Qj/RmXPnRzyb+1E+mXx3d8YM5A47z2wpi4Et/N1eYR1AOMqexZJIPPyH5F/a4d0+ORlt8NI9ACOrb3s62JpGl9LSPQhp/kvU/tvcSvMHVbZOw6MZC961t4mHStzcAeGdz8EI1Kxb14me2aC59IYfPqnsAfF16M3kxORWnmLa1dfrllR9jCjKJx+E5kXH6i6V3stsfnrEJ27xuXzJBtinGVvGHBOv43sq4/ASZ8SDh056xJEzrkCsIrHPpDsaxapTuOT7AMDiT7seHSFwevsPa6P7zI1HqRT74olVG4UbbBoAomFVyM6bZFwHXvgONK7H4I98A5guE2zu8MiCaR3/xm5t3ZJooDuNbfBSIqvwtdQZ+84yB58Buk9DwtDmWEVu/op88DtujdMXgcwbrJnkQTSL/4W+cMvSIdOXn5H8WDJUp0k+5pF7dxnTzQNiV4H2iH7hmpRkWxjt7kN0ql3xRJKKzgMLJZCz7rbpflzb+3C0K4/VHfzo8nE7yEzwfNpDGz7t+IBfALM1GR0rbxZWoOq7JkRReHkfqR3/1EaGj/vekRnrQTndng6e8OAc/ogcq9tAM/0C4eNzr4C0bNXAkZsNA3JvnpRO/fZE01BotcFFdl7bRjb2dmj8dvcBm8a3wGzLCQWrEPsrKXCOHvoJIZfegh2/1HXbr4ioevTYpEE0rt+h9zbL0La1a+9A0ai11uyCltRbjvIHni6eGc9AcyMILHkfbAmzwJ3nPGTfYOCZWYE6V2/RP7Yy9JhE5ffARZNVEuTZF+9iGQfCkj0OuEle6B52bvkENfS5DS+S4GBkr0DIJrEhKu+JM2ZO/wSBnf8J5gZVauh9oFSVz+49cdwhk8L1zO7pyK18mZvUSjInplRFI69ivTuB6RxifNvQOSsi4HSazwusi8t9xxyJMaMwj6xH9m9fyneUEhAbP61sGZcWNXVAyT7utVJ9oGHRK8bYZJ9mZB29lYE8XmXIzb7EmEuJ92H4ZceRuH0m4AZEcaNDg7X95BFEhh+7jfIHRHfwhYAetbdCRZPlvOIh/GWPbcdZPdvRmb/ZmEMs+JILH4fzIkzQyV7ZkaQee4XKEhuHgQUj8BnllVXX/BkLwsMkOzHcIAe0Twkeh0Jk+zL0/iN3flu3A/Qc2wwK4IJV31Zmid3dC8Gn/n34vXhoSCIcgE1T2tkX/2W++FI9i2bPdOQWvlpqByt7CV7ZkaQe+clpHeLT7UDgOSyGxGdfkHV6xt42ZtRFI7vRfb1R8ElVwKML/4gzKmLAaP+4kbBkn0Tt7iVFBiUA/SI5iDR60rYZF8WfitkXxHml+zNCOKzVyEx/wrh+k5mAMO7H4Z96k2wim5+rLJnkQSGn/018sfkXWjPVV8GiyTLOcbc2TMAtoPsvo3IHdwuzMGiKcSX3ABzwoxyVz8ydM1g8jqA9sreMJHe+TPYpw5Kh0tedgeYGXdPEyjZA6GQPXX2bYdErzNhkn2ZMOyzt8GsKCZcI+/m8yfewODTPy1eF74271i6n5GufvMPpXeZs3pnIHWpWldfzC+WPTMjpQvoiE+1A4DkRR+FdcYCcLv6tR032SsMyYwoCu+8gNy+J8ALWeH68WUfhzFpjjg/yb56EXX2gYNErzsqsq9fpeaBNl4ulwOt3WfvwzS+YSI6cymSi64SruNkh5B+6REUjr9R1c1X5VX8gVT5HjIriqFnfobCif3S1Xqu/gpQ2YV67Y8XyZ4B3HaQef2J0rn87hjxHiSW3ACzeyrgVG9WxkX2qqfeARje8RPYfeKbBzHGivvqJcdYkOxrFlFnHyhI9GFHxbResg/SRXUAjAo5mOfZM8NC73p5N184eQgDW0vdvGyj2Og0/khXv+k+8NywMNzqPQuplZ+qfo5jlD0zI8gd3I7Mq3+Rrp9acROsKXNHb3ZTXb7HAzV1AP7I3kOwzEog/+Z25N/YDDh5l4giieWfBuuZLi+FZF+9yK/OnmgaEn3I4eX/eAe2XPaCPO61qHb2EtnXrdaGaXwDiExbhNSy94vj8mkM73kUuSOvjHaBPsqeWVEMbvsJ8icPiWMZQ8/6r4IbRo0ovIZwkT0DeCGNzN5HkX9HfO65kZyM+JL3weiaVNfVuw4dlH32DBje/iPYfYeFKZhpIbnqdvl1EECyr1vdr1PviKYg0WuAlrIHUCVkQY76h1orexgWJlzzFWlI4fRhDGz5EWBG1DeKjXQ/zAQvpDG46V7wfEYYF5l4dvFqeU6uadkzM4rsvs3IvPaEdN3Uyk/Dmji72NUrfZ486gD8kb1kSGYlkNv3BHKHdrh8vkdJrrwVRnKyd36SffUiv6bxiTFDotcELWVfThacu95Zk89B1yUfES7nhRyGX30SuUMvli+Q46vsR2Y7zAQGtt4Pu+8dcaxhYsL6r4KXNvRNyZ6Z4PkMMq/8BfljrwnXM7vPRHzxe2AkJ6J26lw4dBD22Rsm0s/8EPaA+JbALBJHctUdAKs/1a5uOJJ99SKaxh9XSPQaETjZqxAm2TMDvdfe5bYpLGP3H0H/xvvKdz4bLcH/zt7J5tC/6V7pEePWpHPQteITgJOrH5rXPlBTS43smRVB5vXHkd23UVpX6tLPwOydCV4aMwyyZ1YC2VceRP7wLshuCZy4/DawWLd3HSDZ161O0/jjBoleMwIle78O0CsLaXxlb/XOQPelnxCXaReQ3rcV2QPPuF7u1nUD6pZHUfbMstC/8QewB8S3sGWmhZ71XwN3xvZDrEr2zATPDiPzygYUTh4QrmNNnIX4wmtgxCeMvv8hkD0ME+mn74MzJH49jWgXEpd+0buGkfwdIHvVGJrGHz9I9BoSKNmrorTPXlKH4EE/Zd97zVfABPd8BwB74Bj6n/g+mJkQxowKS1aLuux5No3+jf8KbouOGGeITJmD1IqPV8WMdRqfWRFkXn0U2f3bpOt0XXYrzAnTUXUuf8Blz6wIMrt/j/wx+WWGU1d8CdyKK3/AdZe96g/Y8urKB5+S7P2CRK8pgZK9r529wv3s6x5q/jx7s2squi+/RbyqYyN74Fmk924EMyJqt7j1QfbMsjDw1L1wJLewZWYUE9Z/FXCqL6AzJtkzE87QSaT3PAz79NvCeOuMcxGbu7p4hb7K5xFo2VsAA9Lb7oUz9K4wrZGchOSKz6t/x9BhsvfcJQR12RO+QKLXmEDJXhXlzl5y6l1Tsq8Iq5D9hGu+BMMS333OHjyBvif+Faxy33ybZO9khtC/8V5wRyA/xhA5Yx5SF3+srvNvWPYoXoo3s+dhZA8+I43vWn0bjJ4zUXeFvjbLXnUZR7GrTz//SxTe3SdNm1rzVcCMtkz2jcQEUvaCmKpFY3y+ROOQ6MOO1xe7/B+vPCHr7L3uZ+/jNL6R6MaENZ+X1OMge+gFDL30SP010dsge2ZZ6H/ye3CG+yQxcfRcdVddV183vFc3xhlgGHAGjiG95xHYA8eEsZHpSxCbfSlguVwnvo2yl75+dRfVKcpv+OkfwElLbgncMx2J5Z8CuN0S2Tf1XdRN9kTTkOh1IEyyF+Rxr2W8p/GLMROuuhNGNCmMtIdO4fTj94BZEcG18cWj+CV7Z3gAA5t+4PL6l2AM0WmLkFz2Ydf9+Y3OurBIApmX/oTcoWeloak1t8PsPsP9PW+n7D0jKrAiSD/7c9h9kgsSAUhd+bXyXe1I9hDHkezHHRK9Lnh0y1rKvkzrOnsW70Lv2r+R1MiRO7wHQ7v+CFbqXBuVvVotckEwy0L/43fDzgyIY6JJTFh/F1Cov0Rt3fCSzp6DAcyAfeoQMnsegTMsPj4gdvbFiJx1ESC6Tny7ZK9y9bxyLRa4ncPwtvvAs+LX05o0B/ELPoqRXRPhlr0skGQfdkj0IaeRTkVL2Zen8Vtw6h230bvub2EkJwiHt9N9OP349+pOp2tE9qrnIgNyQdjpkxjYdK84CWOITD+/2NUX3MWo+nniYECkC8Mv/A65Q89JY7uvvBNGqlf8fgdF9hW1MCuC4e0/hN0vuSARgNSVf191AZ3wyt7/+9mT7IMDiV4D6r7YndbZl7tPn2UfTaF33d9KxuXIH30Ng8/+DiwSq1/cZtkzI4L+x++BkxkSrmvEUui56kuAUxC+9sr77A0ThRMHkHn1cTiSmYTY3MsRmXEBuOw68UGSPVC8ZkAug+Ht94Pn08KwyLTFiJ33flQecFj+jikMpHwapXQhTeMTckj0mtDxnX0ZyeVJG5A9d/KYsOazMHvOEKZzskM4/dg9YBKBtVv2zuBRDGy5X7wiMxA96yIkllwHXkiryV5GJIGh5/8Dubefl4Z1rfkSjESv94FxXnW0axofpa5+232wB8UX0AE4utZ+3eVRdVRfE21kL6sDINm3ABK9RoS6s1dBaRq/sXvZFx+qlz2zYph41W3SYvInDmBw+69cu/mqyHbK3oig/7HvwJHcwtaIdaNn7ZdH86t29i4wM4r8kb3I7H1KetvcxML1sM5cVOyUZRv+IMmemXDSp5He8RPJZYYZImdfguj8a4Gaay/4No2vm+w9ZjtI9v5DoteM0Hb2vp161/i97IsPjebkhSwmXPFpWBNnCodxcmmcfux73vWO5Gyj7O3+oxjc8iPxSoaB2DkXI77w6mJXLyxQUfbROIZ3/gq5w7ultfas/TKMWFfpPQyH7JkZxfDWf5EecAgOdK39O4DVZyPZQx4nSg+Q7H2ERK8hDX2x61ZQSeq2PEDT+OXOfmyyZ1YMvVffBjBxLYWTh9C/7Wfio8ndhmyX7A0DfY/fDScn3rdsJCagZ90d1bnHKHtmRpF76wVk9m2S3mAnseR9MM+YV5EqBLJnJuz+d5B+7hfF4xpcYxiic65AZNZldV19uUySfX0cdfZtg0QfdgRflFZM40tu6jU6jqwOoI2y97iXvWCBY2fRfenHEZkyV5y6kMPpx/4VsIvjN3I/+3bJ3j79Fgaf/ql4BcNEbM6liM+/crSrFxaoIPtYAkPbf478Efl14nvW3gkWTZVzhEH2zEpgaPPd0gvoAEDXur8XjtWxsndbpdED9IimIdHrgIrsVVJoJ3tA4jfErQAAIABJREFUeiS+ywJmxtC7/g55N3/qbfRv/SmYNboBDJzsmYG+x74LJy/usI3kRHRfeVvFDIisQLnsmRlF7s2dyOzfAm67n6cPAMkL/wrW5DlVOQIve2bCfvcA0i/8xuWzOxJjIDrvalgzL3Ht6stldprshdsmddkTzUOi1wXVzt4rhYrsPQOCdoCemux5IY+u5R9CdPpCoei5U8DpJ+4Fz6VRef5+cVmwZG+fPIChZ34hjGWGhfi5lyM293Lw2ovojEX20TiGnv43FI7JrxPftfZOMCtWlSPosmeRBIY2fhtORnKZYdNEat3XwV0uM1xVJsm+oTiieUj0OtGuaXyvg/NGxpHVAXjL3rcD9AAV2TMzgonX3AHGxKfoFU4fQf+Wn1R184GVPTPQ98Td9RKvwEhNRveaL9Z39cICxbJnZhTZN7Yh88Y2cFss1dTFN8GcNKsuR6Blz0wUjr6CzMt/Eg/ETMQWXg9r2pLybh33WuS1VsWS7AkfINHrhuo0flhkr4qX7GU1AOCFAlLnX4/YWUvF0/aco++p+0o3j6n9MRBM2ReOv46hHb8SxjEzgvi8NYjOXun+g6BR2UcSGHr6JyicOigekzF0r7kDMCoOZAyB7FkkgcEnvwmeHRSualgxdK39OriTa/47NhLbabInfIdEryPt2mcfps6eA7JT75jJMPHaO8FM8Uas0H8U/Rt/JIkR389eWnaLZd/3xD2uN7IZweyZiu7Vt7p39cIC3WXPrAgyr29C9sB21zvljZBa8SlYvTNcEwZW9sxE4e3nkXl1g3g9w0Js0XtgTl1UfP4ke8mAcI/j4jhibJDodaVd++zD1tmXZTYqe14oILl4PeKzlwNM/JXo2/hj2AMnIL36XuVQAZF9/uirGNr5n8IYZkYQP3c1IjOWgIumnBuSfRSDm3+IQt9h8ZhWDF2rbxcmDKrsWSSBwSe+AV7ICFdjsW50rbkL3JZfo6BcJsm+oTiicUj0IUf+pVZ42C/Ze8YEpLMHSp19xRX0GEfv+i+BWVHhKvbgu+h76v7RffPS5xuwaXzHQd9j35HGGIkexM5dLT1iXlX2zIog+/pjyL65A5DcIS116S0we10uShRk2TMT+Td3IPv6E8JVmBlBbPENMCfPG53VINlLBkTDcURjkOjDjufVvRQe9uto/HbIXpDHLbHKFfR4oYD4wrWIz11Zvre4G/1bf4bC6bcbEGzAZJ/PgEvfIFb607gk3NexMLjlh7AHxNeJN2JdSF32BfcBAyx7ZkUx+Ng3wEUX0AFgJCYitfrL4PmKzp9kXz+gS5G0z95/SPQ64JfsfbqoTlMbGKCNsgfAbUxafweMWFIYZg/34fTj3wezIqXV1O9nXw4bT9kzAz1rbweTXBvASZ9G9sAzAIvBc3eMl+x58SIzmVceQ/bQcy7v5yhdqz4Ho2eaYJyRvwIme2Yid2Azcvs3CcOZFUNsyYeKZxc43tcoKJcZWtnLAlt7uVzCGxK9Lvghe68hVFcIiex5IYfEvMuRmH8ZmKSbH3j6V8ifqD6KvDHZj+8Betbks9G18hPisZwCsge2I3dwR9WuiaZkzzjg2Bjc/APYw+IrypmpSUhd+mkIp/gDKntmmBh87H9Kw82uqUhedlt1V1/KI65FXmtVbKBk34b72RNjhkSvEwHq7MMge+7Y6F1/O4x4t3BVJztcvBWtyzXt1WVfOWb7Zd9zxeflMxb9pVvb1l4/oEnZMyuB9MsPIvfWLmlX333FrTBSkyXjjPwVINkzE7k3nkLuwFZhKIvEETv/wzB6Z9b/kGmX7PnYdse0fRq/blBJHNEwJHoNoc5eVEvlHepySMy9BMkFV0hPqRvY8Rvkjr4mKK7Rzr4U1kLZjwqrNOqEM9F92S3iARwb2QPbkXntKbBIXJC30QJL6zAO2A4GN98LR3Luudl9JlKX3Cy8dGxlEUGSPQcw8Pg3pKFW79lIrvwcnKzLLXzbIfuKccIqe6J5SPS6UfoVH5QD9IIqe27n0Hv1F2F2TRKHF3I4teHu6m6+adm3dhq/WEJpBdtB96rPwEj0CmPtoZMY2Hy/uO6S0cYqe2YlkN79Z+TffhGyozW71twOIzFBNkpFLcGQPXgEuX2PIffWTmEYiyYRX/oRGBOmu+/TJtm7LJcOQ4wBEr2ukOzFtdhZxGcvR3LhGtcp+REGdv4eObe7sTUl+4qwFsve6J6M7jVfkBWA7Js7kd7zmLCbr0g4NtkzDp7PYGDLfeB5l662hDXxLCSWf1x66djqcgIgewC8wDHo1dVPnoPkxbeAu3X1wLjIXpiSZK8lJHqdoX32rtjZHHrX3QprwpnicjjHyUe+DTDDve6AT+PDsdG18hOwus8Q5nPSfRjYfD+4I77DXXUBY5M9rCiGd/2u+KNJ0tV3r70TiCa8P09BmsYHkN37F+SPvCRczmLdiF/wEbDuKeIj1dsse2lKkr12kOh1h47Gr17dLiB+zjIkF10pvUDO4M4HkDu8B9Kb4QRY9izZgwlX3SFJxJF960UM734QzEp4C6K83hhkzww4mQEMbr4fvCD+URGZMgfJiz5auk68dx3Fv8Zf9jyfw+AT/ySNsc5YgMSyj4PnhhsSbFWZJHtijJDoQ47nRWoA/zp7rxRBkr0ofXYYvWs/g8gklyuyVXDy4W9V1OIhe1770DjL3rHRdclf119LvjIkO4CBLT8qnvpVOtq+lbJnkQSGdv47Cif2S1P3XHUXYCaKG/0QyT7zysPIH39duNxI9CKx7K/BEr0At0n2VYEesieahkSvAW2VfVim8V1q5XYBsVkXIHXeOuk+6cFdDyH39p5RiXNA9Z72o/8cP9mzSAK9V98pXT9/dC+Gnv9d3eugLHs0+B4yA076NAa23C+9bW5k6gIkl30Y3M6FSvY8O4DBp74lTgIgMm0J4kv/qnxePcm+MpBk30pI9JrQNtmX8khTBEX2NTjZYUxYfTMiZ8yRlnby4W9LL28abNnbSC2/EZEp4ufIc8Po3/Jj8OxQ/bnzUJR96QdQI+8hiyQw+PRPYJ8+JF6HMXRf/bXyBYxCI3vOkH35zyicelOYw0hNQWLZx8CiKYycV0+yrwwk2bcKEr1GtFX2Xin8kn1tV14Xo9bZc7uA2IzFSC2+CkY0IRxy6OXHkT30Yv1AHJDd5lZU4Hicetd77V3SdfIn3sDgM7+Qzmq0pLNnRvEAwC0/ArfFP6Si0xYhsfRD5RvshEX2zvBpDG26W5wAQGTGBYifd0PV1fJI9pWBJPtWQKLXDO322buMNZbO3skMYMLlNyE6bb50qJMPf1t6C9Ii1be5rWPMsq8IG4vseQ6p5TcieuYCcWw+g/4tPwFPDwAw5WJrQWfPrCgGtvwQzsBRYTgzLfRc/dUaAYVA9txB+sXfwZY8N7NnOuIX3QSYUVReLY9kXxlIsvcbEr2GkOyBKtk7eUTPXIjU+ethxFLCIYb3bkHm4HPgksu1ju6v95p6rf1n66fxOWfove5rgOTmNYXThzGw5SeAVTGr0azsSzmUZM8MOEPvYmDbj6pv9lIFQ3TGEiTOf2/VbXPDIHs+9C6GNv+LtMTozAsRm78edt8wnMFBOMPFP/bwIJzhgfo/Q6MxtX/s4cHi8vQweHZQ8pqGV/ZE80heaSLMcC7d3peCGDiTbBI5IDrjpfwwZ8VLncpSCPLUBnLmEVYzVl1a7gCs8rdr8f/tTBqTrv9rxGYskpZw8uF/hpMZKtXigIl+B4/IfmR7D9u97poCOSpySl+Tih8SjgNmKPwed3JILrsB0emLhSG8kMPA1n+Dkz4JFukqlVA2o7AezhmY5D2uihWnKb9/zIqi/6nvo3v138LsmuIayqw4eq7+GtIv/K7Y/ZbzMzDO5R+UUhEcDMKfsy6f2/rPk/jJlHPzAsBGN6PcLiC969foWnuX8IqE5oQZ6P3I3ei+5v8aPUaicg+H5Km5w8ALWeSPvIDhzd+Gc/rNqpqq6vZ6LyteF+HT93rtvLYJ3AYrHxtiARAd91AQPg+iMehV1Ji2yh4QfrnHU/bcKSA6ZRa6ll4LI9EjTJvevwOZN3aOzgx4yb7MaGc/nrJ37AImXvs16XX77cET6Nt4L5g52s1XybBZ2Y+kkb2HnBW7+sF3MbDtx+hd/7WaH2clGEN05gWIL34fsq8+AZiVu2OCLPsCnIEjGNr6A3Rf/XfuKxoWzInnwJx4juQJNE5k1krE5l2D0z//JOwTe4VxwZO9BOrsfYGm7sOO17a3XdP4XkOoruDzND7PDqN75UcQO/t8acqTj3wHdnrApRaVafxWnnqncICenUdy8XsQO/sCcal2HgNP/xTO4Cmg5pa8Sve0h8LUb0UOr2l8ZhoYePIeOBnxzW6MWAo9V38VTr4+JrjT+BZ4IYP0sz+Fk097FOgvzIrBmroQqav/AUxywCkQtGl8j1vcEk1DoteBoMi+XefZe9UBFGXvFGBNnI6uC66DmZooXDdz6AWk9z0NuB0JriL7svBbIfuKMIHsnXwGk67/KpgVE67rZAbQ99j3hdf2b7vsYcLufweDz/xUPCAzEDt7OeKLrnW9Bn5gZc8Be+AIhp/+kUdxrSG++ENgVsKzGw6W7AGSfesg0etCUGTvNYTqCgpdoVcdTnYY3Rd/EPFZ4k4XAE5u+B6coVPiqUYv2Zdp5al3pbBa2dt5JBddhdjsS8T7aRwbA0//Enb/O1W56svzWfbyNGDMRP/j/yy9LK4R70bPuq+4dvXF/AGUPbPAc4MY3v5jcMnBca2CWTGFfXZFSPadAYleJ4Ii+yBcQc9xYHZNQdcF74HVI76xS/adV5Heuxm84LFBVu7sPY7Gr1utuWl8J5dF77V3Sa8N4OTS6Hv026PdvMotbj3q8eXUO2bCPv0OBp/5uTiHYSI251LEz10tnNFQlj1vo+w5YJ9+E8Pbf+xRWGvgMD0FW44l2WsPiT7k1G24giJ7ryFUVxij7J18Ft3L34/47Aul6U9uuAd2/wmFQkZq8ersPS6q4/LgmKfx7Tzi565CYt4V7ge0FQMxuOPXKJw6jKpuvl2yL+WQPa3+R78pPS3MSPaie91XiqePCYdQkH1lrHChT7IHwDP9GNp0D+x+8Xn1rUT5OwaSve6Q6DUgsLJv13n2teNwByzRjdSy9yAycbpwtdzxAxje8ySckauUKXap6p19K2Q/Kms7l0XvNV8Gi4uvDcDtAk5t+CbgdtR+EGTPTBTePYjBZ38lXJUZFuLnXoHoOSvk54kHbRofQOHEXrx734eRfvmP4Hbeozj/IdkTAL2S2lB3GhGH9PQj7U69qzidx8llMWHVB5GYe7E05anHfoBC/zGMCJnV5JHX4nXqnVkZXl+3y4MNnXrn5BE7eymSi68GMwRfY84x8OxvkT9xAMyIjL7WlTgQ/tz39dS7ck6XNAzo2/ANdK34hHA9o2syetZ+CSd+8lnpaZKBO/XOsVE49jJO/+LzgGEJZ15Y6bMt3s1RkTtzEpP/5hFE56wWRdfXrfIdg8J7OS7n2RPNQq+iRgRW9l5DwEfZwwaLJtG17HpEp8wSpiqcPoKh3RvAs+lyt+ur7MvJiufD+y17J59B7/o7YcS7JSVynN7wLbDKHx1uT01V9hKaO8/eROH4fgw991ukLrrRdVVmRhFfeDWiMy9A4fj+qvPqXWsOmOx5PgcgB9HFYTgsgOXlX4GRH7LptPSmS+75wyx7ollo6l4zOn0a38ll0bX0GiTnrZSmOfn4fSicPFLqsNTvZ19fi9d59oDn/ezrHvKYxnfyiEw9F13L3i88XQ4AhnY9iPzhl+qm7V3fCpVpfM/PUnPT+H0b/lG6mtl9BrquvL14BH55F4loiIBN41ecZ+/+BwCPFIXv9Uf9pIf6MkM7jU80A4leQwIt+1Yejc+Ll07tuuBaRM88V7h6YfAkBp/7M+zMQMVUqvf97MW1NHmefYOydwp5TFx/p3QKGwBOP/KPcLsNLRAA2bukyh/Zg+GXHhTGMyuG5OLrETljIaBwH4Dgyl5WDwMXXhJ2jIavqgVq3zE0JvtGYkj27YdEH3aEgm2B7L3SqMgeaJnseSGLriXrkFpwuXTV00/cj8Kpwy67LVrU2deHKz3oKntuw+qdjtRFH5JeIGd4z+PIHnjO/SC8kVTjKfvSD6Dqjb6D/g3/JF3N7J6KrtVfBB+56pzn3gLFWrxi2yp78SxN8Qeodwp5LfLlVbGKspdvF5qTPdE8JHodaJfsS12uL7L3StGo7DkAw0Dq/PWIzRTfvMZJD2Bg5wOwh04Vu3nF+9mr1eLV2Td/6h3PZ9F71d/C6hJf6Q8ATj30DbX9sQHr7LOHdiKz90lhLIsmkVj6fhgTZ4529X798EBwZN/QD01hEh9+UINkrwMkel1oZ2cfwH32vJBFcuFqpM5bIw0/tfHfkHv3repOV+F+9kood/ZjPPWOOzCSk9B9yUfBoklh9swb25F+baO0m6/KH6TOntvo+8s3pKtYvTPQfcUX4RQqriWvOEWvEhMI2Xt9x1Qh2RMg0etFJ8uemeg6/2rEZy0Vhjm5DPp3/B72wIn605za2dl73c9eIHsnn0Xvulth9kyVlnDywf8NMLPh+9nXobK6X509H32ds/u3IXNguzDUiHUhecEHYXRNBec1uzdk3wGSvUstUHtdQLIPMyR63ehA2fNCFslzVyC1eK007vTmnyF//CAYGz2drjqRQmfv+zS+ouw5wBIpdK38GIx4lzB19u2XMLx7w+hqLZK96gV1gAZkX0rFHQd9Gzy6+klno/vyz4Pn08oyJNmLaoHa6wL195JkHyxI9CFHtSMsPhxg2Te5IUouvlJ6gRxu5zGw/Q8onD5SNaU9brJXoaI4ns9iwurPIjJppnSVkw+OHGkvuRGObMjxlP3IND53kN37BHKHdwtDjcQEJC/8MIzkJIA7NZ8ncT0ke1EtUHtd4PFeqpx2J6iFZN86SPQaoIXsvYYQrMALBSRmX4zupddI1+/b+ivkjrzuerrZuHb2Kne84wCiCfSsuglGYoIwXe7Yfgzt+mPFI4r3s68dcrw7ew44TsHzvPrI5DnouvSW8hH41NkrDEmy70hI9JqghezH2Nknz7sCyQWrxOs5Dvq3/wH5k4fBDENx49xO2QMy2fNcFj2rPoHIlNnSoU49/I8Y2ffvmidMsrcdDL/8EPLHXhOGGKlJSF74YbBEb/n90r6zb+I6BZV5pOtIXreqWJJ9aCDRhx3u+r8eD7ZI9l5pfO7seaGA2NlL0H3BddJ1Brb/Ftm39wBG5YsVEtlzgEUsTFh1E8zUJGGK/Km3Mbjj94DjVk8Ip/EBoGCj7y/fkoZEpi5A6uKPj55X7z18RVwIZY+R16/JfeVeslekLbInmoZErwNtkr13HT6dZ99AZ59asAqp866UltW/4w/Iv/smmFFzIRK/ZK+Ckuzrj8Tn+Sy6Lv4oItPmS9Ofevhb4IWMJCJ80/i8kMXQC39C4eRBYYzZPRWpZTeCxXqq3qu6zl40RiOy5wGRvaNYs9eQYZrGJ5qCRK8LbZC9alfvkcaXzt4p2IhOm4+uZddLm5v+nX9E+s1dklp8kL1vp95VX1CHcwaYBnouuwmW5JS6wsAJDGz/D+UpVyAksmcGkB9G31/+WRoWnbEYqYturOrq64b3Q/aV8cKF7evspXBHTbIk+46ARK8TQZG9n529hOT8S9F1/lXSmIEdDyB37AAguflL8KbxixfUcfJD6LrwBsTOOl+a8vRfvgueG6rJISJc0/i8kMXwC39Aoe+IMMacMB2JpR8CIom696klnT1cvjNVMQGRfU0tYZX9/9/emcdHUaR9/NeTTG4IKNEQDgnIISgEPABRNNyCgKKQ9WBVUEHXxddXP+rrq/u6gCsKXqBrWPFYWRUBRTlE5QY5hSQQDrlCAoEACSTkTuao948cJJmq7uqZnslM5/l+PvOBdFU9z9Mz1f3rqq6D8BwSerPhL2IPGCf2DS5+5rAj5KprEJUwHEqQeKflon1rUZaRKnhv7RqrZng+E/sggDmhWELQrO+fENyitTCro7QAhTsXgTns0Nz1rpYAEnvFAmd5MS5tmKdqI7R9AiJuGOPSqndx3xTFXsYlib2pIaE3I2YTew7h196MZr2GquYpSlmFinPHoQQHV4urBn4k9sxWgcgeQxDWobeqmYIN8+EsKahj1nxiz2xlKE2rXtFQQHDLdohMGAsEu7bqXdw3NbFv+KAsmc+lDIl9wEJCb1bMJvY1y2s67LBe0RbNeg2DxSreva3k0BaUHd1ZfztTX4q9DCKxZ05ACUKzvhNgvaKtsLizohiF274Gc1Q2MGs+sXeWXETh5o9Vy4e2vwkR1w0Fq3Rt1bu4J7GXyudShsQ+ICGhNzNmFHumILxjbzTvc5equ8LU1ajIOezate8rsfdggB6zVyC8y60I73SL65r8dSjY9Dkchee4ImsqsVcsYJUlKEldBkdpvrBscKt4RPQaCwRHCPerN4XYW2QvOvU4SOybDiT0AY72RhPc/2oc9JLYq5vRFHvmdCI4+mo06zkUltBIoZnSo7tQ+sdWMLudPyKfScTcaC37qn+b9x0Pa6trhEWcleUo3P41mL2y6hw5Dk0l9gAchedR9NsC1bKh8f0R1mVg1bt6gZ2AF3unIjGNXnBrD0SxJzyGhN4EBIzYezoanzkR3uEGNL95jKqborSfUZF9EEpwiHo4vhB7nS17ZqtAWPxNCO/cH4rFdbneGgq3fwX7haz6AXks9n48z16xgFUUoSR1GZzlRcJy1qs7I6Ln3VWteuYwp9hr5AOqvj9ZESexNz8k9CbBX8Re6mJ1Q+yZ04mgqFaI6jUMQRHi9d7LMtNQfHALnJVqi8fUset3LXugWd/xCLnqWnE2hx2Xtn0FZit3bdl5JPZ1svmj2ANwXMxG0fZ/q5YL63Qbwjr2rertEAYYwGJvhCKS2DcpSOhNhD+IvVS3OKBf7JkTYe27I7rfOFWzRWm/ovzkPijWcOkbkeYDio9a9sxegdB2NyCiy21QgsXz/gt3LYXt3DHx723WbnzFAmf5JZSkLIOzslRYJiSuO8JvGAUEBVW16oUBBqrYS/4uMvU60ObZE25BQm8y/ELsYbDYO50IiroCUT2HIDhKvN57efZBFB/cBGdFKaCwyyYkb9BeF3uBncvFnWh+0ziExnVTiYOh8LeFcFaUAQoD48XBDc4kYg/AnncMxbu+USmhILzzQIS2v/lyq14YYGCKvTRa15isSxL7gIaE3oSYTewZcyK0dRe0GDBB1VTxvrUoy0iBxVr/3XwgiD2z2xEadx0irhsIRWXaYFHqKlScOeQyqrzJiL1igbO0ACUp34HZKoT5Q9r2QniPEYAlGPV29COx58fhTy37mqm0cuYICUjoTYppxJ45ERTeEs16DoI1Wrzee0XOMRSnbwArK+ZOSfN3sWcOG5rdOAah7W5QDe/S5i+qBqMpFlStoFdnEB03Xt4h/xqgd3lEuYZddjmf7dxhFKcsFWdWLAjrmoiQNjfUb9ULA+SIvco1ILUDXyCJfYNYGlXs6/ghsTcGEnoTYwaxZ04nQq66Bi1vf0i1ePH+9Sg9ukO1NeyvYs8cdoTEXouI6+6EJSRC6LZk/zpUnEoHHLzFUy5vhqMdnB6xr5PNS2JfFYIOsVeC4CzOq2rVO8ULyYRecyPCu9dsYeyonygj9howJtG69zexZwoY5Bbf8RexJzyHhN7kBLTYMycs4c0Q1XMwrFeI13uvPJ+JovT1cJQWVrd0DbgR+UrsATBbOaISRiI8/kbVkAo2fw5H6cXq7ugGjhnA2+ZWHJx/teyrQpAUewDM4YTtzH6Upv0ozKdYghHWdRCsrXu4tuqFAXJa9qqxSIo98xOxBwBmlRZxEntzQEIf6EhcUIEq9szpRMiV7XBF4p9VixQf3IySQ1ughIRLOPAvsWcOO6wxnRB5XSIsYVFCVyWHf0N5ZioYtzVfQ/1tbrWD09uy97HYq8UTZIW98BxKUpaCqVSssE79EdZtaL0HIe0AvSD21Xb8R+w15tn7Uzc+4TEk9GbAjGLPFFjCmiHqhkSEtGonzFp5IRtF+9bBUVJQ/9281lQ2iVhrMnpT7J2VFYi6YSjCO/dTDePS5s9hL7oAWFQu2XotexN042vEwxxOVJzah9L9q4V5lKAQhHcbjOCrrwNziAYK+FDswblmNGJxS9s9eF3Gi4XEPrAhoTcLJhN75rAjOPpqXDF4kmq+0sPbUbx/PSzWcFfXGnPXG1vsmdMJa6t2iOiRqL4IUMbvKD+RAmavqI5FS2TrjJjnxuua4E+j8atC0BZ7JcgCe0E2SvYsVvUd3nkgwrrcDubktOhVA/SC2Bv1zt4oSOybBCT0AY6eGxEQIGLPAEtoOKKuH4jQq+OF2Wz5Z1G0dy0cxRfrtXT13BQNFXut95sNxJ5VliKieyIiut6u6rpg80LY8nOgKEF1YlFVyWpURuNzEgJP7IOqWvVZqSg7tE5oR7GGIrzbUATHdAJz2HQGGMBizxRI7XqnY649iX1gQkJvAswm9ow5EdTsSlw59AnV8qXHfkdR2q9QrK7v5l1a9mpxuBQQZ9TMJiv2TjuCW7ZBZPdEBDe7Umiu/FQ6yjJ2VW3SotT/YUjsq1v1FzNRvOc7Vb/h1w1GWMdbwRwO3b0zLq41xg/4g9jXC9FTsfe3AXqEbkjoTYKZxN4SEoqoHncgrE1XYTn7pVwU7V0De+F5KIKtXBulG7/GlygOAGBOOCtLEdH1VkR1T1Q1dWnrf2DPy4Ji4SyJKyP2DDC32Fe36jN3oezoFqENS0gEwrsPRfCV14A5bJ6LvQb+IPb1bJPYN2lI6E2EGcSeOZ0ICm+OVsOfVC1TdiINhbtXXm7NC2NpeMAPxN7pRHCzq6ta8y1ihSYqcg6j7OiOqnXdFfEJSq993jAOlYRAEnvFYoEtNwPFKeqGiWjQAAAgAElEQVSt+ojr70Joh1sAe6X2b+jn3fh6ILEnSOgDnvo/YaCLvcVqReR1AxDe/nphXkfxRRTtWwv7pQtQ6o5ClxV7tThkC3gg9k5bBcI790XU9UNUixdu/QaVOcfqn6MwFq2WvcbUu7oB1v7pp/PsG8ajBIHZy1Bx4neUn9glLG8JjUJ49yEIvqJ97RLCJPZ8XyT25oKEPtBxOmEasXc6YQmNQqvhU1TzlZ48gIIdy6BYOfu1y4h9Y76zZ04ERbVEZPc7YG3VXlisMjcTJUe2wlnBX9KXH4uMyKpMvau2U//PwJh6pwSFwJZzCCWpy1T9RfYai5B2vcHsZah5tUFiz/flL2JPeE6wdhbC73E6q0edX75DMtTZqrzeH3wYU6CIuocb2OCaE/hgUFDvlqESixIUgvAufRFx7U3CMOyFebi0bSnKTx2FJcwqPi2Rj3rqIHRzOVntO9F2V4WlTve2zYZmvW9CVM/hqvYu7ViCitN/VP2uNTdMrVgYwBQnFNHzOwOgBKHuCnrcuBskMNSxqVqX6th2OrV7ImrsK5xTc31+rRNPnTpVE091q778+HZUnExDaPsEbllLeDTCuw9F2ZFNcFzKhWK5/N2q/obC+iSXDwAURUKoq78ItZzOcovGwkliar87ZgcUjds/U8BE30uDOimuS7wftyaW6iRqtHsdEnqzEOhiz5xQQsPQasRU1RiDIqNx9b0vVrX61Vq6sjdmX8OcsEREw6rybt6Wfwalf2yCs7wQSpD18telctO8bF9C7BFU53d0mEbslaAQVJ7eh5K9y4VCDwBRNz+A8K6DwByV9U7EHaH3PQxgTgRfGa+RTdwtYpjYV6eT2Ps/JPRmIpDF3hKMiI590Oy6AarxKUFWWK9sA+uVbVTzBTKFvy9DxalDl+fNA8aKfS1ma9kHgdnKUH58GyrPHEBIXA9uOUtYM1jCmknFFNCoCiyJfVOC3tGbjUB8Z8+qBkpdqbEKXlPAXpSHkgMb4Ci+UL15jdx+9i7IDNCrO4hOMj5/H6CnBIWgIms3Svb9JO3T1Kg+sxv0zr46XdMlvbNvNEjozUgAir0lOATNew3SDszkFO1ZjoqsfQ1awV4U+1rBl/8d/XqAHoLAKktQfmwTKs8fkfZpanwl9jIuZcSeBN9wSOgDHOE1EVBiX/W32l7yTQFHWSFK9q+H/VIOZ/yBl8S+Fm/teuf7efaKEoryjF0o3f+rtD+z4fKT+ELsjRqNTxgOCb0JMIPYM4cNJcf2aAdkYopSVqEsYw9Qswqe5H72mki37E2yn73FAlZejPIjG2HPy5T2ZxYqT6UAds7qf4Ek9qT4hkJCbxICWuwVBkd5Ec4tnaUdjEmx5Z1E4c6lVZvX1FsESEPsNZb2rZtZbtc7b+5nX53NB2KvWEJQdmg9in7/VtqXWSj8eQacFUWAwhpP7OmdvV9BQm8iAlrsnU6U/LEDx9+4B6XHdteuXGZ2mK0CRWmrkT1/MooPbIASHMy5OUu07A19Z++t/ex92I1vsQAOJy6tfQ+53/wVlTl/SPsLTBgqsn5HbvLdqDi+GWCOOikuWVWs0AA9M6IwJrM7OOGv7Elq7XJMeOk0mHrnkldmPQ+tqV0K97+aPmpvGYoFiiUYsKj7kVl7RDOf4Fx0LYKikV7Xl3AKG2NgzAHV3wbgvLe/nL82r8wCPwrUp97VGnPw4xAcrGdT9Tu5LEKyU+8AwampnkbNSE+Luh/Fov0T1nQ+QWVPe8G6DorLf0Q4quurxnfCvcYcVQ/jzFH14XxZ+up1zfUoMQNbbepdgzhk89Ul9o0i7RgIVWgevQkRTkkNhHn2zFm1kIlDPRYGObFXnf8LUSwNH4DE51ubVyoWfYuyuMTBnA3E5PJvWZvXqEV1FKBmPrzs7+i38+ydTjCVBWQAyD0gQeY3dLXjWp9U7KNaZLXqU72LlmfI9ctyrU/iWPTPs7dB4clJgziELmXqLeE21HVvUgK6G18yFqm+KM3uRYnDvlobX2ZLUl8O0APgval3Ph6Nr1mXJLuI3PgNXdyzhgca5pV7DaOZV6o+ScQh1Y3P2UZZEIc73fiEZ5DQmxgS+5pMBom9L7a4NULsjRqgVytIJPauNtUSJcRey77k71f1j3+IvZ7vhMTet5DQmxwSe0kzMmIPBI7Yy6Il9lpxCA76m9jLxaJDYI1q2Wv5kYkFfiL2OgbnqboksTccEvomAIk9alu5hoi9lgl/EXtDW/benHrn/Xn2wr3seXl92bLXElgSe8IASOibCG6LvYztQBF7wBixb4rv7AFUDaDz1tS7OtkCRex90LInsSeMgIS+CeGW2MvenEnsXfP6i9gb1rKvaXmrTDHz8258r7TsjRJ7tWvAjGLv4Tx7Qh4S+gBHTzcjQGJ/OVMTE3uBHX4scrveiW/OvEMmF3stUx4O0DOl2Mu7JDyEhN4EkNjz4lBPr8rUxEbjC+zwY9ESe5V18QUJphZ7I7vxqWVPGAwJvUkgsZc20yCTfw3QU0/3J7HXGJzHDU6v2AfgAD0jxF7VvAnFvkEsJPbGQ0JvIkjs5Wy45vOflr3U7AG1OAAft+wFMagkmHqAXrUdQ1r2QvMmFXs5l4QbkNAHPA0EmcS+QQzqIUia8WnLPqDEHgC9sxfZVUsksdeKg8TeOEjoAx6OIJPYN4hBPYSqTAbNszeqZa+ZwU+m3tW+U/b2O/sA68Y38p290IUOsWck9k0ZEvqAh/8Tktg3jEE9BEkzvmvZa4kEYIzYGzX1Tmsve25wesS+TrZAEftqO34h9nXz64il0cSeptUZCgm9aXD9KUnsG8agHkJVJgNb9lom/EXsBXb48ci07Kkbv4FR/xD7QOrGF8RCuAcJvamwgLrx1eORbtn7Szd+IIk9gKrR+IIYVBJML/ZapkjsCS9CQt8EILFvGIN6CJcz+snUu4ATe0B1xztBgqnF3t/e2QOu14xGLP7wzp5wDxL6QId7lVDLXisen7fstUzIiL1mHj8ZoFdrjMSeY5TEnuOHWvbehYQ+wGFwCi42Go2vFU/AdePDR2Jv1AA9EntxXtVEEnvCWEjoTQBf7C0N/q3OS2LfIAZ5wTekG98gsdcrFI3WsleLQSXB1GJP3fhCPyT23oGE3iSIW/YAib12PLSfPeCVlj0DaLlclbyqiST2hDGQ0JsIEvuGhw0We8AYsTfinX11noBp2TOg7tQ72d/R1PPsqWUv9ENibywk9CajVuxdrpRGfGcv1R1NYu+S11/E3rB39nX3she07gOgG/+yYGnYpQF6/FgAEnsfQ0JvQvg320Z8Z69aUEcsJPbCjD5p2Rsm9hpz7f1c7KtCMFjstUzJir3KNSDdywASe7NBQh/oCC9sUcuek5fEnhOHenpVJhJ7cSxy3fjcOAQH/emdfVUIBoq9Ud34Wm6YROvez8Se8BwSejOgJvbc9EaaZ69aUEcsZhR7A0bjB5bYB1Ub9JbY17HtK7FXEzZfd+N72pXvT2JPeAwJvVnQEnsuJPZ+I/ZaLmQLBJLY16IyIt9jsa/O5gux14jHp2Kv6YLEvilBQm8mtLrxZUyQ2HPiUE+vyqTxDtSMLXsZZLrxa7vyvdGy93E3vkY8/jJArypZUuwZiX2gQ0If4MheUOJ39tSNLxOLTxfV0TLhL2Jv1Gh8AJrb3HLqLrXsfST2tbGQ2AcqJPQmQJfYq6TXy0tiz4lDPb0qEw3QE8ci27KXX1jHb0fja8QTkGIPuF4zGrGQ2PsHJPQmwXOxp5a9TCymHKDXwE+jiT0Azal3nATTi726Gd+JPauTV0csJPaNDwm9idAt9lxI7P1G7LVcyBbQEnvAf8S+1pi+zXBMLfbVvR0k9oS7kNCbDF1iL7zYSOz9Rux91Y3P8eWW2MtAYl8/H02948cBkNgbBAl9oOPBBUWj8Rse9mOx90U3fo0vURyAttgbtlxujUESe1ebaokmnHpHeAwJfcDDv7F6Lvb0zl4mFp924weK2MuiJfau2aUSTC32TbUbn/AIEnpT4C2xB0jstWMx5Tt7rTh82rLXv82t6efZq5sxldgTnkNCbxpI7LWcm0LsA23qnQzSLXtvTb2rky1QxL6JtewJzyChNxtGiL1LeiNtcataUEcsJPbCjF4XeyNb9ri8zS1141+2YYjYa3Wfk9gHNCT0pkKBIS17F2iLW9lYSOwB7y6qI9GN71LM5GKvbkZO7DXtk9gHMiT0psSgbnwjBFbOJYm9dCz1bQTU2viGLaoDeHdt/OpsgSL2RnbjU8velJDQmxaDWvbcdGrZ+43Ya7mQLRBIYl/bjW+S/ew14qFd7whPIaEPcNSnn1A3vpZzU4h9U2zZ17Y+vbmffXW2pib21LI3HST0gQ7zgdgLLzYSe0PEXssMtew18NZ+9o3Qja9mt6m+syc8hoTeDDSa2NNofJlYNMW+ukXe5Fr2Mki37E2yn71mXQrAqXda9ycSe69DQm8WfCX29dL51YfEnheHerqUGbO17I2aegdAaj97l0N+2o1vhNhX2/ELsa+bV0csJPbGQUJvJnwh9tx012pEYs+LQz3d0Ja9lgl/EXuBHX4sHu5nH0jd+GYTe+rGb1QUxmTbGgRBEARBBBrUoicIgiAIE0NCTxAEQRAmhoSeIAiCIEwMCT1BEARBmBgSeoIgCIIwMST0BEEQBGFiSOgJgiAIwsSQ0BMEQRCEiSGhJwiCIAgTQ0JPEARBECaGhJ4gCIIgTAwJPUEQBEGYGBJ6giAIgjAxJPQEQRAEYWJI6AmCIAjCxJDQEwRBEISJIaEnCIIgCBNDQk8QBEEQJoaEniAIgiBMDAk9QRAEQZgYEnqCIAiCMDEk9ARBEARhYkjoCYIgCMLEBDd2AAThSwoKCrB161ZkZ2fj/PnzOHfuHM6dOwe73Y6rrroKMTExtf92794dPXv2hKIojR02QRCE+zDCp8yYMYMpisL9DB482CPbK1asENrev3+/IfG/9NJLQh+KorAlS5YY4uedd94R+jh37pwuW5mZmWzu3LlsyJAhTFEUBkD6Exsby5555hm2atUqVlZWZsi5ecorr7zC/V4mTJjQ2KERBpGdnc1iYmJcfuPbbrutsUMzhJkzZ3Lr8Nq1axs7NFNCXfc+xOFw4J///CcYY9zPunXrcPDgQbfth4aGCm3v3LnTkHNYtmyZ0AdjDKtXrzbEz7p167j24+PjcdVVV0nZuHjxIl588UXEx8dj2rRpWLt2LRhjuuI4e/YsPvzwQ4waNQo9evTATz/95M7pGMru3bu5343D4Wjs0AiDyM7ORm5urstvbLfbGzs0Q0hJSRHeQwjjIaH3IevXr0dOTo5qngULFrhtv1+/fsJu5q1bt7ptt4bMzEwcOXJENc+yZcs8FhybzYY1a9Zw00aPHi1l44cffkD79u0xe/Zsw24eGRkZGDVqFEaPHo2MjAxDbBIEQXgbEnof8vnnn2vm+fjjj1FSUuKW/WbNmuHOO+/kpq1du9Ytm3VZv369Zp78/Hzs3bvXIz979+6FzWbjpg0dOlSz/Ndff417773X7e9Ri5UrV6Jfv37IzMz0in2CIAgjIaH3Ebm5uVi0aJFmvvLycixZssRtP8OHD+ceP3nyJE6fPu22XQDS3fKePlRs27ZNmHbbbbepll28eDEeeughj/zLkJubi2HDhuH8+fNe90UQBOEJJPQ+YunSpdJdyB9++KHbfkQtegDYtWuX23YrKiqwfPlyqbwrVqxw2w8AbNy4kXv8jjvuQHR0tLDchQsXMHHiRE37iYmJeP/997F48WJs2bIFR48exZkzZ5CamooVK1bg448/xrRp02C1WlXtHD16FGPGjKF34wRB+DU0vc5HJCcnuxyLiopCUFAQLl26VO/4nj178Pvvv+Pmm2/W7adPnz4IDQ1FRUWFS9q2bdtw77336rYJADt37kRlZaVU3t9++w35+flo2bKlbj8OhwO//PILN+2uu+5SLTt//nzVGMePH48XXngBt9xyCze9devWSEhIqP37tddew9y5c/HWW28J7e7cuRM//vgjxo0bpxobQRBEY0Eteh+QkpKCffv2uRxPSkrCn//8Z24ZdwflWa1W3H333dw0UUtZBtHguO7duxvqa//+/SgtLeWmDRo0SFiuuLgYb731ljA9OTkZixcvFoo8j1atWmH69OnIyspCu3bthPlmzpxJo4UJgvBbSOh9wJdffsk9Pnz4cIwZM4ab9umnnyI/P98tf0OGDOEe3717N4qKityyyeu2b968OV588UVuflGrXIvt27dzj0dGRqJPnz7CcqtXr0ZhYSE37bnnnsOUKVPcigcAYmNj8eOPPwpnNKSmphoy2JEgCMIbkNB7mdLSUnzyySfctDvvvBMDBw5EZGSkS5rD4cDXX3/tls877rhDmLZnzx7d9k6fPs3tkRg1apSwlV0z314vop6AsWPHIigoSFju8OHD3ONhYWF4++23dcfRkN69e+PTTz8Vpq9bt85jHwRBEN6AhN7LrFy5ktsV3a9fP8TExCAkJASTJk3ilp03b55bYtmtWzfhojI7duzQbW/Dhg3c40OHDkW7du243ffnz59Henq6Lj9OpxM///wzN23YsGGqZUXz+4cNG4bgYGOGokycOBFhYWHcNL3nShAE4StoMJ6XEbUC675Hf+CBBzBv3jyXPIcPH8bmzZtVW+g8FEXB6NGjub63bNmCl19+WZc9kfjWxDV69Gjuin7r1q1Dz549pf0cPnzYZWBiDWqzCQDg2LFj3OPdunWT9q9FcHAwxowZg8WLF7uk7d692zA/ZsLpdOLo0aPIzc3FxYsXkZ+fj8LCQlitVkRGRiIqKgqdO3fGddddp9pjYzQ5OTnIzMzE6dOncfbsWURGRqJt27aIi4tDfHw8IiIipG3l5uYiIyMD2dnZyMnJQXR0NLp06YJrr70WV155pRfP4jKHDh1CVlYWcnJyUFxcjJiYGMTGxuKaa65BfHy81/0X5BcgMysTmZmZyM7ORmRkJNq0aYM2bdrguuuug8Xiuzalv9a5RsUrC+sSjDHGMjIyhGuo79ixozaf0+lkHTp04OZ74IEH3PL99ddfc+2FhIQwu90ubcdms7HIyEgXO506darNs2bNGq6vQYMG6Yr5008/5drp2rWrZtkhQ4Zwy44bN05XDFosWLBA+JsWFhYa6kvEsGHDuP7vu+8+n/jX4ty5cyw5OZklJSWx5s2bS+0pYLVa2ZAhQ9iMGTNYdna2bp9FRUVs4sSJbMSIEfU+6enptXnKy8vZ0qVL2eDBg1VjiYiIYC+99BI7fvy40J/dbmerV69m9957r6qt6Oho9uSTT7Lc3Fxd57Njxw6uvX79+tXmyc/PZ2+88Qbr3Lmzagw9evRgb7zxBsvMzNT9vapRUlLCFixYwDp16qTqPz4+nr355pv19qgYN24cN++aNWvciqUx6lwgQULvRWbOnMmtYFFRUS5iO2PGDG5eRVFYTk6Obt+nTp0SVvC0tDRpO9u3b+fa+O///u/aPCUlJcxisXBjLygokPY1ceJErq/nn39es+xTTz0lvGm78/2JyM7OZtOnT2fz5s1jX331FVu9ejXbuXMnO3LkCHM4HIb5UcNfhf7MmTNs2rRp3Lqg56MoCps2bRq7dOmStO/U1FSura1btzLGGNu/fz/r3r277lg+//xzF185OTmaDws8wf/mm2+kz0dL6FesWMGuuuoqXTFYLBY2c+ZMVlJSIh0HD7vdzmbPns1atmyp+zv4/vvvGWPGCX1j1rlAgoTeS9jtdta2bVtupZo2bZpL/iNHjggr4axZs9yKoVu3blx78+fPl7YhegBZvXp1vXx33XUXN9+KFSukfYluXD///LNm2dmzZwu/v2HDhunqxfB3/FHof/nlF903fq1PQkKCdEtLTei/+uorFhQU5HYc77zzTq2frVu3slatWrlt67XXXpM6HzWhf//99z36Xrt27ep2C7a0tJSNHz/eI/+vvfaaIULf2HUukCCh9xJr164VVqZdu3ZxywwcOJCbv23btm4J1fPPP8+1N3HiRGkbffv2dSmvKAorKiqql2/u3LlcX88884yUn6NHj3LL83zxSEtLU72AR44cyTIyMqTP25/xN6FfunSpoTfbuh/ZVy8ioX/llVcMiWPv3r3s0KFDLCwszCM7iqKwY8eOaZ6PSOiN+nTs2JGdOnVK1++cn5/PEhMTvRqXrND7Q50LJEjovcTDDz/MrUTdunUTlvniiy+ElW/VqlW6Y1i5ciXXVuvWraXKnz9/nlt+2LBhLnn379/Pzdu2bVspX19++SW3/ODBg6XPVySAdT/3338/++mnn1hpaam0XX/Dn4Q+OzubWa1Wze+9devWrF+/fmzcuHFsxIgRrGPHjkxRFKkb7x9//KEZh0jotT4RERFS+fr06cM6duyomicyMlLqnGR+J3eE3mq1ssTERNanTx+p/AkJCayyslL6t5a5vgCwLl26sAEDBrDg4GDd5yAj9P5S5wIJEnovkJeXJ6xQ7777rrBcQUGB8OK4++67dceRfzFfWJFlBuYsXryYW/a9995zyet0OoVd7wcPHtT09fjjj3PLzpkzR/p8169fr+ummJSUxD799FN26NAh5nQ6pf00Nv4k9KJxFUDVWJRXX32VZWVlccva7Xb222+/sTvuuEP1t3rqqac045AVeovFwp566imWmprKKioqGGNVLdWtW7eyfv366Ram//mf/2FbtmxhFy5cYIxVDV5ds2aNZst3586dquejR+inTp3KUlNTmc1mqy1fWFjI1q1bx3r06KFadvbs2VK/87Jly1TtdOnSha1evZrl5eXVlrHZbCw1NZX97//+r/S5yAi9v9S5QIKE3gskJycLK9Dp06dVy06aNElY1p2u51tvvZVra8mSJZplJ0+ezC27d+9ebv4pU6Zw88+bN0/TV7t27bhlU1JSdJ2v2rt6tc8VV1zBHnzwQTZ//nyWnp7u1+/0/UXo09PThd9ny5Yt2YkTJ6Rt/fjjj8KHY0VRaoVUhIzQx8fHsyNHjghtlJeXs0cffVSqvvTo0YPt3r1baMtut7Onn35aWP6TTz5RPR8ZoVcURXO8zaVLl4Tvw4GqB5+TJ0+q2igtLRXOCgKqGiH5+fmqNn788UepVriW0PtTnQskSOi9QO/evbmVZ9SoUZplN27cKKzIsgN56jJ9+nSureeee061nMPh4A50iYmJEbZ+v/vuO66vESNGqPrKzMzklouOjnZLcP/yl7+4JfZ1P5GRkez+++9nn332me53md7GX4ReNKtEUZR600dlUXufrtUC1hL6Tp061ZveJeLcuXOaI7jj4uJYcXGxpq3y8nLh1LOXX35ZtayW0FutVrZp0ybNGBirupZfeOEFoa2///3vquXfffddYdlp06ZJX6Pp6eksNjbWI6H3pzoXSJDQG4zaDWfp0qWa5e12u7B127JlS1ZeXq4rni1btnBtJSQkuHUeTzzxhLBMbm6u8CJUuzEuWrSIW+6RRx7Rda41OJ1O9tlnn7HQ0FCPBb/m06dPH/bOO++wM2fOuBWTkfiL0CckJBj6uxUVFQm//+XLl6uW1RJ6PWNcpk6dqmrr22+/lbb19ttvc22MHz9etZyW0P/tb3+TjoExxiorK4UNkJiYGNV39aLfuVu3brrvRz///LNHQu9PdS6QoCVwDWbhwoXc4xERERg5cqRm+aCgIDz55JPctPz8fOk94Wu46aabuEvApqWloaCgQFhOtFud2lK0rVq1Qt++fV2OM8awZcsWYbnNmzdzjw8dOlRYRg1FUfDYY4/h8OHDGD16tFs2GpKSkoLnn38ebdq0wUsvvSTcQKepkJubi7S0NG7aI4884pbNqKgodOjQgZtWXl7ulk0AGDBggNS1V4PaSpS33norxo8fL23rxhtv5B4X7c0gQ1hYGP7rv/5LVxmr1Yr33nuPm5abmyvcY+L06dPC33nOnDkIDQ3VFcfw4cPd3io7kOqcv0FCbyBlZWWYP38+N23y5MkIDw+XsvPggw8K0z766CNdMYWFhWHEiBHcNLVlW1etWsU9rrUc76hRo7jHRQ8Oamlay95qcc0112D58uU4cOAApk2bhubNm3tkD6h6aHn77bfRuXNnLF68uMluT9uqVSvk5ORgx44dWLRoEf7xj3/g8ccfR1JSku4lm+siWrK4srLSbZuiHSJFtG7dWpj26KOPCncx5NGmTRvu8ePHj+uKqS5/+9vf0LJlS93lbr/9drRv356btnXrVu5x0a6M0dHRmvtPiJg8ebJb5QKpzvkdjdyjYCrU5nbqfd+jNmr3wIEDumyJ5rjPmDGDm180Wv+WW27R9LVt6zZu2e7du3Pznzlzhpu/R48eus5RBpvNxjZt2sReeOEF4WJCej9PP/20z0fs+0vXvTcQTUvlrVBXF7Wue9l32TX88ccfQlu//vqrLluiFSrDwsJUy4m67hVF8Wj1tldffZVrNzExkZs/KSmJm9+TUekVFRXCaY3uLoHrCe7WuUCCWvQGItrApmvXrrj55pt12VJ76l2wYIEuWwMHDuQeF3Wnb9q8iXu87kY8Im66+SZud97Bgwdx9uxZl+Oi3fSM6nKvS3BwMAYOHIjZs2fj0KFDOH36NL799ls89dRT6Nixo1s2//nPf+KVV14xONKmQ2lpKXbs2IEPPvgAQ4cOxVdffcXNxzzoOenVq5eu/NHR0cI0UYtYhJ7NcWSIj4/3qGeqT58+3OObNm2C0+l0OX7gwAFddmQICQkR3pN8gS/qnL9Bu9cZRFZWFlavXs1Ne+KJJ3R19wFV3Y1WqxU2m80l7eOPP8b06dMRFRUlZev6669HdHS0y85w69evh81mg9VqrXf8119/5doZMniIpi+r1YoxY8ZgyZIlLmnbtm3DuHHj6h0TvZ8fPHiwpi9PiYuLw4QJEzBhwgQAVe8jf/vtN6xfvx4//PADzqcgZbIAAA/XSURBVJ8/L2Vn1qxZiIuLw1//+ldvhhuwOJ1OnDt3DllZWcjKykJGRgYOHDiAtLQ0HDx40Os3VCNe2dTQrl07XfmN3h2tS5cuHpXnbSkNVP1GhYWFaNGiRb3jp06d4ubv0b2HR3EkJCQId8U0gsauc/4GCb1BfP3118K0119/XTVdBE/kgapBIkuWLMFjjz0mZScoKAijR4/Gf/7zn3rH7XY70tPT6z2dM8awbNkyFxthYWG46eabpPyNGDGCK/QbN250EXreO0BFUXDrrbdK+TKSNm3aICkpCUlJSUhOTsa+ffuwfPlyzJs3D7m5uaplX375ZTzyyCOGikqgcvDgQaxduxa7d+9Geno69u3bx20t+oKoqCjdD9kiIiMjDW+h68Xdnqca4uLihGmXLl2qJ/R2u124bXTrOPE4Bhk8fWBpiD/VOX+EhN4AHA4HkpOThenFxcVISUkx1OdHH30kLfQAMGTIEBehB4CdO3fWE/pDhw4hJyfHJV9ND4MMiYmJ3OMNn+Dz8vKwf/9+l3zDhw9v9Buqoijo1asXevXqheeffx7//ve/8X//939CwS8tLcVnn32mezS0mdi4cSPmzJkjHMjZGMTExBhmy6gHBk8QjRCXJTIyUpiWn5+Pa665pvbvvLw8t+zIoPZ6RA/+WOf8EXpHbwBbtmzByZMnfepzz549+P3336Xzi0alNnxPv27dOm4+0ch9HvHx8ejUqZPL8aNHj+L06dO1f4vez+vx5QsiIiLw1FNPIS0tDT179hTme+utt3wYlf+QmpqKG2+8EYmJiX53w23WrFljh2AovKmyerBYLMIHFofDUe9vUWveiDg8fVDw5zrnj5DQG8C///3vRvH7ySefSOft0KED4uPjXY43FHbRRTNo0CBdsY0dO5Z7vO40nt9++42bR9QjoEZ5eTlOnz6NvXv3Yu3atdizZ49uG1rExcVh06ZNiI2N5aafPXsWFy5cMNyvP3Ps2DEMHjzYox6r9u3b44knnsCqVat0T4VrarRq1cqj8gX5BcL30w0fitR61S5evOhRHGVlZW6XpTqnHxJ6D8nPz8eXX37ZKL4/++wzXRccb9T8+fPncebMGQBV3c+8gXhdunSp16Unw5Ah/IF7mzZdHtG/YcMGl/RWrVrh+uuvl/azbNkyREZGIjw8HG3btkVCQgKGDh2KZ555Rle8srRo0QJvvvmmMD0zM9Mrfv2Rs2fPYtiwYcjPz5fKrygKbrjhBjz00EP4xz/+gRUrViAnJwdZWVn417/+hZEjRyIkJMTLUQc2nggkAGSfzhamNexOV3vtkZ0ttiMVh5vlqc65B72j95DvvvtOOOjj0UcfFS6YoYfly5cjPT3d5bjD4cA333yDv/zlL1J2Bg0ahHnz5rkcT0tLQ1xcHHbv3s192nfnife2226Doigu9nbu3AkAKCwsxK5du1zKjR07FhaL/PNnaWkpSktLXY7v3LkTZWVl0osU6eGee+4Rjo/IysoSroZmJmw2G+6++26cOHFCmOeKK67AhAkTkJiYiB49eqBz586aN1VRj0hTGyUtouah3F3UBLah0IeFhSEqKgrFxcUueUWj8WVx51Un1Tn3IaH3ENFKeJGRkUhOTta9RCSPPn364L777uOmzZ07F08//bTUQKEBAwZwj+/ZswcjR44UdqW7swJWs2bNMGjQIJdXAykpKbDZbMLxBXqXvRWN3mWMIS0tDf3799dlT4YWLVogLCyMu0SmmZbNVOOXX35RfT0yZcoUfPDBB7rrv2gAmJluup6QkZHhUXmRQEdFRSEsLMzleHx8PLeR4emYJHd6vqjOuQ913XtAenq6cBnZSZMmGSLyADBy5EjhnPkjR47U6w5XIyYmhtvarGll87rSPZnqxltfnDGGY8eOYdu2bdwyepey7HxtZ2Haxx9/rMuWLOXl5UJB1/uKI1D54osvhGkffPCBWw+5TqdT2FqjqVJV8HrB9HDs2DHucdGrNtEof08fONxZApjqnPuQ0HuA2rv5Bx54wDA/YWFhmDp1qjBd1KvA46677nI5tmnTJpSVlWH9+vUuacOHD3d7hKxoAN+BAwe4a2snJCQIB7qJaNGyhXCA0sKFC4U3Nk9Q2yPA03nOgYJIcNq2bYtp06a5ZXPfvn3cbmLAXDddTzh8+LDb3fdFRUXCacCi3j7R3hULFy5UnX6nRlZWFlJTU3WXozrnPiT0blJeXo5//etf3LQOHTqgX79+hvqbOHGiMO3bb7/lzn3nwRvRXlxcLBxrwHswkKVnz57czTdSUlK4vQcyS+zyUNu56sknn+S+w/eE119/nXs8JCRE94NKIGK324VdwO7uTAYAP/30kzDNVBuMeMiiRYvcKpecnCzcdZG36yQgFvrKykq8//77bsXx1ltv6e4WpzrnGST0brJ69WrhRTN58mTDF9fo2bMnbrqJvzIdY0x65H+/fv24sYnmgHuyFK3FYsE999zjcnz+/Pnci8hdX9OmTRN+3xs2bEBSUpJhF+2HH34oXGvg8ccf94tFVbyNaMVGAG4/6Jw4cQJ///vfhelmuul6yptvvik96ryGS5cuYfr06dy0Dh06CF/PtW3bVpj21ltv4dy5c7riyMjIUF1cTATVOc8goXeTzz77TJiWlJTkFZ9TpkwRps2dO9dlwQseERER3AFvvBXqYmNjhWtjy8IbyMebEhgUFCRsVWjRvn171U2AVq5ciQEDBmD79u1u2QeqZjjMnj1bdT37prIqXnh4ODp35o+N0LOIUw12ux2PPfaY6o3V02llZiIvLw+TJk3S1bX8xhtvCLuon3/+edU1+R9++GHucbvdjtdff126dc4Yw/Tp090a5EZ1zkN8vFueKTh58qRwG8v+/ft7zW/+xXxmsViEvleuXCllZ86cOVJbsE6ZMsXjmHNycqR83X333R75OXToEFMURdPPxIkT2bZt25jdbpeya7fb2fLly1mPHj1U7T7wwAMexa8Hf9imVrS1JwC2evVqaTs5OTmqWzLXfF588UVVO6Jtanv27Kn73ER1NioqSretgoICri13t6mt+3nuuec063FpaSl79NFHhTbCwsJYfn6+qo2ysjLWtWtXoY2kpCRWVFSkaqOoqIg9+OCDmuektk2tv9W5QIKm17nBN998I0zTs/68Xlq0bIE///nPwtGnycnJwndqdbnzzjul/Lkzra4hsbGx6N27t+bgG0+Xve3WrRu++eYb/OlPf1LNt3DhQixcuBAtW7ZEUlIS+vfvj6uvvhoxMTFo1qwZiouLceHCBZw6dQpr167F8uXLhS2hGlq2bImZM2d6FL8RrFy5UveWrDJMmjQJzz77bL1jN954I3fvBAAYP348Fi1apFoXS0tL8cMPP+DZZ5+VGtTV1FYclOG9997DoUOH8P7776Nr164u6ZmZmfjTn/5UO6uGx+eff+6yY11DwsLCsGDBAtx+++3c9G+//RYHDx7E0qVLudNdjxw5gvvvv587TU8PVOc8oLGfNAINh8PB4uPjuU+AiqKw3Nxcr/rfuHGj6lNoRkaGpg2bzcYiIiI0n2jz8vIMifm1117T9HXw4EFDfL377rtSPQhGfaxWK9u9e7chscsiatF76/Pyyy+7xHD8+HEWEhKiWm7gwIEsOTmZ/fzzzywlJYWtW7eOffnll+zZZ5+Vqn91P7fddpvqd9IUW/R1PyNGjGAzZsxg06ZNY1OnTmWdO3fWLPPoo4/qOpepU6dq2uzYsSN74okn2OOPP84ef/xxqTjqftRa9P5W5wIJEnqdbN68WVgxxo0b53X/DoeDdejQQRjDq6++KmVnwoQJqpXcyFcQWg8nsbGxzOl0GubvpZdeckvQ9H4URVG9MXkLfxB6xhhbuHCh4b7uvPNOYdrp06eF30lTF3q9n8TERFZYWKjrXIqLi9no0aO9GpfW9eRPdS6QoMF4OlFbtEE0aMVILBaL6pz6jz76CBUVFZp2tFagk3kFIEvfvn1Vd7saO3asoaPVZ82ahTVr1ggH7xhB//79kZaWJlxopCnw8MMPq0771ENwcDC++OILbNiwAb179+bm+e677wzxFcjMnTtX+P3Ict9992HVqlW6d/aLjIzE999/rzooWIYOHTroWvujLlTn3KSxnzQCifz8fBYUFCR8Qi8tLfVJHGqDAQGwxYsXa9o4fPiwqo3t27cbGvM999wj9LV06VJDfdVQVlbGZs2aJfzN3PlERESwBQsWSA/m8wb+0qJnjLGSkhL2+uuve/QdP/TQQ+zIkSO1Nl999VVuvj59+gjjaCot+i+++IJduHCBjR8/Xvf3bLVa2Zw5c5jNZtN9HnVxOp1szpw5mt3ovM+gQYNYdnY2+/7777npMj1k/lLnAgkSeh1s2bJFWHGefvppn8YyatQoYSzPPPOMlI24uDhu+YiICI9vBg1JTk4Wxnv+/HlDfTWkoKCA/fDDD2zq1KnsqquucusG+dBDD7Hvv/9ed3enN/Anoa/h5MmT7LHHHpO22bx5czZ58mR24MABF1sbNmzgllEUhRUXF3P9NxWhX7JkSW2ehQsXas4Gqbmep06dyk6dOqU7fjUuXrzIZs2axaKjozVjiI+PZ3Pnzq19QPZE6Gto7DoXSCiMmWjlfoLQwOl0Ij09HUePHsWFCxeQl5eHvLw8nD9/Hvn5+YiMjERcXBxiY2MRGxuLdu3aYcCAAV7ZBc+MnDt3DhkZGThx4gQyMjJw/PhxFBYWolWrVoiJiUFcXBz69euHXr16qc7dJuRJSUnBli1bkJ2djVOnTsHpdCIuLg5xcXFISEjAHXfcYdi+GzxKS0uxe/duZGRk4NixY7XLTrdt2xZt2rRB37590b9/f68tJkV1ThsSeoIgCIIwMTQYjyAIgiBMDAk9QRAEQZgYEnqCIAiCMDEk9ARBEARhYkjoCYIgCMLEkNATBEEQhIkhoScIgiAIE0NCTxAEQRAmhoSeIAiCIEwMCT1BEARBmBgSeoIgCIIwMST0BEEQBGFiSOgJgiAIwsSQ0BMEQRCEiSGhJwiCIAgTQ0JPEARBECaGhJ4gCIIgTAwJPUEQBEGYGBJ6giAIgjAxJPQEQRAEYWJI6AmCIAjCxJDQEwRBEISJIaEnCIIgCBNDQk8QBEEQJoaEniAIgiBMDAk9QRAEQZgYEnqCIAiCMDEk9ARBEARhYkjoCYIgCMLEkNATBEEQhIkhoScIgiAIE0NCTxAEQRAmhoSeIAiCIEwMCT1BEARBmBgSeoIgCIIwMST0BEEQBGFiSOgJgiAIwsSQ0BMEQRCEiSGhJwiCIAgTQ0JPEARBECaGhJ4gCIIgTAwJPUEQBEGYGBJ6giAIgjAxJPQEQRAEYWJI6AmCIAjCxJDQEwRBEISJIaEnCIIgCBNDQk8QBEEQJoaEniAIgiBMDAk9QRAEQZiY/wf6y42vZKrmWQAAAABJRU5ErkJggg==;" vertex="1" parent="1">
          <mxGeometry x="590" y="580" width="80" height="60" as="geometry" />
        </mxCell>
        <mxCell id="FwzEZSmV-JDLDYe5dAxX-10" value="" style="shape=image;verticalLabelPosition=bottom;verticalAlign=top;imageAspect=0;image=data:image/png,iVBORw0KGgoAAAANSUhEUgAAAOEAAADhCAMAAAAJbSJIAAAA4VBMVEXgUkP///+MMSPfSjngUUGHLyHfRzbkVETto5zgU0TeRDKFLiDfTT3eQS6MMCLfTDyEFgCGHQDCRjifOCqZNijOSzzZT0CRMyWzQDKJKBeKLB2DEQCbNyndyMWmOy2GHwj54uD99vXngXi4QjT87u30ycXyv7ukZFyZTkTSt7TIpqLpjoblcmfePSnxuLPmeW/Qs7D65+XjZln20s/iXU/o2ti4iYT32daqcGm+lZDzw7+venSeWVDsoJngzcvv5ePka1+TQDTpi4O/OCbDnpnPh4DCbGOoNCO1g36UQzigXFPsvA2GAAARaUlEQVR4nO2dC3eivBaGBUEURQGvaBWx2tZqtfVSe1PbfnPOaef//6AT8AokYSNUtOt718ysNa2EPO5sAnkTEmN+u2JRV+DH9S/h+etfwvPXTxMa7Xb74aE5m407nZdOZ/3PGGnWbD48tNuG8cM1CJfQaDdnnZdBcj7vtfqTVDwhriSJ+3L+NBGPTUb9Vm+eHCD4ZtsItU5hEBrN8dVg/tmfcKIkWTWO53KZDIcUg8j8IJfJ5OLWN4KKiJm8CLfZDqF2AQiN9vgq2etzd6hOiUQ8lwECQZBNXoQr3XH9XvJqHCSsBxG2Z4P5cBJHYCZXSFgEWAtVyo1ayavZQSH1SdgeD3rvookWXsRAoFzGBBXfe4OxT0444UMnOUyhJPvpqFFBMznUdlPDZAeOCSI0xskhapPxCNn2heIpStwwOTZCITTG81HiZOB2MjET7wBKOuEs+Y5Cd9SM8yOTUuwnZwcSGi+tOIpd1BSeQpS5XoccShJh5zMunlzLJInLiYlWxw9hsyeKuXPBW4nLiIl5E0g4GEnx88JbiYtL71cAwgEnniPeShmRG3gQDjKJ8+UzxYmpKwrheHLG8duIE0dNEmFPOn8+UxkpiSfsJ6KuWmgShzjCSS7qeoWo+MhN2I9HXatQFR86CQdi1HUKWdKVg/DMbmG8xaXshDMp6hqFLqlpI+z8tkaKrqcdO+Hv6Sk2Esc2wu4vJKzbCf8Roq5RyBL+cRAqUdcodClOwovfFUThwkXI56OuVKjK8y5Cli+XfksYhVKZZ92ELMtf/g5E4TKNaHCELF8onj+jUCzwrJuwbhGybLpx5k1VKObTKxQH4VRm10rni8K5Qgox9SK9Aakt7c8WWnbzG9RW1dg5Mgqly/KWj62yjqen220QTUa+UTwzSKGkXvD8HoPcdRAybxq7r3S2cTaRFISUmrfhsax2zTgJmQ87Igokn1dLJ5+TQqx0eZG24yHAG8ZNaLzprFM8X6ig9nqilIKA2maj7MJjWf2NwRAyzFet6vosgkwXKmrp1DBRdYpqI4uhQxeZ2iODJ2QWrJ7FHGE22Gz+soia7AlgmpUoqZULlsfRsWxWYRcMiZBh/uh4xlUwy/mKanFGA2qeuFS8bBTQN46nQ3y6fmtH2hBu/EXjWdcxbXUPk19xxo7IaX2niM0KHBHObJ+69mdD5hxN/M94e8W5ZWWNFMgNJ59mC40N6E+hCmsy9bKRL3uwmeHTZHYXv85/HYSP0t4MlfqrrlACuQeKTlrII1TEWlpXKSDuuoiSCVZpFFYnoaOtwqcoT/UdQvPuyUkYz+1PaTC6f2t6lR5JG2kaXYzKJmzlUi0i3JTgEg5l/9cIqmhh5QtlNg0Es5St6rXrrrFX/5lYchH+w93Z7VOje60rGiCULlo+bYovI+J8AzEjaiTVIfQj9JtGo5G/KJSz6Bjzjw+sLZ6m6HY8hhnccaqL8H9CTOw75lIZ9ccP2T+lG5mmIIVXNUVmv+p2PKbdF2PC/1yEmmBZi44Po493Xz9qiBLYYo+mLKKrfbx2l84KG/O7DMoBzU1YMpMjnnAzMsyy+/ymy/qpYCI4VJvvRzcd4ksmLJuwVHUTqlb+cwlx/uA+EGl6/3pTk5VIObNVs13Kb1/3U0wg0BV0Lq4nyqiuGD5rlfXFjotLQ9L8ImZa//P0oaPcPDanGTdF1j+un3GRW+nlfTsRSGhorw7CulzYXc4zYqY3JpWDWsK0++f1TbMCikh/EjVrRg2h1fS319v6Ehu4lca9uLibhCcU9HsHoSHzpb3Oypwp9kmBtLRc3D8/3XzoNcVCDTOqKGQWmJK9uX687eLb5O4rN/FsHm+J3wzT7O68b6pFe4+MIOPDAXaqmKP85aJ7+/z19K3XajUZBRbhIl4UXGB4s2akEBKC0hGWjIopv70+3tYXtKBt9DDoJ1yz8FQ+u/n9lvBxm4h7kJmEFP+EUG5hp4v6vYl7/XbzUdUVExlBb6RvtPqv+Tv0CXSr/33zdv309Xx7e1+fQrA2dFe9nJRwz6EUKtsLzY6wrhSwd5RcLiHFhskZ/LR7wIbRXk6ni0V9pW733lIXCf13sZhOEc+Bq2Zmg9ZESuDnH6A03N6DbwmNGo/77DqWcfFu1BschBm+jNmgN7qjzsxOy9PNp3dPwCxfJB6wDqaYmLSSHXx3eRw1X5KtSYIUuq2KfG17yI7wC5OILkprmrw0ac2vZiEvT/JQe3aVbI0ka8GA58QYoVLdDibuEXaVPPTRzlreIcZTw/mgc9hCFrAeZi/J3nCSE61FLMD6CRf69lF/j3Aps8ACNpwrUEmcmOuwrjrNByMkrPbDrDNI9lrvKWm98sjnfCZe3g1G7Y1EfXgkIhl1vQ4LKWfSzgdXnfGs2YZdJc0LbnM2thb19T5b/UnGWrFngh06lb7Ia7sz7xG+aoEdUvsqO5Q0sclk9P7eHw6HrVbr01LLFPpB//19NJmkYnHrkxbTelFfwErEhMsqfkT4XgcnIlTrlYVr5SxldrJ+Hf6EOiG/l4b7hMuaz0Q8WbF7aWgbEdYOTcQTE+oNDTzhU/BEPAWhNLxh8IQ/kIhRSMhrzwTCqd8e8USVVeoEQqaaLnkff/IqphWDRHhdVc+/mQpq9ZshEd7qjV9A2NAeiYRTufwLCFlbGjocUoU//0Qs2XpDJyFKxJDOw/lTSGc1pfK2NHQQ/gkrEVGd/fCFiIjS8ItCuAgrEeNJxo+S4S1JEspK11a2ndDQQ+oRoyMspWX7sL9jLsZbSIkYHaHKs/ayHYTPISViZIR7lgyeMKxEjI6wvLVk8IQOg+ZgRUa4Z8ngCZmbcBIxMkJXGroInwHjwgBFRbhvyRAISQaNT0VG6EpDF6Ehp8M4U2StdM+SIRAePi5sU1SEKq87y3YR4pxS/4qI0GbJkAjroaxii4qw4JxdiiFsU5xSuCIiTPGuNMS8n+bbOWXhEEVEWOQ1V9luQohT6qloCHFpiCEMZTlpRIT7ziiZcBlGIkbUSvedUTJhKAZNNIT7ExRohCE4pdEQ2p1RCmEYBk00hHn92V02hjAMpzSaVspi0hD7Rjo2HTgRIyEs8jZLhkIYglMaBaHDGaURhmDQREJod0ZphFOZPUtChyVDIQzBoImCsOiwZGiEwQ2aCAgFpyVDIwyeiFEQOpxRKmFwpzQKQqclQyNktKAGTQSELkuGSvg3aCJGQKjyH9iy8YSBndLjE7qcUTphYIMmAsKyjk1D0ruggxo0xyd0WzJ0wqBO6fEJ3ZYMnfBZC5aIRyd0O6MehPWAiXh8QrclQyc0lHTqrAhJvSH5rfMBndKjE6p8lVA2iTCgU3psQowz6kUY0Ck9OiHGkvEgNGpskB7x2IQljCXjQeheU3rShDhLxoswmFPKxVJ+FAs4cw+loduS8SIMaNAcd/YlJQ3JhEs5fUbzhd0TFLwJmewZraAp8gqRg0z4dT4raIRK9e8BhN3zWUFjX6wGJlzW2EC3pscU1pLxJAxp7tAxhLdkvAnDcEqPIrwzCiA8m6VseGcUQIgS8UwIeYWchjRCRjmTRCRYMgDCM1lTitIQa8kACM9kKZvQwDqjEMJprQw8ibkfajzM3WR9Ce+MQghha0rN1/Sk+p/JZHI+HMXF429KV0rLxqGEAKeUS4itl72Xf8ySEyngxlF+vyKVmoZ0Qs9E5MSRa686ptmTgux8mRn5QyQ5oyBCL6c0zmH2G0R6GB6+g1si6XPfIoHFO6MgQqZGM2g46ZN4YCdzYBi5DMMMfR1b4mvUV+TQCWlOKSfhA7iSceA+dSIq9MFXEImWDIiQ4pRyCfomtUzrEERuYh7a8zH0RnRGYYRkp5TLeb4Q6xBEyXrPn+FjI02iMwojJK8pvfOIoKm+724js97xLgn/csiWDIiQaNBQc3D7/fh+C9LdpmGkwEd6paEXIcGgybUAgAwz9rlfXby3OfIFug+cUCE5o0DCuoJLRE4yQIRMz1c75RK7YkfAHoPsjAIJDWyPmIC6Em1fQdwvFtrtEycoQAmxBg2XM4CEvq77nK0uLVj4VbIlAyTEGTTxORSQefCxr6Jou3q17yDHUJxRKCHOKd3sDgkR/DY6M7IfOYeEn2bJAAnbimtN6XaHT4jgzqDk6GEN0NaoFEsGSIgZF871vI7Z0wzaTDOuDgiyvS3FGQUTuhMxAentNzKgV1PJ/YDg3e1jF6v5JXQ7pSLghm2nCSwR45iG0fH8doQLzzT0JnSvoMF82xT1QV03FzcOOpb1TENvQnciir4IWyDChHswhDG34fA4jOaMwgldBo0/wk9Iz80RquFxsHBJcUbhhC6n1F8rBcVQJLzIvy1Ss5jqjMIJlzLvIPTR4cMGXTLvpKPp3b6QpjijcELXmlLSF44X5FpKeZymPmIWeepY8EoAQqdB42u+E6Q/pD1t0rp9wmI1hwCETqd0M9QA0tj7xoSjXroobYCwWM0hAOG0lrWXLIH5QPfP9EcV2jhBlmrJrAUgZLKONaXiCxAPyduN4uL0EsiXKlAaggidieijmXa8Gym+s9+J2O3D0hBE6DJo4P3Fu2dfsRoDpok0TuBlyawFIXStKQUHETDYJnn2PaTxYcKaUacghG6DRvLagmYt784w0/cuhTA+XErTJihsBSJ0OaVcDFI2M/ceugY1eHy37zkWvBKI0G3QgIaEx96DSTmyQbenK9z1ytOSWQtEOJVdUxZE7/G2Jv222RS9s98JOz5MWDPqFIgQZ9BIXvduD4A5C9ChZdwVq8R7WDJrgQixS9kk+oDUGOCQeXX2O2GewUhrRp2CEWKd0kTfIB8xgDj5okdnv5PbFiYvVnMIRoh3SjPEUbeHPmQQkRsRDsfI1e17OqMbwQjxBg26ULzjnuzac9h0E2ivatXA2ei9LRlfhESnNCONBo7L4fhTgo1zu8eAaRo4CvW2ZPwRkpeycQnpfd5pGgZjGA/jQSshwj3DhA85QujtjPokpC5ls3a5SsRyoiRidnmjKMCqmr0NDsMh9F5TGnxpjz+RF6sdRsh8h/Y++nBUJK4ZPZQwnJd+hiaAM+qXMKS374YlgDPql9A4sc2gAJaMT8ITW0EDsWT8En5pJ9RMhYK3M+qbsKvwJzNzX2jwAEvGL+FSZvmL1CkwCrE8T1usdighw5qb+57AbkmCyvJsVjfCJ3zVEGH6ohgto1AspFE9aIvVDia8160NmPmCGosKUoipFh/LauA09EG4rK03mebZSlE4PqQgFBvo3CvRFqsdTMho2122eb5cKcaOSIlOVWyU0/x2K2/QWLBvwr/Vvd3CeZ7NXx6FEp2ipObNE+5U/YBX2wdhvcbaxfNZRFkSfgwTlVwqXl7Y6UzJ0JtSf4TMo+ze+Z1HLbZxqZZS4XKi0lIltZLP8i46MwuhzxV+CZnnGn7De7MahUZFteIZhNQ6HMUNsZVZLBxStgYcvziAkKlXdTzjmjPNl/MoosViqbSurSeusPlcCYGplcZFNp1OE9gsPk2DjSIeRojCKGtkxg0on0a9VrmQb1Qql6qKgBFxaQeDcFLoB0VTqnpZqTTyBRSyNE+K2j5f7cvwV2O/hIzxqClVj3rYaFfE6I9NPL/6lwdgbVXV9UfYIGkQQqTujayDIUNTVZdv7g3/tT2EEN3f3L7VFO14lFlNr73d+g5fAEIko/v1IeteSRkOncy+do1DK3owoanl/Wu5puha9Wc4s1VNV2rV1/vDghcGoSljcfv0rcgmZ4hwVU1TZP379XZhBK1gYEJLxrT75/W7VjNBterBqNls1QybXKt9PD13p0YodQuHcK3ltH77+PT2odVkxIpgEW0WicZkUqGI6SaYwt5cP952p76m6HopVMKtjOWifv/n8cuk1RVFXknZSpa3P9KrHzfXX49/7uvTtvETdfkZQruM5XI5nU4XizpSF/1dLNB/p+inS+Pnz34Mwmj1L+H561/C89fvJ/w/cBbWClY5xm0AAAAASUVORK5CYII=;" vertex="1" parent="1">
          <mxGeometry x="490" y="580" width="60" height="57.5" as="geometry" />
        </mxCell>
        <mxCell id="FwzEZSmV-JDLDYe5dAxX-11" value="" style="shape=image;verticalLabelPosition=bottom;verticalAlign=top;imageAspect=0;image=data:image/png,iVBORw0KGgoAAAANSUhEUgAAANYAAADsCAMAAAA/3KjXAAAAllBMVEUgW5dRk84uc7f///8scbZJi8ksb7IaVpNRk88dWZZWkskhXJg9bqJln9M7cKdSldEgbbSgu9oAT5FAi8vr8vkATJCNtd11k7jo7fMAUJHv9fq90+qvwNRvj7WJs9zo8Ph9mLssY5xNd6fQ4PCDnLze5/B/rdmwy+bU3eihtM1jha9wpdamxeTJ1OKVq8djntOputGPrtHhCiFzAAAEbklEQVR4nO3d23LaMBSFYbkutYAcGqsQm1NICEnbJA19/5erZXOwjQ3F2gWa+fclI1v6Zm1pPMpFlC9e0eOnQ+rrZCC/BiX9wmjaCw5ifTam/016FcKs6LYXqPaXg1gtr2X6womJslKUOpzleVo4MUFWNA4tqhFLGibGisa9DNWQJQsTYi3bz4mVwu5k1iPCyiXlxJJLTIBVSMqRJQVzZkW3YRHlyLKwiXMrOrK2khJgScCcWPaLYgslwHI/PBxYFe0nxnLdY41Zle0nyHKDNWRF05qkBFkusEasmj0lzmoOa8DagxJlefbrvgGsASuOd6KEWUli+iisoP0hWW1YsGDBggULFixYsGCdD2v+/7G2l1xmjVRLPz3vpJ0X6/uPn0H3eriTNboPg46nW0a/vM7On/X26yHoxUH76tp0irA8a9QN2yro6OxdxrzfzKr+SHgWrMHb40UvjNO1JCxPGy8P27CSpOyYJSt7YULrD8vXqydnRaNpQtrcPViWXWyuFVesNClVYi1p3qSw2U7Kmi/G7TAsXqdkLC+fmMonVcVK35tsts05cirWIDkd4mQrbc+3ZOUSU0VUJSt7Yn2OnII1WJ0OlfOtWRaWHh5q0367WdkE9hxRR2Z53uPV6nSoni/HWraiegiLw3exMto+lTxrz81kkWVhL+qiNGYfy/OOz+ruma/E8vT7x2RdwoIFCxYsWLBgwYIFCxYsWLBgwYIFCxYsWLBgwYIFCxYsWLBgwYIFCxYsWLBgwYIFCxYsWLBgwYIFCxYsWLBgwYIFCxYsWLBgwYIFCxYsWLBgwYIFCxYsWLBgwYIFCxYsWLBgwYIFCxYsWLBgwYIFCxYsWLBgwYIFCxYsWLBgwYIFCxYsWLBgwYJ1etZ9aZUfgvWuFio+gKW1McdnxeHOf2lfYmnjDZXvL4Iw91AtS+uWMZevs0F7n0ucNXj79dAL4+BvWNroZ99PWAmsG6+XWsmyJO/peWYH+8dmaZ1O+/3Hz3avkpZjJUk928EpKw/bYtm+856Gc39VJ2LZmi/GKqGVFrBm2fbLBqrVEytYgWX77ro/vPPzdUKWrWg0vQ/DOLeIJWuDyrF8f3Rv99iaZVO6vJkN/HKdmJXS3h4vNrSUpc31cDNA5UePumHbstLT4eW1gnQmLFubcyRh5ZPaYtnEep30dJj7tXUmrLSyc+TKdIbF31V54Ggy3EE6N5at+eJ2WP5ti7W/zo1VVbBgwYIFCxYsWLBgwfrgrJ13dv8vK46PzGodhRVNe7thoqyW6X87CiuF1d2wCrMSVPU90b9gWVhYDxNjNUU1ZiWw29rEhFi6Ufs5siwsrN5jIqzmSTmyaveYAMslKWdWTSs6s7SZOKGcWWkrlmGOrAR1t3/ef8yqSMyJ5dp+YqwtmANLBiXEKsEasxKUc/tlJcRKYOM1rCFLKilbYiwLWx4ejVjNvv3qSpC1bsUGLMmkbImylrCDWW5fFFUlzMq+PL58PaSMcFK2xFkW9vvmgPotnZStP3/eii5ZtL7tAAAAAElFTkSuQmCC;" vertex="1" parent="1">
          <mxGeometry x="501.5" y="470" width="47" height="40" as="geometry" />
        </mxCell>
        <mxCell id="FwzEZSmV-JDLDYe5dAxX-12" value="" style="shape=image;verticalLabelPosition=bottom;verticalAlign=top;imageAspect=0;image=data:image/png,iVBORw0KGgoAAAANSUhEUgAAAQ8AAAC6CAMAAACHgTh+AAAAvVBMVEX/////aUomKjgjJzUyNkQADCPR0dQTGSsZHi+dnqL/Z0eBgof/YD0hJjb/YkD/Xjq+v8IKESbl5ecAAB5LTlj/WzU2OkYAAB+Wl5z/497/9PL/xbv/j3r/+fj/blD/qpv/2NH/saTy8vP/f2f/oZD/0cn/clb/7uv/t6v/m4kAABqxsrZGSVQPFin/6eX/h3BoanLCw8ZcXmeoqa3/kn6LjJLp6uv/ycD/eFwAAAV0dnwAABHPz9JfYmr/tKgTepPSAAAJBUlEQVR4nO2ceX+iPBDHFeSQcoiIR6+19LSU1qPaXZ923//LegSUBEhCRLB2P/P9qwWiyc9JMpNJaDQAAAAAAAAAAAAAAAAAAAAAAAAAAAAAAAAAAAAAAAAAAAAAAAAAAAAAAAAajfOLye3ko1zZ0a+3t5tRtfX5Xq7udF3TNOv6Yv+yo0vX1DTTvR1XXq3vYqyZzQjNehjvV/R8Ymnbsu6vWip3fO7dbZOiVr297lH0xjWTok3rvbYqHpOR28TR3LsrzpIf13qqqHVXa0WPxLXWTGOaTzzlRrdWtqR7X3dl6+dGb+bQi4eR84mbVWNjW9dHqHDNNPPNCjvN5SOz1JNuEoo1rZJT9ukwtkjt2iiiM6aL8QPBqKJSl8ereT3cEH/nENOk/NiPl4SusuO4ta+eO6oeG+u/JXmdN7lhFC/COzedKhcUy4/N38rNvffXzAIP39KICnl0Gc0LO03KhX99Y3SV8PGbktXwOjyXjgGrw4SkOs35Lftp/bxMFTx/KhmZS52pLR3SrNI8suw/RLMmWKdhCmKWCGE8fx7YhtFKXfpSbFU0qGVq5VeBgWyaqWOd5oHRYcx9v3sjhhMYgiCILezSwI4ufZMejUI9Np3m93j39Ct9wLH2XS6Y/YnEwPWQ/9i7S9+lxwXFJcPR3MluaKDak/Z732/u2IKQ1UNKLvHrIZ8t9/1qFr+Zc8YW09pGeVc0Pazxvl9ciR6fZ6okne371SxoPnuGXZRHMZASvvrBeniztSqpoqBWqkfjksdAwpkmivJGZPlcdgRI4kA95GkkxoaK9ShwynBFQocrt2ISUmauPVCPoSRun61YD445d4fevG+8E/TQtBKRy4F6tBWhJj2uNL4eE5nI5YTw8N5zbcjJ6sE15yJTIFy7LfOtp6tH45bbQIi4pfJRJ6zHiHdIJWJOSn3pCevReOceUgmUi2tPWo/zojiXJQdXgmLD6rPj+x3Z2/7LqYfcWbTb/qeX/bRa9Wg8lRaEc1Wsu+wPJDsIbEeZ+9EVHj3kteHYiqIEktRrpyVBehi99jBmmVOtNKxInok75lFj7qhGUn9bXXDpEZYSk1KBnYrbkB6CoWz5r1uZHpxhTA6TJ2/bflYFHFHqecV6+P8ZqVKCYnwS9UiQqtODN4zJwjOYrqVczdWWNyvQo+3kSomOfzQ9GGGMRp99eNaQ13a+5oL60glYerTkZ0IpAQlStx7EwCQ2gfcnqkdvFpvHMG8dIUY/GRoIeggtdDvFs3wsPWgjSLiRYWSSBeFY9pDzZr9VAf1F0EMgyyEYwrH0oCx9xfs6RuS8nF4cyPXxQdEIpMHAsdOjK1mP+HHHcQZSgH9EMMzpIRpbnCr1IEcxu20uI514tzBy8fEmSj2/63mr2dpOzRw0PYK+v9pc7S76AX7Vy+ghtnpbXlZV6kGK5M1k18+IZD7FswtmHqKUDIbdHm4iFD2cdvIp+BgUxJfr9U9DCOtC2hu6fU9wYc2idSC8hbaM3ZhjgpD1wObWRmOB7hj96MrP1GOJmi35qTtF42mmlVP0QfEoUb8epGQu2hjzStpLVNhfXpCX3kvf8ZFXQtJDVNKxyApNU0ro7R9BjzfiiLkV5JE44xaNpx5qoJ3N2GPzA0EPdZ15HBmIOg3/r18PQnsTQV7JDkjRfPuJGvicjT3XKksPe5Z53EfubBT71q4HJbMSCfJKcVCL/DHUiO0oSG4gQQ8pO3V2UYdxQmlr14O6F0Sf0P11nZ2HGqJKZ+0fsx2SHkH2cQ/5IJEbWrceV/SAnxXPsRNRZ6jT55LOXZYeaAtEApqQjqJH0VYhChbTQJAeyjB7D80YBD2Ml9xntY6qR9kldtxDyfNz9SidgrFY29aX1fUXzzimHvuk6DIGwtq2XuV4mpl7atXj6oAEnc5YIiPMqax7rPkWvxf+X6seJQfTGMaQKlfnjy0yrkydejC2yXHAcMowpyHwM/cU5nphrpFzI30L02NanRIxxMiFH0YKpofiucyM0SmI59S0PWHuqR0py+qKB3JPGkz36EGMvYXYqp6dNpAWtlDEEe8j84jddVxPSW5UCnELFPMkQwb6fpgubT1ojS0Hc6wHDVHrjXn8ychgCM7KIRBzt27j9Y1fEfq6UA8zgwCF/KmcDGW9cIDWC5fYDWn7KcgfEdSXWOpK0rfnRNcj3E/6wd1p0DJrlhmWbhCl+SyscrdtpFbYaevJ9m49uYUZUxIof2Fr0obUWp9NXyrJ306IjY5b+IvXRFzqwd1eKt9gO4rqOEo6ucLKNwykgRPgjzs7I+ukHhZVVRWryL/Qlj3iw1/M42EY9DCmWy4fJVLyUepX8slq7pEq9KAFLrulrzHzTFQCPYxZDIgNM15Y/of40iIKYghojPCl7N0K9PigmQeKS/6aHMMIY1vMMlfvsMEqIXjD4tseMc9pqHiLvzJ5vir0IJ7AjUBLPY/vHJ2GsZS6zDfNkGSvIN5f5BP8qpFqsNfPCHK4Hqx9UpjbST1ziwtCz8X4TqbiiioXr3/4uV008+yE2pNSvepgPc6ZPQHPJjwVdhrW0uHqC9/5pEhh8L96Frck58VkZ5eZVkMXazVFpURVamUjoA1tFUsFi89dT/YOyeGy41rNHGPSkc7spw2EtXQon6nxzjjb6Q+jn3Gl9re0dv6l3E8y0/E00l22HMkObHugTMknLr3FXNo8EX2wMfW82bpNfI4LsiuGfnH9L/404Z0O3AYStdZvD4eL2Z6/X7hLszNjdQRP7viLth8/48kH2Af7PLI7yY4IbIf157/ggXleHZ0ixGA6rD/+vDrjfQa0kJXhsP58+6C+7yJ/dB8r9JtiI9rPf4UQ+X0oVsFrlS6axHGHmXn4GfwlvS+nWdyu1Kul/pnu0iC9Tyk9x9JArx5L+Bfep5R/39aE9zDLKDOwWv/GG9lS72MjvxOGRmpgdf+J149tGO8CE02/3tfiP663u1I1l/dQ0OmzGQpMTdN0rUyTnpqWaerW+z7v+Tt5Hp8uH94uyjmXVx93dxf7H1YHAAAAAAAAAAAAAAAAAAAAAAAAAAAAAAAAAAAAAAAAAAAAAAAAAAAAAACojf8ByUS0e/b9YskAAAAASUVORK5CYII=;" vertex="1" parent="1">
          <mxGeometry x="494.5" y="410" width="61" height="36" as="geometry" />
        </mxCell>
        <mxCell id="FwzEZSmV-JDLDYe5dAxX-13" value="" style="shape=image;verticalLabelPosition=bottom;verticalAlign=top;imageAspect=0;image=data:image/jpeg,/9j/4AAQSkZJRgABAQAAAQABAAD/2wCEAAkGBxEQEhEQEA8VEBAQEA4XDxAQEhUVDxUVFhIWFxURFRgYHSkhGBolGxMZIzEhJSkrMDouFx81ODMsNygtLisBCgoKDQ0OFxAQGy4iGyU3LS8vLjctLjA0LS0uLTArNS0rLS03Ky83LS0uKysrLS0tKystNy0xLi03Ky04Ky0uK//AABEIALUBFwMBIgACEQEDEQH/xAAbAAEAAgMBAQAAAAAAAAAAAAAAAQUCBAYDB//EAEgQAAIBAwEEBQUKCwgDAAAAAAABAgMEERIFBiExEyJBUXEUU2GBkTIzQlKSoaKz0dIHFRYXYnJzscHh8CM0VGN0gqOyNUNE/8QAGgEBAAIDAQAAAAAAAAAAAAAAAAEEAwUGAv/EACkRAQABAwMCBAcBAAAAAAAAAAABAgMRBBMxUpEFFCFREhUygaGx4XH/2gAMAwEAAhEDEQA/APtIAAAAAAAAAAAAAAAANS62jSpPTOaT7sNv14XA8fx3b+c+jL7D3FquYzES8TdoicTMLEFd+PLfzn0ZfYPx5b+c+jL7Cdm50z2RvW+qO6xBXfjy3879GX2D8eW/nfoz+wbNzpnsb1vqjusQVv49t/O/Rn9hp1d8LGLcZXGJReGujqc/kkxYuzxTPY3bfVHdfA5/8tdn/wCI/wCKr90flrs//E/8VX7pPlr3RPaU7tHvDoAV+y9t211noKym4848YyS79MkngsDHVTVTOKoxL1ExPrAADykAAAAAAAAAAAAAAAAAAAAAAAAAAAAAfP6k3JuUnlttt+lmBJB0MOekIZJDJQhkMlkMlAcZtaWK9X9dnZnF7Y9/q/rsyW+WS1zLxyQYRZmWqZyyTDf3euZUrmhODw+lprxUpKMk/Rhn3I+D7J9/oft6H1kT7wzS+LRHx0Sv6PiQAGoXAAAAAAAAAAAAAAAAAAAAAAAAAAAAAB89IJIOic8EMkhhCGQyWQyUBxm1/fqv67OzOM2o81qv67Mlvlkt8tQInALMQyy29k+/0P29D6yJ94Z8H2T7/Q/b0PrIn3hmm8W+qj7ruj4qAAahdAAAAAAAAAAAAAAAAAAAAAAAAAAAAAHz0gkg6JzwQySGEIZDJZBKHnXqqEZTfKKb/kcTOTbbfNtt+LZb7d2gp/2cHmKfWa5N93gioLFunEZZqIxCMEGRBniHps7J9/oft6H1kT7wz4TsaDlcW6XN16P/AHR92ZpPFvqo+69o+KgAGoXQAAAAAAAAAAAAAAAAAAAAAAAAAAAAB82V7S87D5cftI8tpedh8uP2nISgeZ0028NHtxLs/LKXnYfLj9pDvaXnYfLj9pxoJ2zbh1Vfa1GPw9T7oLP8imv9sTqZjHqQfPHun4v+BXYIMlNuIIoiEYGDIxM0QlDIJZB6HQ7g2fS3tJ9lJTqS/wBqwvpSR9gON/Bpsl0qMriaxK4xozzVOPJ+t5fgkdkc14jdi5enHEejZ6aj4aP9AAUVgAAAAAAAAAAAAAAAAAAAAAAAAAAAAAfCTCUTMhnXYy0zywDNoxIwZQQZEHuEIZiZMxZKEMvt0N3ZXtXMk1b02ull3/5a9L+Zeo3N29y61y1OsnQoc+KxVmu6KfJel/OfT7Gzp0IRpUoKEILEYr97736TW6zX00RNFuc1fr+rVjTzVOauHrCKikksJJJJcklySMgDQNiAAAAAAAAAAAAAAAAAAAAAAAAAAAAAAAA4nbu4rqVJVLepGCm25U6mdKb5uLSfD0YKz831z52j7Z/cPpILlOvv0xERLBOntzOcPm35vbnz1H2z+4R+by589R9s/uH0oHr5jqPf8I8tbfNH+Dy589R9tT7g/N3c+eo+2f3T6WB8x1Hv+Dy1twNr+Djzt1w7qUMP2yf8DpNk7rWls1KFLVNf+yp15+KzwXqSLoGG5q71z0qqe6bNFPEAAK7KAAAAAAAAAAAAAAAAAAAAAAAAAAAAAAAAAAAAAAAAAAAAAAAAAAAAAAAAAAAAAAAAAAAVu0tu21s8VqyjL4izKfrUctes098tsu0oZg8Varcab+LwzKfqXztFfu7ujT0Ktdx6WtUWpxm24xzx63xpd+f5gWdpvZZ1XpVfS3y6SMoL2tY+cuyi2julaVotKkqMvgzpLS14rk/WW1jaRo04UoZ004pR1Nt+tge4PC6vaVLHS1YU88uknGOfDLM6NaM1qhOM4vlKDUo+1AegMatSMU5SkoxXOUmlFeLZ42t/Rq5VKtTqNc1TnGTXsYGwAa0No0HPo1Xpup8RVIufhjOQPW5rwpxc6klCEVmUnyXiY2tzCrFVKc1OEs4lHk8PD+dFVvXWjKzudMlLEFnS08dZc8GG439yo+NX62QF8DVjtKg5dGq9N1M40KpHXnuxnJtAAc5v9WlC0coSlCXS0uMW4vm+1D8k44zG9u4vsfT5/gB0YOWs7+4tLina3VTp6VfKt7hrE9XxJ9/FpdvNce7ob2+pUI6q1WNOPY5tLPoS7fUBsArLHeC0ry0UriMpvlHjFvw1JZ9Ro7f3kp29SjSjVhqdaHlGeOiljjnHJvKA6EGlY7WoV1OVGtGcaeNbXBRym+OfBmpPemyUtLuoZ9GXH5SWPnAuAY0qkZJSjJSjJJxlF5i0+TTXMqd7dpTtradWn7vMYxbWVFyeNXs+fAFxgHM0d01KKlVu7mdVpOU41sLLXwVh8DcqXENn276a5lVkukdN1pZqTeMxprv7ALoFDsHeSjXhRhOvB3NSK1U0mnrxlpL1FtaXtOtr6Oan0c3GeM8JLnFgbANe6vadJwjUmourNRpp560njEV7Sby7p0YudWcacF8KTws9y736APWc0k22kkstt4SXe2ITUkpRaknyaeU/Smjn9p7ctri2uoUa8Zy8nr9XipNKDy0pJZ9R4UqFGey6Ma9V0aTpUdVSPNdZYXJ82B1IPKm4xgnq6kYLryfwUvdNv0dpWLeiyctHlUM+vT8rGPnAuAQnniuKfJrkAOI/CXBryWeMwi6qfj1Hj1qL9h21KopxjOLzGSTi1yaaymam2dmQuqUqM+CfGMlzjJcpL+u1nH2t7fbM/sqlB3Fum9Eo5wl+jJJ6V+jJAb99szasqtSVK7jGnKpN04ubyouT0r3HcVuyNsXVKvcxr1umVtb15SinmDnHSlxwnzePae9ffC6rpwtLOUZvhr4za9KSikvFllu7uz0VCtGu81rqElVecuKafVT7Xl5b7/ACp3Z3fjfRnd3c5VJVJyUUpNcubbXHnwSWEsGNzbPZV5RdGcnQuGlKEnnhqUZJ9+NSafPs8Wzdo3GytVCvbyqUtTdOpDlx56XjDTxnHBo9LejX2nc0q9Sk6NtQacVLPHD1YWUtTbSy1wwvaEXlKW0r+pbzm429tr6sf0Woya/Scnz7kZ7y7rU7al5TaynTnRcW+u3wylqTfFNZ/eZ7XtLixu5XtCm61KrnpYRzlasak8cUm1lS/p6+1NuV9ox8mtrWcYzceknJ8MJ5w3jEVlc/QBO3dv1a1raQg9NS71Kq1wy4z6NxXcpS4+HAsluHbqnpUp9MlwrauGrv08sZ7OfpPLbu60/JreNu9Va0Txjg56nqm457dSyl4nlDfK4lHoo2U/Kmscnp1ctTjjK8PnAp9iwcbLaal7pdCpeKlLJncbRnT2daUKctLryuNcs46sarWnPYm5LPoRGwKcpWe0opOU30PBLMm9Us8uZuy3fqXGzrfTBqvRlXapyWmTjKpLMePJ8E0BXX1pYRh0Fuqt1dY4VKWdGrw5OPgn4nb7qxuVbxjdRaqRbUXKSc3D4OrHb2epHM7P3mdvT6Gns5wuMYajFpSl8aSxqfh851uwatxOjGV1CMKr7I8Hjscl8GXo/dyAqvwif3N/taX72dLHkvBHO7/wBKU7RqMXJ9LS4RTb5vsQ/K6GMRtLqcuxKjj+IHhv7ys8e78rp6O/8ArOktNvXdnTdPypRnJNulBw6SeXwzGKT9pWWNhcXdxC7u6fQ06GfJ7dvM8/Hn3cUn2clw4cfHaNSVptCV1VozqUalGMYVKcdTptYyvRyfyvEDQ3rv6NSFKdK1q0alOvScK06HRxxx6urxSePQW29lOPlOzuqutcvVwXHjDn3ldvRf1b2lHobeqqFOrTlOdSDjKbzpShHm0tTbZa750qidrcU6bqq2r6qkILMtLxxS/wBvzgXdz0NOnN1FCFLS+kbSUcPhh+3HrOfjtOxlB06VnUq0mmv7G0bg/BtL2mvvDdPaFrPyalVfQ1aM5wnBxc44nmMfjY4NpG7T3o6SKp21rWdZrEYSp6aUHjHXlyUUBj+D2bdpjLxGtVUc80uDx7ZMvdo2MLinOjUWYTWHjmuOU16U1kpdw7edO2lCpFxlG4rJ5TWcaVlZ7OBa7X2g7eCqKjOstSUo0lmaTT62O1cF7QKKNttGyWKUo3tCHKnPq11FdkX28PH0I2LradK8sLirCOHGjXUozS1QmocV864h74UmsQt7idTspqi089zeeB47I2LWVpdxqJQrXnTy6PPCLnFqMX6/3gWO6tGPkttLRHV0UOtpWfaaG4//ANv+trGO622lGFC0qUK0K0FoadN6OGes32LBq2F5LZ1a6p16NR0q1aVSlVpwcovV2P1Y9jA3N8Pfdnf62n/2geW0KKutpwo1VqpW9u6nRv3MpNri12+6j8k1Nr3VW6r2NWNvUhb07qilKpFqcpOcW56eyCUeb7yw29Rq291Tv6dKVaHRuncQprM1HOVJLt7Pk+kDY3t2VSna1pdHGM6VOUoTjFKS0rLWV2NZWPSVG1P/AAsP2dv9bE2dr7dd3Qq0bW3rScqc+knUp6IQilmSz2yaWEl3njtKhN7HhBQk59Hb9RRev3yOeHMD23pbqLZ9plqFzOHS4eG4wUOr9LPikdBPZFu6fROhT6PGNKglj0p80/TzKreHZtWpStq1BZr2rpzhB/CWI6oePVXsZg9746cRtLh18cKLpP3Xc33enHqAbj1JKFe3lJyVrcVKcG+enPBe1P2g2t0tmVKFKcq3v1epKpVS+C5co/13kAXgAAZAAAAABkACp3mt7mdF+SVHCpF5aWE5x+KpP3L9hz8t6b5w6JWE1XxjXpnpzy1aNP8AHB2wAodzdjStKLVT32rLVNJ508MRjntfN+LL4ABkAABkAAAAAAADIAAAAMgABkAAAAAyAAAyAAAAAAAAAAAAAAAAAAAAAAAAAAAAAAAAAAAAAAAAAAAAAAAAAAAAH//Z;" vertex="1" parent="1">
          <mxGeometry x="610" y="470" width="70" height="40" as="geometry" />
        </mxCell>
      </root>
    </mxGraphModel>
  </diagram>
</mxfile>
